o Cone_Cone.001
v 1.5001 0.516 0.8785
v 1.5001 0.516 0.8563
v 1.6441 0.516 0.8563
v 1.6441 0.516 0.8785
v 1.5001 0.5958 0.8785
v 1.5001 0.5958 0.8563
v 1.6441 0.5958 0.8563
v 1.6441 0.5958 0.8785
v 1.5109 0.585 0.8563
v 1.5109 0.5268 0.8563
v 1.6333 0.585 0.8563
v 1.6333 0.5268 0.8563
v 1.5289 0.5764 0.862
v 1.5289 0.5353 0.862
v 1.6154 0.5764 0.862
v 1.6154 0.5353 0.862
v -0.998 2.7106 -2.3191
v -0.9502 2.7029 -2.3135
v -0.9096 2.6811 -2.2974
v -0.8825 2.6484 -2.2734
v -0.873 2.6099 -2.245
v -0.998 2.7581 -2.0437
v -0.8825 2.5714 -2.2166
v -0.9096 2.5387 -2.1926
v -0.9502 2.5169 -2.1765
v -0.998 2.5092 -2.1709
v -1.0458 2.5169 -2.1765
v -1.0864 2.5387 -2.1926
v -1.1135 2.5714 -2.2166
v -1.123 2.6099 -2.245
v -1.1135 2.6484 -2.2734
v -1.0864 2.6811 -2.2974
v -1.0458 2.7029 -2.3135
v -0.998 2.69 -2.304
v -0.9599 2.6839 -2.2995
v -0.9276 2.6666 -2.2867
v -0.9061 2.6406 -2.2676
v -0.8985 2.6099 -2.245
v -0.9061 2.5792 -2.2224
v -0.9276 2.5532 -2.2033
v -0.9599 2.5359 -2.1905
v -0.998 2.5298 -2.186
v -1.0361 2.5359 -2.1905
v -1.0684 2.5532 -2.2033
v -1.0899 2.5792 -2.2224
v -1.0975 2.6099 -2.245
v -1.0899 2.6406 -2.2676
v -1.0684 2.6666 -2.2867
v -1.0361 2.6839 -2.2995
v -0.998 2.6888 -2.2721
v -0.9675 2.684 -2.2685
v -0.9417 2.6701 -2.2582
v -0.9245 2.6493 -2.2429
v -0.9184 2.6247 -2.2249
v -0.9245 2.6002 -2.2068
v -0.9417 2.5794 -2.1915
v -0.9675 2.5655 -2.1813
v -0.998 2.5606 -2.1777
v -1.0285 2.5655 -2.1813
v -1.0543 2.5794 -2.1915
v -1.0716 2.6002 -2.2068
v -1.0776 2.6247 -2.2249
v -1.0716 2.6493 -2.2429
v -1.0543 2.6701 -2.2582
v -1.0285 2.684 -2.2685
v -0.998 2.6162 -2.2365
v -0.9672 5.993 0.5595
v -0.9672 6.4616 1.3712
v -0.9841 5.9677 0.5742
v -0.9841 6.4363 1.3858
v -1.0178 5.9677 0.5742
v -1.0178 6.4363 1.3858
v -1.0347 5.993 0.5595
v -1.0347 6.4616 1.3712
v -1.0178 6.0183 0.5449
v -1.0178 6.4869 1.3566
v -0.9841 6.0183 0.5449
v -0.9841 6.4869 1.3566
v -0.9334 6.5084 1.4523
v -0.9672 6.4578 1.4815
v -1.0347 6.4578 1.4815
v -1.0685 6.5084 1.4523
v -1.0347 6.5591 1.423
v -0.9672 6.5591 1.423
v -0.9334 6.602 1.6144
v -0.9672 6.5514 1.6436
v -1.0347 6.5514 1.6436
v -1.0685 6.602 1.6144
v -1.0347 6.6527 1.5851
v -0.9672 6.6527 1.5851
v -0.9672 6.602 1.6144
v -0.9841 6.5767 1.629
v -1.0178 6.5767 1.629
v -1.0347 6.602 1.6144
v -1.0178 6.6273 1.5998
v -0.9841 6.6273 1.5998
v -0.9841 6.5552 1.5333
v -0.9925 6.5426 1.5406
v -1.0094 6.5426 1.5406
v -1.0178 6.5552 1.5333
v -1.0094 6.5679 1.526
v -0.9925 6.5679 1.526
v -1.1044 5.7538 1.1556
v -0.8264 5.1482 1.2977
v -0.7971 6.4454 0.497
v -0.6242 6.141 0.9185
v -0.5087 5.6855 1.2001
v -0.4682 5.1482 1.2989
v 0.2943 4.6802 0.5417
v -0.4682 4.6802 1.2989
v -1.5428 4.6802 1.2952
v -1.1044 6.3541 0.6223
v -1.5015 5.6855 1.1966
v -1.5428 5.1482 1.2952
v -0.9059 6.3541 0.6229
v -0.7452 6.3541 0.6235
v -1.1846 5.1482 1.2964
v -1.1846 4.6802 1.2964
v -0.8264 4.6802 1.2977
v -1.1706 5.6855 1.1977
v -0.8397 5.6855 1.1989
v -1.1044 6.4454 0.4961
v -0.9059 6.4454 0.4966
v -0.9059 6.141 0.9176
v -1.1044 6.141 0.9167
v -0.9059 5.7538 1.1567
v -1.4839 5.7538 1.1545
v -0.5261 5.7538 1.1578
v -1.0548 5.9184 0.5769
v -1.0548 6.2185 0.5769
v -0.9555 6.2185 0.5772
v -0.9555 6.112 0.5769
v -1.0548 6.112 0.5769
v -0.9555 5.9184 0.5769
v -1.5606 5.993 0.0337
v -2.3722 6.4616 0.0337
v -1.5752 5.9677 0.0168
v -2.3868 6.4363 0.0168
v -1.5752 5.9677 -0.017
v -2.3868 6.4363 -0.017
v -1.5606 5.993 -0.0338
v -2.3722 6.4616 -0.0338
v -1.5459 6.0183 -0.017
v -2.3576 6.4869 -0.017
v -1.5459 6.0183 0.0168
v -2.3576 6.4869 0.0168
v -2.4533 6.5084 0.0675
v -2.4825 6.4578 0.0337
v -2.4825 6.4578 -0.0338
v -2.4533 6.5084 -0.0676
v -2.424 6.5591 -0.0338
v -2.424 6.5591 0.0337
v -2.6154 6.602 0.0675
v -2.6446 6.5514 0.0337
v -2.6446 6.5514 -0.0338
v -2.6154 6.602 -0.0676
v -2.5862 6.6527 -0.0338
v -2.5862 6.6527 0.0337
v -2.6154 6.602 0.0337
v -2.63 6.5767 0.0168
v -2.63 6.5767 -0.017
v -2.6154 6.602 -0.0338
v -2.6008 6.6273 -0.017
v -2.6008 6.6273 0.0168
v -2.5343 6.5552 0.0168
v -2.5417 6.5426 0.0084
v -2.5417 6.5426 -0.0085
v -2.5343 6.5552 -0.017
v -2.527 6.5679 -0.0085
v -2.527 6.5679 0.0084
v -2.1566 5.7538 -0.1035
v -2.2987 5.1482 0.1745
v -1.2083 6.4454 0.4956
v -1.3841 6.141 0.9158
v -1.4981 6.4454 0.2038
v -1.9195 6.141 0.3766
v -2.2011 5.6855 0.4921
v -2.3 5.1482 0.5327
v -2.3 4.6802 0.5327
v -1.6233 6.3541 -0.1035
v -1.6239 6.3541 0.095
v -1.6245 6.3541 0.2557
v -1.261 6.3541 0.6217
v -2.2975 5.1482 -0.1837
v -2.2975 4.6802 -0.1837
v -2.2987 4.6802 0.1745
v -2.1988 5.6855 -0.1697
v -2.1999 5.6855 0.1612
v -1.4971 6.4454 -0.1035
v -1.4976 6.4454 0.095
v -1.9186 6.141 0.095
v -1.9177 6.141 -0.1035
v -2.1577 5.7538 0.095
v -2.1588 5.7538 0.4748
v -1.5779 5.9184 -0.0539
v -1.5779 6.2185 -0.0539
v -1.5782 6.2185 0.0454
v -1.5779 6.112 0.0454
v -1.5779 6.112 -0.0539
v -1.5779 5.9184 0.0454
v -1.0347 5.993 -0.5597
v -1.0347 6.4616 -1.3714
v -1.0178 5.9677 -0.5743
v -1.0178 6.4363 -1.386
v -0.9841 5.9677 -0.5743
v -0.9841 6.4363 -1.386
v -0.9672 5.993 -0.5597
v -0.9672 6.4616 -1.3714
v -0.9841 6.0183 -0.5451
v -0.9841 6.4869 -1.3567
v -1.0178 6.0183 -0.5451
v -1.0178 6.4869 -1.3567
v -1.0685 6.5084 -1.4524
v -1.0347 6.4578 -1.4817
v -0.9672 6.4578 -1.4817
v -0.9334 6.5084 -1.4524
v -0.9672 6.5591 -1.4232
v -1.0347 6.5591 -1.4232
v -1.0685 6.602 -1.6145
v -1.0347 6.5514 -1.6438
v -0.9672 6.5514 -1.6438
v -0.9334 6.602 -1.6145
v -0.9672 6.6527 -1.5853
v -1.0347 6.6527 -1.5853
v -1.0347 6.602 -1.6145
v -1.0178 6.5767 -1.6292
v -0.9841 6.5767 -1.6292
v -0.9672 6.602 -1.6145
v -0.9841 6.6274 -1.5999
v -1.0178 6.6274 -1.5999
v -1.0178 6.5552 -1.5335
v -1.0094 6.5426 -1.5408
v -0.9925 6.5426 -1.5408
v -0.9841 6.5552 -1.5335
v -0.9925 6.5679 -1.5262
v -1.0094 6.5679 -1.5262
v -0.8975 5.7538 -1.1558
v -1.1755 5.1482 -1.2978
v -1.4966 6.4454 -0.2074
v -1.9168 6.141 -0.3832
v -2.1976 5.6855 -0.5007
v -2.2962 5.1482 -0.5419
v -1.2048 6.4454 -0.4972
v -1.3777 6.141 -0.9186
v -1.4932 5.6855 -1.2002
v -2.2962 4.6802 -0.5419
v -1.5337 4.6802 -1.2991
v -0.4591 4.6802 -1.2953
v -0.8975 6.3541 -0.6224
v -0.7936 6.4454 -0.4958
v -0.6178 6.141 -0.916
v -0.5004 5.6855 -1.1968
v -1.096 6.3541 -0.623
v -0.7409 6.3541 -0.6218
v -1.2567 6.3541 -0.6236
v -1.6227 6.3541 -0.2602
v -0.8173 4.6802 -1.2966
v -0.4591 5.1482 -1.2953
v -1.5337 5.1482 -1.2991
v -1.1755 4.6802 -1.2978
v -0.8313 5.6855 -1.1979
v -1.1622 5.6855 -1.1991
v -0.8975 6.4454 -0.4962
v -1.096 6.4454 -0.4967
v -1.096 6.141 -0.9177
v -0.8975 6.141 -0.9169
v -0.8173 5.1482 -1.2966
v -1.096 5.7538 -1.1569
v -0.518 5.7538 -1.1546
v -1.4758 5.7538 -1.158
v -2.1555 5.7538 -0.483
v -0.9471 5.9184 -0.577
v -0.9471 6.2185 -0.577
v -1.0464 6.2185 -0.5773
v -1.0464 6.112 -0.577
v -0.9471 6.112 -0.577
v -1.0464 5.9184 -0.577
v -0.4413 5.993 -0.0338
v 0.3703 6.4616 -0.0338
v -0.4267 5.9677 -0.017
v 0.3849 6.4363 -0.017
v -0.4267 5.9677 0.0168
v 0.3849 6.4363 0.0168
v -0.4413 5.993 0.0337
v 0.3703 6.4616 0.0337
v -0.4559 6.0183 0.0168
v 0.3557 6.4869 0.0168
v -0.4559 6.0183 -0.017
v 0.3557 6.4869 -0.017
v 0.4514 6.5084 -0.0676
v 0.4806 6.4578 -0.0338
v 0.4806 6.4578 0.0337
v 0.4514 6.5084 0.0675
v 0.4221 6.5591 0.0337
v 0.4221 6.5591 -0.0338
v 0.6135 6.602 -0.0676
v 0.6428 6.5514 -0.0338
v 0.6428 6.5514 0.0337
v 0.6135 6.602 0.0675
v 0.5843 6.6527 0.0337
v 0.5843 6.6527 -0.0338
v 0.6135 6.602 -0.0338
v 0.6281 6.5767 -0.017
v 0.6281 6.5767 0.0168
v 0.6135 6.602 0.0337
v 0.5989 6.6273 0.0168
v 0.5989 6.6273 -0.017
v 0.5324 6.5552 -0.017
v 0.5398 6.5426 -0.0085
v 0.5398 6.5426 0.0084
v 0.5324 6.5552 0.0168
v 0.5251 6.5679 0.0084
v 0.5251 6.5679 -0.0085
v 0.1547 5.7538 0.1034
v -0.5038 6.4454 -0.204
v -0.0824 6.141 -0.3768
v 0.1992 5.6855 -0.4923
v 0.2981 4.6802 -0.5328
v -0.3786 6.3541 0.1034
v -0.5053 6.4454 0.2073
v -0.0851 6.141 0.383
v 0.1957 5.6855 0.5005
v -0.378 6.3541 -0.0952
v -0.3792 6.3541 0.26
v -0.3774 6.3541 -0.2558
v 0.2956 5.1482 0.1835
v 0.2968 5.1482 -0.1746
v 0.2956 4.6802 0.1835
v 0.2943 5.1482 0.5417
v 0.2981 5.1482 -0.5328
v 0.2968 4.6802 -0.1746
v 0.1969 5.6855 0.1696
v 0.198 5.6855 -0.1614
v -0.5048 6.4454 0.1034
v -0.5043 6.4454 -0.0952
v -0.0833 6.141 -0.0952
v -0.0842 6.141 0.1034
v 0.1558 5.7538 -0.0952
v 0.1536 5.7538 0.4829
v 0.157 5.7538 -0.475
v -0.424 5.9184 0.0537
v -0.424 6.2185 0.0537
v -0.4237 6.2185 -0.0455
v -0.424 6.112 -0.0455
v -0.424 6.112 0.0537
v -0.424 5.9184 -0.0455
v -1.0009 6.4923 -0.0001
v -2.8248 0.4681 -1.0531
v -1.0009 4.6802 -2.3167
v -3.0072 4.6802 -1.1584
v -1.0009 4.8674 -2.3167
v -1.0009 4.6802 -1.8534
v -1.0009 4.025 -2.1061
v -2.6728 0.4681 -1.1409
v -1.1529 0.4681 -2.0184
v -2.6728 1.8722 -1.1409
v -1.1529 1.8722 -2.0184
v -2.6728 3.2762 -1.1409
v -1.1529 3.2762 -2.0184
v -2.6728 4.6802 -1.1409
v -1.1529 4.6802 -2.0184
v -2.84 4.6802 -1.2549
v -1.1681 4.6802 -2.2202
v -2.84 4.8674 -1.2549
v -1.1681 4.8674 -2.2202
v -2.4722 4.8674 -1.004
v -1.1347 4.8674 -1.7762
v -2.4722 4.6802 -1.004
v -1.1347 4.6802 -1.7762
v -1.1529 4.025 -2.0184
v -2.6728 4.025 -1.1409
v -1.1529 4.493 -2.0184
v -2.6728 4.493 -1.1409
v -1.1469 4.0952 -1.4814
v -2.2109 4.0952 -0.8672
v -1.1469 4.4228 -1.4814
v -2.2109 4.4228 -0.8672
v 0.8229 0.4681 -1.0531
v -1.0009 0.4681 -2.1061
v 0.8229 1.8722 -1.0531
v -1.0009 1.8722 -2.1061
v 0.8229 3.2762 -1.0531
v -1.0009 3.2762 -2.1061
v 0.8229 4.6802 -1.0531
v -1.0009 4.6802 -2.1061
v 1.0053 4.6802 -1.1584
v 1.0053 4.8674 -1.1584
v 0.6041 4.8674 -0.9267
v -1.0009 4.8674 -1.8534
v 0.6041 4.6802 -0.9267
v 0.8229 4.025 -1.0531
v 0.8229 4.493 -1.0531
v -1.0009 4.493 -2.1061
v -0.849 0.4681 -2.0184
v 0.6709 0.4681 -1.1409
v -0.849 1.8722 -2.0184
v 0.6709 1.8722 -1.1409
v -0.849 3.2762 -2.0184
v 0.6709 3.2762 -1.1409
v -0.849 4.6802 -2.0184
v 0.6709 4.6802 -1.1409
v -0.8338 4.6802 -2.2202
v 0.8381 4.6802 -1.2549
v -0.8338 4.8674 -2.2202
v 0.8381 4.8674 -1.2549
v -0.8672 4.8674 -1.7762
v 0.4703 4.8674 -1.004
v -0.8672 4.6802 -1.7762
v 0.4703 4.6802 -1.004
v 0.6709 4.025 -1.1409
v -0.849 4.025 -2.0184
v 0.6709 4.493 -1.1409
v -0.849 4.493 -2.0184
v 0.209 4.0952 -0.8672
v -0.855 4.0952 -1.4814
v 0.209 4.4228 -0.8672
v -0.855 4.4228 -1.4814
v 0.8229 1.8722 1.0529
v 0.8229 3.2762 1.0529
v 0.8229 4.6802 1.0529
v 1.0053 4.6802 1.1582
v 0.6041 4.8674 0.9266
v 0.6709 0.4681 1.1407
v -0.849 0.4681 2.0182
v 0.6709 1.8722 1.1407
v -0.849 1.8722 2.0182
v 0.6709 3.2762 1.1407
v -0.849 3.2762 2.0182
v 0.6709 4.6802 1.1407
v -0.849 4.6802 2.0182
v 0.8381 4.6802 1.2548
v -0.8338 4.6802 2.22
v 0.8381 4.8674 1.2548
v -0.8338 4.8674 2.22
v 0.4703 4.8674 1.0038
v -0.8672 4.8674 1.776
v 0.4703 4.6802 1.0038
v -0.8672 4.6802 1.776
v -0.849 4.025 2.0182
v 0.6709 4.025 1.1407
v -0.849 4.493 2.0182
v 0.6709 4.493 1.1407
v -0.855 4.0952 1.4813
v 0.209 4.0952 0.867
v -0.855 4.4228 1.4813
v 0.209 4.4228 0.867
v -1.0009 0.4681 2.106
v -1.0009 1.8722 2.106
v -1.0009 3.2762 2.106
v -1.0009 4.6802 2.106
v -1.0009 4.6802 2.3166
v -1.0009 4.8674 2.3166
v -1.0009 4.8674 1.8532
v -1.0009 4.6802 1.8532
v -1.0009 4.6802 -0.0001
v -1.0009 4.493 2.106
v -1.0009 4.025 2.106
v -1.1529 0.4681 2.0182
v -2.6728 0.4681 1.1407
v -1.1529 1.8722 2.0182
v -2.6728 1.8722 1.1407
v -1.1529 3.2762 2.0182
v -2.6728 3.2762 1.1407
v -1.1529 4.6802 2.0182
v -2.6728 4.6802 1.1407
v -1.1681 4.6802 2.22
v -2.84 4.6802 1.2548
v -1.1681 4.8674 2.22
v -2.84 4.8674 1.2548
v -1.1347 4.8674 1.776
v -2.4722 4.8674 1.0038
v -1.1347 4.6802 1.776
v -2.4722 4.6802 1.0038
v -2.6728 4.025 1.1407
v -1.1529 4.025 2.0182
v -2.6728 4.493 1.1407
v -1.1529 4.493 2.0182
v -2.2109 4.0952 0.867
v -1.1469 4.0952 1.4813
v -2.2109 4.4228 0.867
v -1.1469 4.4228 1.4813
v 0.8229 0.4681 1.0529
v 1.0053 4.8674 1.1582
v 0.6041 4.6802 0.9266
v 1.2909 0.4681 -1.0531
v 1.2909 0.4681 1.0529
v 0.8229 1.8722 -0.8776
v 0.8229 1.8722 0.8774
v 0.8229 3.2762 -0.8776
v 0.8229 3.2762 0.8774
v 0.8229 4.6802 -0.8776
v 0.8229 4.6802 0.8774
v 1.0053 4.6802 -0.9653
v 1.0053 4.6802 0.9652
v 1.0053 4.8674 -0.9653
v 1.0053 4.8674 0.9652
v 0.6041 4.8674 -0.7723
v 0.6041 4.8674 0.7721
v 0.6041 4.6802 -0.7723
v 0.6041 4.6802 0.7721
v 0.8229 1.7318 1.0529
v 0.8229 1.7318 -1.0531
v 1.2909 1.8722 -1.0531
v 1.2909 1.8722 1.0529
v 1.1037 0.4681 1.0529
v 1.1037 0.4681 -1.0531
v 1.1037 1.8722 1.0529
v 1.1037 1.8722 -1.0531
v 1.1037 0.4681 -0.8776
v 1.1037 0.4681 0.8774
v 1.1037 1.8722 -0.8776
v 1.1037 1.8722 0.8774
v 1.1037 1.7318 1.0529
v 1.1037 1.7318 -1.0531
v 1.1037 1.7318 -0.8776
v 1.1037 1.7318 0.8774
v 1.2909 0.4681 -0.8776
v 1.2909 0.4681 0.8774
v 1.2909 1.8722 -0.8776
v 1.2909 1.8722 0.8774
v 1.2909 1.7318 1.0529
v 1.2909 1.7318 -1.0531
v 1.2909 1.7318 -0.8776
v 1.2909 1.7318 0.8774
v 2.695 0.4681 -1.0531
v 2.695 0.4681 1.0529
v 2.695 0.6553 -1.0531
v 2.695 0.6553 1.0529
v 2.695 0.4681 -0.8776
v 2.695 0.4681 0.8774
v 2.695 0.6553 -0.8776
v 2.695 0.6553 0.8774
v 2.695 0.5149 1.0529
v 2.695 0.5149 -1.0531
v 2.695 0.5149 -0.8776
v 2.695 0.5149 0.8774
v 3.0694 0.4681 -1.0531
v 3.0694 0.4681 1.0529
v 3.0694 0.6553 -1.0531
v 3.0694 0.6553 1.0529
v 3.0694 0.4681 -0.8776
v 3.0694 0.4681 0.8774
v 3.0694 0.6553 -0.8776
v 3.0694 0.6553 0.8774
v 3.0694 0.5149 1.0529
v 3.0694 0.5149 -1.0531
v 3.0694 0.5149 -0.8776
v 3.0694 0.5149 0.8774
v 0.8229 4.025 1.0529
v 0.8229 4.493 1.0529
v 0.8229 4.025 -0.8776
v 0.8229 4.493 -0.8776
v 0.8229 4.025 0.8774
v 0.8229 4.493 0.8774
v 0.3549 4.0952 -0.6143
v 0.3549 4.4228 -0.6143
v 0.3549 4.0952 0.6142
v 0.3549 4.4228 0.6142
v -2.8248 0.4681 1.0529
v -2.8248 1.8722 -1.0531
v -2.8248 1.8722 1.0529
v -2.8248 3.2762 -1.0531
v -2.8248 3.2762 1.0529
v -2.8248 4.6802 -1.0531
v -2.8248 4.6802 1.0529
v -3.0072 4.6802 1.1582
v -3.0072 4.8674 -1.1584
v -3.0072 4.8674 1.1582
v -2.606 4.8674 -0.9267
v -2.606 4.8674 0.9266
v -2.606 4.6802 -0.9267
v -2.606 4.6802 0.9266
v -2.8248 4.025 -1.0531
v -2.8248 4.493 -1.0531
v -2.8248 4.493 1.0529
v -2.8248 4.025 1.0529
v -2.8248 0.4681 0.8774
v -2.8248 0.4681 -0.8776
v -2.8248 1.8722 0.8774
v -2.8248 1.8722 -0.8776
v -2.8248 3.2762 0.8774
v -2.8248 3.2762 -0.8776
v -2.8248 4.6802 0.8774
v -2.8248 4.6802 -0.8776
v -3.0072 4.6802 0.9652
v -3.0072 4.6802 -0.9653
v -3.0072 4.8674 0.9652
v -3.0072 4.8674 -0.9653
v -2.606 4.8674 0.7721
v -2.606 4.8674 -0.7723
v -2.606 4.6802 0.7721
v -2.606 4.6802 -0.7723
v -2.8248 4.025 -0.8776
v -2.8248 4.025 0.8774
v -2.8248 4.493 -0.8776
v -2.8248 4.493 0.8774
v -2.3568 4.0952 -0.6143
v -2.3568 4.0952 0.6142
v -2.3568 4.4228 -0.6143
v -2.3568 4.4228 0.6142
v -3.8072 0.0018 2.3388
v -3.8072 0.0018 -2.3413
v 3.681 0.0018 -2.3413
v 3.681 0.0018 2.3388
v -3.8072 0.2358 2.3388
v -3.8072 0.2358 -2.3413
v 3.681 0.2358 -2.3413
v 3.681 0.2358 2.3388
v -3.3391 0.2358 -2.3413
v 3.213 0.2358 -2.3413
v 3.213 0.0018 -2.3413
v -3.3391 0.0018 -2.3413
v 3.213 0.2358 2.3388
v -3.3391 0.2358 2.3388
v -3.3391 0.0018 2.3388
v 3.213 0.0018 2.3388
v -3.3391 0.2358 -2.8093
v 3.213 0.2358 -2.8093
v 3.213 0.0018 -2.8093
v -3.3391 0.0018 -2.8093
v 3.213 0.2358 2.8068
v -3.3391 0.2358 2.8068
v -3.3391 0.0018 2.8068
v 3.213 0.0018 2.8068
v -3.2455 0.4699 1.9644
v -3.2455 0.4699 -1.9669
v 3.1194 0.4699 -1.9669
v 3.1194 0.4699 1.9644
v -2.9647 0.4699 -1.9669
v 2.8386 0.4699 -1.9669
v 2.8386 0.4699 1.9644
v -2.9647 0.4699 1.9644
v -2.9647 0.4699 -2.2477
v 2.8386 0.4699 -2.2477
v 2.8386 0.4699 2.2452
v -2.9647 0.4699 2.2452
v -3.8072 0.2358 -0.0012
v -3.8072 0.0018 -0.0012
v 3.681 0.2358 -0.0012
v 3.681 0.0018 -0.0012
v -3.2455 0.4699 -0.0012
v 3.1194 0.4699 -0.0012
v 2.8386 0.4699 -0.0012
v -2.9647 0.4699 -0.0012
v -0.0631 0.4699 2.2452
v -0.0631 0.4699 -2.2477
v -0.0631 0.4699 1.9644
v -0.0631 0.4699 -1.9669
v -0.0631 0.0018 2.8068
v -0.0631 0.2358 2.8068
v -0.0631 0.0018 -2.8093
v -0.0631 0.2358 -2.8093
v -0.0631 0.4699 -0.0012
v -0.998 2.7106 2.3169
v -1.0458 2.7029 2.3113
v -1.0864 2.6811 2.2952
v -1.1135 2.6484 2.2712
v -1.123 2.6099 2.2428
v -0.998 2.7581 2.0415
v -1.1135 2.5714 2.2144
v -1.0864 2.5387 2.1904
v -1.0458 2.5169 2.1743
v -0.998 2.5092 2.1687
v -0.9502 2.5169 2.1743
v -0.9096 2.5387 2.1904
v -0.8825 2.5714 2.2144
v -0.873 2.6099 2.2428
v -0.8825 2.6484 2.2712
v -0.9096 2.6811 2.2952
v -0.9502 2.7029 2.3113
v -0.998 2.69 2.3018
v -1.0361 2.6839 2.2973
v -1.0684 2.6666 2.2845
v -1.0899 2.6406 2.2654
v -1.0975 2.6099 2.2428
v -1.0899 2.5792 2.2202
v -1.0684 2.5532 2.2011
v -1.0361 2.5359 2.1883
v -0.998 2.5298 2.1838
v -0.9599 2.5359 2.1883
v -0.9276 2.5532 2.2011
v -0.9061 2.5792 2.2202
v -0.8985 2.6099 2.2428
v -0.9061 2.6406 2.2654
v -0.9276 2.6666 2.2845
v -0.9599 2.6839 2.2973
v -0.998 2.6888 2.2699
v -1.0285 2.684 2.2663
v -1.0543 2.6701 2.256
v -1.0716 2.6493 2.2407
v -1.0776 2.6247 2.2227
v -1.0716 2.6002 2.2046
v -1.0543 2.5794 2.1893
v -1.0285 2.5655 2.1791
v -0.998 2.5606 2.1755
v -0.9675 2.5655 2.1791
v -0.9417 2.5794 2.1893
v -0.9245 2.6002 2.2046
v -0.9184 2.6247 2.2227
v -0.9245 2.6493 2.2407
v -0.9417 2.6701 2.256
v -0.9675 2.684 2.2663
v -0.998 2.6162 2.2343
v 1.0133 2.7106 1.164
v 0.9845 2.7029 1.2027
v 0.9503 2.6811 1.2297
v 0.916 2.6484 1.2412
v 0.8866 2.6099 1.2352
v 0.7748 2.7581 1.0263
v 0.8668 2.5714 1.2128
v 0.8596 2.5387 1.1773
v 0.8659 2.5169 1.1342
v 0.885 2.5092 1.0899
v 0.9138 2.5169 1.0513
v 0.948 2.5387 1.0242
v 0.9823 2.5714 1.0128
v 1.0116 2.6099 1.0187
v 1.0314 2.6484 1.0412
v 1.0387 2.6811 1.0766
v 1.0324 2.7029 1.1198
v 1.0002 2.69 1.1565
v 0.9773 2.6839 1.1872
v 0.9501 2.6666 1.2088
v 0.9227 2.6406 1.2179
v 0.8994 2.6099 1.2132
v 0.8836 2.5792 1.1953
v 0.8778 2.5532 1.1671
v 0.8829 2.5359 1.1327
v 0.8981 2.5298 1.0975
v 0.921 2.5359 1.0668
v 0.9482 2.5532 1.0452
v 0.9756 2.5792 1.0361
v 0.9989 2.6099 1.0408
v 1.0147 2.6406 1.0587
v 1.0205 2.6666 1.0869
v 1.0154 2.6839 1.1213
v 0.9726 2.6888 1.1405
v 0.9542 2.684 1.1651
v 0.9325 2.6701 1.1824
v 0.9106 2.6493 1.1897
v 0.8919 2.6247 1.1859
v 0.8793 2.6002 1.1716
v 0.8747 2.5794 1.149
v 0.8787 2.5655 1.1215
v 0.8908 2.5606 1.0933
v 0.9092 2.5655 1.0687
v 0.931 2.5794 1.0515
v 0.9528 2.6002 1.0442
v 0.9715 2.6247 1.048
v 0.9841 2.6493 1.0623
v 0.9888 2.6701 1.0849
v 0.9847 2.684 1.1123
v 0.9418 2.6162 1.1227
v -3.0102 2.7106 -1.1665
v -2.9814 2.7029 -1.2051
v -2.9472 2.6811 -1.2322
v -2.9128 2.6484 -1.2436
v -2.8835 2.6099 -1.2377
v -2.7716 2.7581 -1.0287
v -2.8637 2.5714 -1.2152
v -2.8564 2.5387 -1.1798
v -2.8628 2.5169 -1.1366
v -2.8818 2.5092 -1.0924
v -2.9106 2.5169 -1.0537
v -2.9448 2.5387 -1.0267
v -2.9792 2.5714 -1.0152
v -3.0085 2.6099 -1.0212
v -3.0283 2.6484 -1.0436
v -3.0356 2.6811 -1.0791
v -3.0292 2.7029 -1.1222
v -2.9971 2.69 -1.1589
v -2.9742 2.6839 -1.1896
v -2.9469 2.6666 -1.2112
v -2.9196 2.6406 -1.2203
v -2.8962 2.6099 -1.2156
v -2.8805 2.5792 -1.1977
v -2.8747 2.5532 -1.1695
v -2.8797 2.5359 -1.1351
v -2.8949 2.5298 -1.0999
v -2.9178 2.5359 -1.0692
v -2.945 2.5532 -1.0476
v -2.9724 2.5792 -1.0385
v -2.9957 2.6099 -1.0432
v -3.0115 2.6406 -1.0611
v -3.0173 2.6666 -1.0893
v -3.0122 2.6839 -1.1237
v -2.9694 2.6888 -1.1429
v -2.9511 2.684 -1.1675
v -2.9293 2.6701 -1.1848
v -2.9074 2.6493 -1.1921
v -2.8887 2.6247 -1.1883
v -2.8761 2.6002 -1.174
v -2.8715 2.5794 -1.1514
v -2.8756 2.5655 -1.1239
v -2.8877 2.5606 -1.0957
v -2.906 2.5655 -1.0712
v -2.9278 2.5794 -1.0539
v -2.9497 2.6002 -1.0466
v -2.9684 2.6247 -1.0504
v -2.981 2.6493 -1.0647
v -2.9856 2.6701 -1.0873
v -2.9815 2.684 -1.1148
v -2.9386 2.6162 -1.1252
v -3.0102 2.7106 1.1636
v -3.0292 2.7029 1.1193
v -3.0356 2.6811 1.0762
v -3.0283 2.6484 1.0407
v -3.0085 2.6099 1.0183
v -2.7716 2.7581 1.0259
v -2.9792 2.5714 1.0123
v -2.9448 2.5387 1.0238
v -2.9106 2.5169 1.0509
v -2.8818 2.5092 1.0895
v -2.8628 2.5169 1.1337
v -2.8564 2.5387 1.1769
v -2.8637 2.5714 1.2124
v -2.8835 2.6099 1.2348
v -2.9128 2.6484 1.2407
v -2.9472 2.6811 1.2293
v -2.9814 2.7029 1.2022
v -2.9971 2.69 1.156
v -3.0122 2.6839 1.1208
v -3.0173 2.6666 1.0864
v -3.0115 2.6406 1.0582
v -2.9957 2.6099 1.0403
v -2.9724 2.5792 1.0356
v -2.945 2.5532 1.0447
v -2.9178 2.5359 1.0663
v -2.8949 2.5298 1.097
v -2.8797 2.5359 1.1322
v -2.8747 2.5532 1.1666
v -2.8805 2.5792 1.1948
v -2.8962 2.6099 1.2127
v -2.9196 2.6406 1.2174
v -2.9469 2.6666 1.2083
v -2.9742 2.6839 1.1867
v -2.9694 2.6888 1.14
v -2.9815 2.684 1.1119
v -2.9856 2.6701 1.0844
v -2.981 2.6493 1.0618
v -2.9684 2.6247 1.0475
v -2.9497 2.6002 1.0437
v -2.9278 2.5794 1.051
v -2.906 2.5655 1.0683
v -2.8877 2.5606 1.0929
v -2.8756 2.5655 1.121
v -2.8715 2.5794 1.1485
v -2.8761 2.6002 1.1711
v -2.8887 2.6247 1.1854
v -2.9074 2.6493 1.1892
v -2.9293 2.6701 1.1819
v -2.9511 2.684 1.1646
v -2.9386 2.6162 1.1223
v 1.0133 2.7106 -1.1631
v 1.0324 2.7029 -1.1189
v 1.0387 2.6811 -1.0757
v 1.0314 2.6484 -1.0402
v 1.0116 2.6099 -1.0178
v 0.7748 2.7581 -1.0254
v 0.9823 2.5714 -1.0119
v 0.948 2.5387 -1.0233
v 0.9138 2.5169 -1.0504
v 0.885 2.5092 -1.089
v 0.8659 2.5169 -1.1332
v 0.8596 2.5387 -1.1764
v 0.8668 2.5714 -1.2119
v 0.8866 2.6099 -1.2343
v 0.916 2.6484 -1.2402
v 0.9503 2.6811 -1.2288
v 0.9845 2.7029 -1.2017
v 1.0002 2.69 -1.1555
v 1.0154 2.6839 -1.1203
v 1.0205 2.6666 -1.086
v 1.0147 2.6406 -1.0577
v 0.9989 2.6099 -1.0399
v 0.9756 2.5792 -1.0351
v 0.9482 2.5532 -1.0443
v 0.921 2.5359 -1.0658
v 0.8981 2.5298 -1.0965
v 0.8829 2.5359 -1.1318
v 0.8778 2.5532 -1.1661
v 0.8836 2.5792 -1.1944
v 0.8994 2.6099 -1.2122
v 0.9227 2.6406 -1.217
v 0.9501 2.6666 -1.2078
v 0.9773 2.6839 -1.1863
v 0.9726 2.6888 -1.1396
v 0.9847 2.684 -1.1114
v 0.9888 2.6701 -1.0839
v 0.9841 2.6493 -1.0613
v 0.9715 2.6247 -1.047
v 0.9528 2.6002 -1.0433
v 0.931 2.5794 -1.0505
v 0.9092 2.5655 -1.0678
v 0.8908 2.5606 -1.0924
v 0.8787 2.5655 -1.1206
v 0.8747 2.5794 -1.148
v 0.8793 2.6002 -1.1706
v 0.8919 2.6247 -1.1849
v 0.9106 2.6493 -1.1887
v 0.9325 2.6701 -1.1814
v 0.9542 2.684 -1.1642
v 0.9418 2.6162 -1.1218
v 1.2695 3.6845 0.7219
v 1.2695 3.8717 0.7219
v 1.276 1.7148 0.7152
v 1.306 1.7072 0.753
v 1.3234 1.6853 0.7929
v 1.3257 1.6527 0.8291
v 1.3124 1.6142 0.8559
v 1.0818 1.7624 0.9106
v 1.2857 1.5756 0.8693
v 1.2495 1.543 0.8673
v 1.2094 1.5212 0.8501
v 1.1715 1.5135 0.8203
v 1.1416 1.5212 0.7826
v 1.1241 1.543 0.7426
v 1.1219 1.5756 0.7065
v 1.1351 1.6142 0.6797
v 1.1619 1.6527 0.6663
v 1.198 1.6853 0.6683
v 1.2381 1.7072 0.6855
v 1.2654 1.6943 0.7259
v 1.2892 1.6882 0.756
v 1.3031 1.6708 0.7878
v 1.3049 1.6448 0.8166
v 1.2943 1.6142 0.8379
v 1.2731 1.5835 0.8486
v 1.2443 1.5575 0.847
v 1.2123 1.5401 0.8333
v 1.1822 1.534 0.8096
v 1.1583 1.5401 0.7796
v 1.1444 1.5575 0.7478
v 1.1426 1.5835 0.719
v 1.1532 1.6142 0.6976
v 1.1745 1.6448 0.687
v 1.2033 1.6708 0.6886
v 1.2352 1.6882 0.7023
v 1.2428 1.6931 0.7486
v 1.2619 1.6882 0.7726
v 1.273 1.6743 0.7981
v 1.2745 1.6535 0.8211
v 1.266 1.629 0.8382
v 1.249 1.6045 0.8467
v 1.226 1.5837 0.8454
v 1.2004 1.5698 0.8345
v 1.1763 1.5649 0.8155
v 1.1572 1.5698 0.7915
v 1.1461 1.5837 0.7661
v 1.1447 1.6045 0.743
v 1.1531 1.629 0.7259
v 1.1701 1.6535 0.7174
v 1.1932 1.6743 0.7187
v 1.2187 1.6882 0.7297
v 1.2178 1.6204 0.7738
v 1.2697 3.6845 -0.7206
v 1.2697 3.8717 -0.7206
v 1.2764 1.7148 -0.7142
v 1.2386 1.7072 -0.6842
v 1.1987 1.6853 -0.6668
v 1.1625 1.6527 -0.6645
v 1.1357 1.6142 -0.6777
v 1.081 1.7624 -0.9083
v 1.1223 1.5756 -0.7045
v 1.1243 1.543 -0.7407
v 1.1415 1.5212 -0.7807
v 1.1712 1.5135 -0.8186
v 1.209 1.5212 -0.8486
v 1.2489 1.543 -0.866
v 1.2851 1.5756 -0.8683
v 1.3119 1.6142 -0.8551
v 1.3253 1.6527 -0.8283
v 1.3233 1.6853 -0.7922
v 1.3061 1.7072 -0.7521
v 1.2656 1.6943 -0.7248
v 1.2356 1.6882 -0.701
v 1.2038 1.6708 -0.6871
v 1.175 1.6448 -0.6853
v 1.1536 1.6142 -0.6958
v 1.143 1.5835 -0.7171
v 1.1446 1.5575 -0.7459
v 1.1583 1.5401 -0.7778
v 1.182 1.534 -0.808
v 1.212 1.5401 -0.8318
v 1.2438 1.5575 -0.8457
v 1.2726 1.5835 -0.8475
v 1.294 1.6142 -0.837
v 1.3046 1.6448 -0.8157
v 1.303 1.6708 -0.7869
v 1.2893 1.6882 -0.755
v 1.243 1.6931 -0.7473
v 1.219 1.6882 -0.7282
v 1.1935 1.6743 -0.7171
v 1.1705 1.6535 -0.7157
v 1.1534 1.629 -0.7241
v 1.1449 1.6045 -0.7412
v 1.1462 1.5837 -0.7642
v 1.1571 1.5698 -0.7897
v 1.176 1.5649 -0.8139
v 1.2001 1.5698 -0.8329
v 1.2255 1.5837 -0.844
v 1.2486 1.6045 -0.8455
v 1.2656 1.629 -0.8371
v 1.2742 1.6535 -0.82
v 1.2729 1.6743 -0.797
v 1.2619 1.6882 -0.7715
v 1.2178 1.6204 -0.7724
v 2.0015 0.516 0.8785
v 2.0015 0.516 0.8563
v 2.1455 0.516 0.8563
v 2.1455 0.516 0.8785
v 2.0015 0.5958 0.8785
v 2.0015 0.5958 0.8563
v 2.1455 0.5958 0.8563
v 2.1455 0.5958 0.8785
v 2.0123 0.585 0.8563
v 2.0123 0.5268 0.8563
v 2.1347 0.585 0.8563
v 2.1347 0.5268 0.8563
v 2.0302 0.5764 0.862
v 2.0302 0.5353 0.862
v 2.1168 0.5764 0.862
v 2.1168 0.5353 0.862
v 2.5004 0.516 0.8785
v 2.5004 0.516 0.8563
v 2.6444 0.516 0.8563
v 2.6444 0.516 0.8785
v 2.5004 0.5958 0.8785
v 2.5004 0.5958 0.8563
v 2.6444 0.5958 0.8563
v 2.6444 0.5958 0.8785
v 2.5112 0.585 0.8563
v 2.5112 0.5268 0.8563
v 2.6336 0.585 0.8563
v 2.6336 0.5268 0.8563
v 2.5292 0.5764 0.862
v 2.5292 0.5353 0.862
v 2.6157 0.5764 0.862
v 2.6157 0.5353 0.862
v 2.6474 0.516 -0.8795
v 2.6474 0.516 -0.8574
v 2.5034 0.516 -0.8574
v 2.5034 0.516 -0.8795
v 2.6474 0.5958 -0.8795
v 2.6474 0.5958 -0.8574
v 2.5034 0.5958 -0.8574
v 2.5034 0.5958 -0.8795
v 2.6366 0.585 -0.8574
v 2.6366 0.5268 -0.8574
v 2.5142 0.585 -0.8574
v 2.5142 0.5268 -0.8574
v 2.6187 0.5764 -0.863
v 2.6187 0.5353 -0.863
v 2.5321 0.5764 -0.863
v 2.5321 0.5353 -0.863
v 2.146 0.516 -0.8795
v 2.146 0.516 -0.8574
v 2.002 0.516 -0.8574
v 2.002 0.516 -0.8795
v 2.146 0.5958 -0.8795
v 2.146 0.5958 -0.8574
v 2.002 0.5958 -0.8574
v 2.002 0.5958 -0.8795
v 2.1352 0.585 -0.8574
v 2.1352 0.5268 -0.8574
v 2.0128 0.585 -0.8574
v 2.0128 0.5268 -0.8574
v 2.1173 0.5764 -0.863
v 2.1173 0.5353 -0.863
v 2.0308 0.5764 -0.863
v 2.0308 0.5353 -0.863
v 1.6442 0.516 -0.8795
v 1.6442 0.516 -0.8574
v 1.5002 0.516 -0.8574
v 1.5002 0.516 -0.8795
v 1.6442 0.5958 -0.8795
v 1.6442 0.5958 -0.8574
v 1.5002 0.5958 -0.8574
v 1.5002 0.5958 -0.8795
v 1.6334 0.585 -0.8574
v 1.6334 0.5268 -0.8574
v 1.511 0.585 -0.8574
v 1.511 0.5268 -0.8574
v 1.6154 0.5764 -0.863
v 1.6154 0.5353 -0.863
v 1.5289 0.5764 -0.863
v 1.5289 0.5353 -0.863
vt 0.1674 0.6591
vt 0.1674 0.6694
vt 0.1303 0.6694
vt 0.1303 0.6591
vt 0.3726 0.6958
vt 0.3198 0.6923
vt 0.3299 0.6872
vt 0.3623 0.6895
vt 0.2715 0.6591
vt 0.2715 0.6694
vt 0.2344 0.6694
vt 0.2344 0.6591
vt 0.0633 0.6694
vt 0.0633 0.6591
vt 0.3198 0.6586
vt 0.3132 0.699
vt 0.3132 0.6518
vt 0.369 0.6575
vt 0.3752 0.6503
vt 0.3762 0.6608
vt 0.3834 0.6548
vt 0.3788 0.7036
vt 0.023 0.6846
vt 0.0938 0.6846
vt 0.0938 0.7183
vt 0.023 0.7183
vt 0.3301 0.6637
vt 0.3607 0.6629
vt 0.3647 0.6648
vt 0.1959 0.684
vt 0.2169 0.7414
vt 0.1862 0.6885
vt 0.1775 0.6946
vt 0.1699 0.7022
vt 0.1639 0.711
vt 0.2062 0.6812
vt 0.2168 0.6802
vt 0.2274 0.6811
vt 0.2377 0.6839
vt 0.2474 0.6884
vt 0.2562 0.6945
vt 0.2637 0.702
vt 0.2698 0.7108
vt 0.2743 0.7204
vt 0.2771 0.7308
vt 0.278 0.7414
vt 0.1594 0.7206
vt 0.1593 0.7962
vt 0.1593 0.7874
vt 0.1662 0.7885
vt 0.1662 0.7951
vt 0.1742 0.7665
vt 0.1671 0.7718
vt 0.1632 0.7678
vt 0.1717 0.7615
vt 0.1825 0.7637
vt 0.1817 0.7582
vt 0.1911 0.7635
vt 0.1921 0.7582
vt 0.2147 0.7971
vt 0.2148 0.7888
vt 0.2201 0.7877
vt 0.2201 0.7981
vt 0.2119 0.8053
vt 0.2167 0.808
vt 0.2067 0.8122
vt 0.2104 0.8162
vt 0.1995 0.8172
vt 0.2019 0.8222
vt 0.1912 0.8198
vt 0.1919 0.8253
vt 0.1825 0.8196
vt 0.1815 0.8251
vt 0.1742 0.8169
vt 0.1715 0.8218
vt 0.1671 0.8117
vt 0.1631 0.8155
vt 0.162 0.8045
vt 0.157 0.807
vt 0.1538 0.797
vt 0.1538 0.7864
vt 0.162 0.779
vt 0.157 0.7764
vt 0.1836 0.8128
vt 0.1902 0.8129
vt 0.208 0.7959
vt 0.2082 0.7894
vt 0.1683 0.7821
vt 0.1774 0.8107
vt 0.2058 0.802
vt 0.1722 0.7768
vt 0.1721 0.8067
vt 0.2018 0.8072
vt 0.1775 0.7728
vt 0.1683 0.8014
vt 0.1965 0.8109
vt 0.1838 0.7706
vt 0.1905 0.7704
vt 0.2614 0.7641
vt 0.2702 0.7678
vt 0.2566 0.7882
vt 0.2325 0.793
vt 0.2325 0.7834
vt 0.2702 0.8086
vt 0.2614 0.8123
vt 0.277 0.7746
vt 0.2361 0.7746
vt 0.2518 0.8123
vt 0.2807 0.7834
vt 0.2429 0.7678
vt 0.2429 0.8086
vt 0.2807 0.793
vt 0.2518 0.7641
vt 0.2361 0.8019
vt 0.277 0.8019
vt 0.3009 0.7166
vt 0.5961 0.7166
vt 0.5961 0.7316
vt 0.3009 0.7316
vt 0.5961 0.7465
vt 0.3009 0.7465
vt 0.5961 0.7614
vt 0.3009 0.7614
vt 0.5961 0.7763
vt 0.3009 0.7763
vt 0.4845 0.9154
vt 0.4935 0.9075
vt 0.5209 0.9297
vt 0.5028 0.9455
vt 0.3009 0.7913
vt 0.5961 0.7913
vt 0.5961 0.8062
vt 0.3009 0.8062
vt 0.4993 0.8971
vt 0.5326 0.9089
vt 0.5014 0.8853
vt 0.5366 0.8853
vt 0.4935 0.863
vt 0.4845 0.8551
vt 0.5028 0.825
vt 0.5209 0.8408
vt 0.4993 0.8735
vt 0.5326 0.8617
vt 0.3323 0.8725
vt 0.3323 0.8485
vt 0.3987 0.8485
vt 0.3987 0.8725
vt 0.3323 0.9203
vt 0.3323 0.8964
vt 0.3987 0.8964
vt 0.3987 0.9203
vt 0.3323 0.9682
vt 0.3323 0.9443
vt 0.3987 0.9443
vt 0.3987 0.9682
vt 0.3323 0.8246
vt 0.3987 0.8246
vt 0.4557 0.9188
vt 0.4317 0.9188
vt 0.4377 0.9085
vt 0.4497 0.9085
vt 0.4317 0.8774
vt 0.4557 0.8774
vt 0.4497 0.8877
vt 0.4377 0.8877
vt 0.4198 0.8981
vt 0.4317 0.8981
vt 0.4677 0.8981
vt 0.4557 0.8981
vt 0.5489 0.941
vt 0.5605 0.9378
vt 0.5665 0.971
vt 0.5607 0.9726
vt 0.5843 0.9378
vt 0.5959 0.941
vt 0.5842 0.9726
vt 0.5784 0.971
vt 0.5724 0.9368
vt 0.5724 0.9705
vt 0.5381 0.9461
vt 0.5553 0.9752
vt 0.6067 0.9461
vt 0.5896 0.9752
vt 0.5976 0.8623
vt 0.5858 0.8555
vt 0.574 0.8623
vt 0.5976 0.876
vt 0.574 0.876
vt 0.5858 0.8828
vt 0.1106 0.6203
vt 0.1108 0.5673
vt 0.1518 0.5673
vt 0.134 0.6203
vt 0.1206 0.4892
vt 0.1225 0.4095
vt 0.1748 0.4095
vt 0.1688 0.4892
vt 0.1109 0.5009
vt 0.1663 0.5009
vt 0.0816 0.643
vt 0.0816 0.6203
vt 0.1105 0.643
vt 0.1264 0.643
vt 0.0819 0.5009
vt 0.0723 0.4892
vt 0.0266 0.5009
vt 0.024 0.4892
vt 0.0639 0.8533
vt 0.0311 0.8132
vt 0.0796 0.8211
vt 0.0768 0.836
vt 0.1634 0.8416
vt 0.131 0.8978
vt 0.0818 0.8949
vt 0.0811 0.8673
vt 0.0812 0.91
vt 0.0901 0.9297
vt 0.0252 0.9099
vt 0.0394 0.9099
vt 0.0465 0.9303
vt 0.0182 0.9303
vt 0.0863 0.7943
vt 0.0118 0.7512
vt 0.1097 0.7336
vt 0.138 0.7336
vt 0.1305 0.8195
vt 0.1163 0.8194
vt 0.0242 0.8769
vt 0.0242 0.8493
vt 0.0384 0.8493
vt 0.0384 0.8769
vt 0.0242 0.8921
vt 0.0384 0.8921
vt 0.4845 0.9157
vt 0.4935 0.9078
vt 0.5209 0.93
vt 0.5028 0.9458
vt 0.4993 0.8973
vt 0.5326 0.9091
vt 0.5014 0.8855
vt 0.5366 0.8855
vt 0.4935 0.8633
vt 0.4845 0.8554
vt 0.5028 0.8253
vt 0.5209 0.8411
vt 0.4993 0.8737
vt 0.5326 0.8619
vt 0.3317 0.8728
vt 0.3317 0.8488
vt 0.3981 0.8488
vt 0.3981 0.8728
vt 0.3317 0.9207
vt 0.3317 0.8967
vt 0.3981 0.8967
vt 0.3981 0.9207
vt 0.3317 0.9685
vt 0.3317 0.9446
vt 0.3981 0.9446
vt 0.3981 0.9685
vt 0.3317 0.8249
vt 0.3981 0.8249
vt 0.4557 0.9186
vt 0.4318 0.9186
vt 0.4378 0.9082
vt 0.4497 0.9082
vt 0.4318 0.8771
vt 0.4557 0.8771
vt 0.4497 0.8875
vt 0.4378 0.8875
vt 0.4198 0.8978
vt 0.4318 0.8978
vt 0.4677 0.8978
vt 0.4557 0.8978
vt 0.5489 0.9408
vt 0.5604 0.9376
vt 0.5664 0.9708
vt 0.5606 0.9724
vt 0.5843 0.9376
vt 0.5958 0.9408
vt 0.5841 0.9724
vt 0.5783 0.9708
vt 0.5723 0.9366
vt 0.5723 0.9703
vt 0.538 0.9459
vt 0.5552 0.975
vt 0.6066 0.9459
vt 0.5895 0.975
vt 0.5967 0.8751
vt 0.5967 0.8615
vt 0.5849 0.8546
vt 0.5849 0.882
vt 0.573 0.8615
vt 0.573 0.8751
vt 0.2288 0.6194
vt 0.2113 0.5676
vt 0.3197 0.5674
vt 0.3024 0.6193
vt 0.1102 0.6203
vt 0.1104 0.5673
vt 0.1515 0.5673
vt 0.1337 0.6203
vt 0.1202 0.4892
vt 0.1222 0.4096
vt 0.1744 0.4096
vt 0.1685 0.4892
vt 0.1105 0.5009
vt 0.1659 0.501
vt 0.0812 0.643
vt 0.0813 0.6203
vt 0.1102 0.6431
vt 0.126 0.6431
vt 0.2363 0.6417
vt 0.295 0.6416
vt 0.0816 0.501
vt 0.0719 0.4892
vt 0.0636 0.8537
vt 0.0307 0.8136
vt 0.0792 0.8215
vt 0.0765 0.8364
vt 0.1629 0.8416
vt 0.1305 0.8979
vt 0.0813 0.8949
vt 0.0806 0.8673
vt 0.0807 0.9101
vt 0.0896 0.9298
vt 0.0254 0.9099
vt 0.0396 0.9099
vt 0.0467 0.9303
vt 0.0184 0.9303
vt 0.086 0.7947
vt 0.0114 0.7517
vt 0.1097 0.732
vt 0.138 0.732
vt 0.1305 0.8179
vt 0.1163 0.8179
vt 0.0239 0.8766
vt 0.0239 0.849
vt 0.038 0.849
vt 0.038 0.8766
vt 0.0239 0.8918
vt 0.038 0.8918
vt 0.5961 0.7166
vt 0.5961 0.7316
vt 0.5961 0.7465
vt 0.5961 0.7614
vt 0.5961 0.7763
vt 0.4846 0.9158
vt 0.4936 0.9079
vt 0.521 0.9301
vt 0.5029 0.9459
vt 0.5961 0.7913
vt 0.5961 0.8062
vt 0.4994 0.8975
vt 0.5327 0.9093
vt 0.5015 0.8857
vt 0.5367 0.8857
vt 0.4936 0.8634
vt 0.4846 0.8555
vt 0.5029 0.8254
vt 0.521 0.8412
vt 0.4994 0.8739
vt 0.5327 0.8621
vt 0.3322 0.873
vt 0.3322 0.8491
vt 0.3986 0.8491
vt 0.3986 0.873
vt 0.3322 0.9209
vt 0.3322 0.897
vt 0.3986 0.897
vt 0.3986 0.9209
vt 0.3322 0.9688
vt 0.3322 0.9448
vt 0.3986 0.9448
vt 0.3986 0.9688
vt 0.3322 0.8251
vt 0.3986 0.8251
vt 0.4558 0.9189
vt 0.4319 0.9189
vt 0.4379 0.9085
vt 0.4498 0.9085
vt 0.4319 0.8774
vt 0.4558 0.8774
vt 0.4498 0.8878
vt 0.4379 0.8878
vt 0.4199 0.8981
vt 0.4319 0.8981
vt 0.4678 0.8981
vt 0.4558 0.8981
vt 0.549 0.9408
vt 0.5605 0.9377
vt 0.5665 0.9709
vt 0.5607 0.9725
vt 0.5844 0.9377
vt 0.5959 0.9408
vt 0.5842 0.9725
vt 0.5784 0.9709
vt 0.5724 0.9366
vt 0.5724 0.9703
vt 0.5382 0.946
vt 0.5553 0.975
vt 0.6067 0.946
vt 0.5896 0.975
vt 0.5969 0.8758
vt 0.5969 0.8622
vt 0.5851 0.8553
vt 0.5733 0.8622
vt 0.5733 0.8758
vt 0.5851 0.8827
vt 0.2284 0.6199
vt 0.2109 0.568
vt 0.3193 0.5679
vt 0.302 0.6198
vt 0.1967 0.5031
vt 0.1936 0.4846
vt 0.3366 0.4846
vt 0.3334 0.503
vt 0.1102 0.6204
vt 0.1104 0.5674
vt 0.1515 0.5674
vt 0.1337 0.6204
vt 0.1105 0.501
vt 0.1202 0.4893
vt 0.1684 0.4893
vt 0.1659 0.501
vt 0.0406 0.5674
vt 0.0262 0.501
vt 0.0815 0.501
vt 0.0814 0.5674
vt 0.0661 0.6431
vt 0.0584 0.6204
vt 0.0813 0.6204
vt 0.0812 0.6431
vt 0.1102 0.6431
vt 0.126 0.6431
vt 0.2359 0.6421
vt 0.2946 0.642
vt 0.0719 0.4893
vt 0.0237 0.4893
vt 0.0699 0.4096
vt 0.1222 0.4096
vt 0.064 0.8536
vt 0.0312 0.8135
vt 0.0797 0.8214
vt 0.077 0.8364
vt 0.1631 0.8416
vt 0.1306 0.8978
vt 0.0814 0.8949
vt 0.0807 0.8673
vt 0.0809 0.91
vt 0.0898 0.9297
vt 0.0251 0.9098
vt 0.0393 0.9098
vt 0.0464 0.9302
vt 0.0181 0.9302
vt 0.0864 0.7946
vt 0.0119 0.7516
vt 0.1103 0.7325
vt 0.1386 0.7325
vt 0.1311 0.8184
vt 0.1169 0.8183
vt 0.0236 0.8765
vt 0.0236 0.8489
vt 0.0378 0.8489
vt 0.0378 0.8765
vt 0.0236 0.8917
vt 0.0378 0.8917
vt 0.4845 0.9152
vt 0.4935 0.9073
vt 0.5209 0.9295
vt 0.5028 0.9453
vt 0.4993 0.8969
vt 0.5326 0.9087
vt 0.5014 0.8851
vt 0.5366 0.8851
vt 0.4935 0.8628
vt 0.4845 0.8549
vt 0.5028 0.8248
vt 0.5209 0.8406
vt 0.4993 0.8733
vt 0.5326 0.8615
vt 0.3319 0.8731
vt 0.3319 0.8492
vt 0.3983 0.8492
vt 0.3983 0.8731
vt 0.3319 0.921
vt 0.3319 0.8971
vt 0.3983 0.8971
vt 0.3983 0.921
vt 0.3319 0.9689
vt 0.3319 0.945
vt 0.3983 0.945
vt 0.3983 0.9689
vt 0.3319 0.8253
vt 0.3983 0.8252
vt 0.4557 0.9188
vt 0.4317 0.9188
vt 0.4377 0.9084
vt 0.4497 0.9084
vt 0.4317 0.8773
vt 0.4557 0.8773
vt 0.4497 0.8877
vt 0.4377 0.8877
vt 0.4198 0.8981
vt 0.4317 0.8981
vt 0.4677 0.8981
vt 0.4557 0.8981
vt 0.549 0.9409
vt 0.5606 0.9378
vt 0.5665 0.971
vt 0.5608 0.9725
vt 0.5844 0.9378
vt 0.596 0.9409
vt 0.5842 0.9725
vt 0.5785 0.971
vt 0.5725 0.9367
vt 0.5725 0.9704
vt 0.5382 0.9461
vt 0.5554 0.9751
vt 0.6068 0.9461
vt 0.5896 0.9751
vt 0.5974 0.8623
vt 0.5856 0.8555
vt 0.5738 0.8623
vt 0.5738 0.876
vt 0.5974 0.876
vt 0.5856 0.8828
vt 0.11 0.6204
vt 0.1102 0.5673
vt 0.1513 0.5674
vt 0.1335 0.6204
vt 0.1103 0.501
vt 0.12 0.4893
vt 0.1683 0.4893
vt 0.1657 0.501
vt 0.0405 0.5674
vt 0.026 0.501
vt 0.0814 0.501
vt 0.0812 0.5674
vt 0.0659 0.6431
vt 0.0583 0.6204
vt 0.0811 0.6204
vt 0.081 0.6431
vt 0.11 0.6431
vt 0.1258 0.6431
vt 0.0712 0.9882
vt 0.0413 0.9882
vt 0.0413 0.9508
vt 0.0712 0.9508
vt 0.1018 0.9882
vt 0.1018 0.9508
vt 0.0717 0.4893
vt 0.0235 0.4893
vt 0.0632 0.8531
vt 0.0304 0.813
vt 0.0789 0.8209
vt 0.0762 0.8358
vt 0.163 0.842
vt 0.1305 0.8982
vt 0.0814 0.8953
vt 0.0807 0.8677
vt 0.0808 0.9105
vt 0.0897 0.9302
vt 0.0251 0.9099
vt 0.0393 0.9099
vt 0.0464 0.9303
vt 0.0181 0.9303
vt 0.0856 0.7941
vt 0.0111 0.751
vt 0.1097 0.7328
vt 0.138 0.7328
vt 0.1305 0.8187
vt 0.1163 0.8186
vt 0.0237 0.8766
vt 0.0237 0.849
vt 0.0378 0.849
vt 0.0378 0.8766
vt 0.0237 0.8918
vt 0.0378 0.8918
vt 0.2284 0.6197
vt 0.2109 0.5679
vt 0.3193 0.5677
vt 0.302 0.6196
vt 0.1936 0.4844
vt 0.1877 0.4057
vt 0.3425 0.4057
vt 0.3366 0.4844
vt 0.1967 0.503
vt 0.3334 0.5028
vt 0.1773 0.9882
vt 0.1773 0.9508
vt 0.0112 0.9882
vt 0.0112 0.9508
vt 0.041 0.5673
vt 0.0818 0.5673
vt 0.0664 0.643
vt 0.0588 0.6203
vt 0.2359 0.6419
vt 0.2945 0.6419
vt 0.0703 0.4095
vt 0.0181 0.4095
vt 0.194 0.4841
vt 0.1881 0.4054
vt 0.3429 0.4054
vt 0.337 0.4841
vt 0.1971 0.5027
vt 0.3338 0.5025
vt 0.0407 0.5673
vt 0.0262 0.501
vt 0.0814 0.5673
vt 0.0661 0.6431
vt 0.0584 0.6203
vt 0.0237 0.4892
vt 0.0699 0.4096
vt 0.0177 0.4096
vt 0.1877 0.4059
vt 0.3425 0.4059
vt 0.1744 0.4096
vt 0.0177 0.4096
vt 0.2283 0.6203
vt 0.2108 0.5684
vt 0.3192 0.5683
vt 0.3019 0.6202
vt 0.1935 0.4849
vt 0.1876 0.4062
vt 0.3424 0.4062
vt 0.3365 0.4849
vt 0.1966 0.5035
vt 0.3332 0.5033
vt 0.122 0.4096
vt 0.1742 0.4096
vt 0.2357 0.6425
vt 0.2944 0.6424
vt 0.0697 0.4096
vt 0.0175 0.4096
vt 0.2042 0.9583
vt 0.1856 0.9397
vt 0.2413 0.9021
vt 0.2975 0.9392
vt 0.2788 0.9579
vt 0.2686 0.9681
vt 0.1754 0.9294
vt 0.2784 0.8459
vt 0.297 0.8646
vt 0.214 0.9681
vt 0.1754 0.8748
vt 0.1851 0.865
vt 0.2038 0.8464
vt 0.3073 0.8748
vt 0.214 0.8362
vt 0.2686 0.8362
vt 0.3073 0.9294
vt 0.7736 0.5056
vt 0.7736 0.5233
vt 0.7889 0.5233
vt 0.7889 0.5056
vt 0.6429 0.5932
vt 0.6429 0.6986
vt 0.7806 0.6986
vt 0.7806 0.5932
vt 0.6429 0.8076
vt 0.7806 0.8076
vt 0.6429 0.9061
vt 0.6429 0.9228
vt 0.7806 0.9228
vt 0.7806 0.9061
vt 0.6463 0.4876
vt 0.6402 0.5056
vt 0.7675 0.4876
vt 0.6402 0.5233
vt 0.6536 0.5581
vt 0.7602 0.5581
vt 0.6536 0.5704
vt 0.7602 0.5704
vt 0.6429 0.8677
vt 0.7806 0.8677
vt 0.5205 0.2879
vt 0.5591 0.2826
vt 0.5591 0.2536
vt 0.5205 0.2484
vt 0.5713 0.2918
vt 0.5511 0.3312
vt 0.6818 0.3312
vt 0.6617 0.2918
vt 0.6695 0.2807
vt 0.7121 0.2853
vt 0.7121 0.2498
vt 0.6695 0.2543
vt 0.5519 0.2037
vt 0.5711 0.2441
vt 0.6599 0.2441
vt 0.6791 0.2037
vt 0.6631 0.2563
vt 0.5654 0.2563
vt 0.5654 0.2818
vt 0.6631 0.2818
vt 0.7953 0.6986
vt 0.7953 0.5932
vt 0.7953 0.8076
vt 0.7953 0.9228
vt 0.7953 0.9061
vt 0.7814 0.4876
vt 0.7724 0.5581
vt 0.7724 0.5704
vt 0.7953 0.8677
vt 0.6284 0.5932
vt 0.6284 0.6986
vt 0.6284 0.8076
vt 0.6284 0.9061
vt 0.6284 0.9228
vt 0.6818 0.3312
vt 0.7806 0.6986
vt 0.7806 0.8076
vt 0.6322 0.4876
vt 0.6247 0.5056
vt 0.4762 0.5455
vt 0.4923 0.4092
vt 0.4762 0.3997
vt 0.3662 0.4634
vt 0.35 0.4726
vt 0.4923 0.6818
vt 0.4762 0.6913
vt 0.5862 0.4634
vt 0.6025 0.4726
vt 0.6023 0.5997
vt 0.6025 0.6184
vt 0.3662 0.6276
vt 0.35 0.6184
vt 0.5862 0.6276
vt 0.4601 0.4092
vt 0.3501 0.4913
vt 0.3501 0.5997
vt 0.4601 0.6818
vt 0.6247 0.5233
vt 0.6412 0.5581
vt 0.6412 0.5704
vt 0.6284 0.8677
vt 0.6023 0.4913
vt 0.8506 0.6045
vt 0.8506 0.4452
vt 0.8365 0.4452
vt 0.8365 0.6045
vt 0.7482 0.4521
vt 0.8529 0.352
vt 0.8529 0.347
vt 0.7482 0.347
vt 0.8405 0.7664
vt 0.8405 0.8742
vt 0.9767 0.8742
vt 0.9767 0.7664
vt 0.8405 0.9717
vt 0.8405 0.9882
vt 0.9767 0.9882
vt 0.9767 0.9717
vt 0.9771 0.6409
vt 0.9771 0.6197
vt 0.8506 0.6197
vt 0.8506 0.6409
vt 0.8365 0.6197
vt 0.737 0.4521
vt 0.737 0.4624
vt 0.7482 0.4624
vt 0.6431 0.9638
vt 0.6431 0.9767
vt 0.7816 0.9767
vt 0.7816 0.9638
vt 0.8506 0.4298
vt 0.8365 0.4298
vt 0.6649 0.453
vt 0.6539 0.453
vt 0.6539 0.4634
vt 0.6649 0.4634
vt 0.707 0.2125
vt 0.8004 0.3004
vt 0.8004 0.207
vt 0.707 0.207
vt 0.8529 0.3624
vt 0.6904 0.453
vt 0.6904 0.3485
vt 0.6649 0.3485
vt 0.7816 0.951
vt 0.6431 0.951
vt 0.8329 0.3004
vt 0.8329 0.207
vt 0.9771 0.6045
vt 0.9908 0.6197
vt 0.9908 0.6045
vt 0.8504 0.3143
vt 0.8619 0.3143
vt 0.8619 0.2062
vt 0.8504 0.2062
vt 0.9811 0.6556
vt 0.8432 0.6556
vt 0.8432 0.7549
vt 0.9811 0.7549
vt 0.6539 0.3485
vt 0.737 0.347
vt 0.873 0.352
vt 0.873 0.3624
vt 0.6891 0.2125
vt 0.6891 0.2218
vt 0.707 0.2218
vt 0.5494 0.3547
vt 0.5294 0.3547
vt 0.5294 0.3651
vt 0.5494 0.3651
vt 0.9688 0.2119
vt 0.9688 0.2062
vt 0.5494 0.3485
vt 0.8619 0.3248
vt 0.9688 0.2226
vt 0.8004 0.3096
vt 0.9771 0.4452
vt 0.9908 0.4452
vt 0.8365 0.4137
vt 0.8506 0.4137
vt 0.8365 0.399
vt 0.8506 0.399
vt 0.9771 0.4137
vt 0.9771 0.4298
vt 0.9908 0.4298
vt 0.9908 0.4137
vt 0.9771 0.399
vt 0.9908 0.399
vt 0.6891 0.207
vt 0.9894 0.2119
vt 0.9894 0.2062
vt 0.5294 0.3485
vt 0.873 0.347
vt 0.9894 0.2226
vt 0.9767 0.9337
vt 0.9912 0.9717
vt 0.9912 0.9337
vt 0.8405 0.9337
vt 0.7953 0.8076
vt 0.7953 0.6986
vt 0.7953 0.9061
vt 0.7953 0.8677
vt 0.6247 0.5056
vt 0.7889 0.5233
vt 0.7116 0.4521
vt 0.7116 0.4624
vt 0.9912 0.8742
vt 0.9912 0.7664
vt 0.9912 0.9882
vt 0.8261 0.7664
vt 0.8261 0.8742
vt 0.8261 0.9717
vt 0.8261 0.9882
vt 0.6904 0.4634
vt 0.9908 0.6409
vt 0.8365 0.6409
vt 0.7116 0.347
vt 0.8261 0.9337
vt 0.8023 0.1384
vt 0.6331 0.1384
vt 0.6331 0.1144
vt 0.8023 0.1144
vt 0.5814 0.1502
vt 0.551 0.1404
vt 0.551 0.1167
vt 0.5814 0.1265
vt 0.5814 0.1901
vt 0.5632 0.1849
vt 0.6117 0.1404
vt 0.6117 0.1167
vt 0.746 0.0529
vt 0.9712 0.0529
vt 0.9463 0.0969
vt 0.746 0.0969
vt 0.5211 0.0529
vt 0.5211 0.0218
vt 0.746 0.0218
vt 0.5995 0.1849
vt 0.0368 0.196
vt 0.0368 0.3472
vt 0.0152 0.3472
vt 0.0152 0.196
vt 0.5056 0.1961
vt 0.5056 0.3475
vt 0.484 0.3475
vt 0.4839 0.1961
vt 0.2604 0.196
vt 0.2605 0.3475
vt 0.261 0.3768
vt 0.0373 0.3764
vt 0.2598 0.0153
vt 0.4835 0.0157
vt 0.484 0.0449
vt 0.2603 0.0446
vt 0.8023 0.1861
vt 0.6609 0.1861
vt 0.9716 0.1384
vt 0.9716 0.1144
vt 0.0368 0.0446
vt 0.0152 0.0446
vt 0.5056 0.0449
vt 0.9439 0.1861
vt 0.5461 0.0969
vt 0.9712 0.0218
vt 0.4845 0.3768
vt 0.0363 0.0153
f 2/1 1/2 5/3 6/4
f 12/5 10/6 14/7 16/8
f 7/9 8/10 4/11 3/12
f 1/2 2/1 3/12 4/11
f 8/13 7/14 6/4 5/3
f 9/15 10/6 2/16 6/17
f 11/18 9/15 6/17 7/19
f 12/5 11/20 7/21 3/22
f 10/6 12/5 3/22 2/16
f 13/23 15/24 16/25 14/26
f 13/27 14/7 10/6 9/15
f 9/15 11/18 15/28 13/27
f 11/20 12/5 16/8 15/29
f 32/30 22/31 33/32
f 17/33 22/31 18/34
f 33/32 22/31 17/33
f 18/34 22/31 19/35
f 31/36 22/31 32/30
f 30/37 22/31 31/36
f 29/38 22/31 30/37
f 28/39 22/31 29/38
f 27/40 22/31 28/39
f 26/41 22/31 27/40
f 25/42 22/31 26/41
f 24/43 22/31 25/42
f 23/44 22/31 24/43
f 21/45 22/31 23/44
f 20/46 22/31 21/45
f 19/35 22/31 20/47
f 47/48 48/49 64/50 63/51
f 35/52 34/53 17/54 18/55
f 36/56 35/52 18/55 19/57
f 37/58 36/56 19/57 20/59
f 38/60 37/61 20/62 21/63
f 39/64 38/60 21/63 23/65
f 40/66 39/64 23/65 24/67
f 41/68 40/66 24/67 25/69
f 42/70 41/68 25/69 26/71
f 43/72 42/70 26/71 27/73
f 44/74 43/72 27/73 28/75
f 45/76 44/74 28/75 29/77
f 46/78 45/76 29/77 30/79
f 47/48 46/78 30/79 31/80
f 48/49 47/48 31/80 32/81
f 49/82 48/49 32/81 33/83
f 34/53 49/82 33/83 17/54
f 42/70 43/72 59/84 58/85
f 37/61 38/60 54/86 53/87
f 48/49 49/82 65/88 64/50
f 43/72 44/74 60/89 59/84
f 38/60 39/64 55/90 54/86
f 49/82 34/53 50/91 65/88
f 44/74 45/76 61/92 60/89
f 39/64 40/66 56/93 55/90
f 34/53 35/52 51/94 50/91
f 45/76 46/78 62/95 61/92
f 40/66 41/68 57/96 56/93
f 35/52 36/56 52/97 51/94
f 46/78 47/48 63/51 62/95
f 41/68 42/70 58/85 57/96
f 36/56 37/58 53/98 52/97
f 52/99 53/100 66/101
f 63/102 64/103 66/101
f 58/104 59/105 66/101
f 53/100 54/106 66/101
f 64/103 65/107 66/101
f 59/105 60/108 66/101
f 54/106 55/109 66/101
f 65/107 50/110 66/101
f 60/108 61/111 66/101
f 55/109 56/112 66/101
f 50/110 51/113 66/101
f 61/111 62/114 66/101
f 56/112 57/115 66/101
f 51/113 52/99 66/101
f 62/114 63/102 66/101
f 57/115 58/104 66/101
f 67/116 68/117 70/118 69/119
f 69/119 70/118 72/120 71/121
f 71/121 72/120 74/122 73/123
f 73/123 74/122 76/124 75/125
f 68/126 78/127 84/128 79/129
f 77/130 78/131 68/132 67/133
f 75/125 76/124 78/131 77/130
f 78/127 76/134 83/135 84/128
f 76/134 74/136 82/137 83/135
f 70/138 68/139 79/140 80/141
f 74/136 72/142 81/143 82/137
f 72/142 70/138 80/141 81/143
f 81/144 80/145 86/146 87/147
f 83/148 82/149 88/150 89/151
f 79/152 84/153 90/154 85/155
f 80/145 79/156 85/157 86/146
f 82/149 81/144 87/147 88/150
f 84/153 83/148 89/151 90/154
f 90/158 89/159 95/160 96/161
f 87/162 86/163 92/164 93/165
f 89/159 88/166 94/167 95/160
f 85/168 90/158 96/161 91/169
f 86/163 85/168 91/169 92/164
f 88/166 87/162 93/165 94/167
f 96/170 95/171 101/172 102/173
f 93/174 92/175 98/176 99/177
f 95/171 94/178 100/179 101/172
f 91/180 96/170 102/173 97/181
f 92/175 91/182 97/183 98/176
f 94/178 93/174 99/177 100/179
f 102/184 101/185 100/186
f 97/187 102/184 100/186
f 99/188 97/187 100/186
f 99/188 98/189 97/187
f 115/190 124/191 106/192 116/193
f 121/194 104/195 108/196 107/197
f 126/198 121/194 107/197 128/199
f 124/191 126/198 128/199 106/192
f 122/200 112/201 115/190 123/202
f 123/202 115/190 116/193 105/203
f 103/204 120/205 121/194 126/198
f 127/206 113/207 120/205 103/204
f 112/208 125/209 133/210 130/211
f 126/212 124/213 132/214 134/215
f 131/216 132/214 124/213 115/217
f 130/218 131/219 115/220 112/221
f 129/222 133/210 125/209 103/223
f 103/224 126/225 134/226 129/227
f 133/228 129/229 134/230 132/231
f 130/232 133/228 132/231 131/233
f 135/116 136/117 138/118 137/119
f 137/119 138/118 140/120 139/121
f 139/121 140/120 142/122 141/123
f 141/123 142/122 144/124 143/125
f 136/234 146/235 152/236 147/237
f 145/130 146/131 136/132 135/133
f 143/125 144/124 146/131 145/130
f 146/235 144/238 151/239 152/236
f 144/238 142/240 150/241 151/239
f 138/242 136/243 147/244 148/245
f 142/240 140/246 149/247 150/241
f 140/246 138/242 148/245 149/247
f 149/248 148/249 154/250 155/251
f 151/252 150/253 156/254 157/255
f 147/256 152/257 158/258 153/259
f 148/249 147/260 153/261 154/250
f 150/253 149/248 155/251 156/254
f 152/257 151/252 157/255 158/258
f 158/262 157/263 163/264 164/265
f 155/266 154/267 160/268 161/269
f 157/263 156/270 162/271 163/264
f 153/272 158/262 164/265 159/273
f 154/267 153/272 159/273 160/268
f 156/270 155/266 161/269 162/271
f 164/274 163/275 169/276 170/277
f 161/278 160/279 166/280 167/281
f 163/275 162/282 168/283 169/276
f 159/284 164/274 170/277 165/285
f 160/279 159/286 165/287 166/280
f 162/282 161/278 167/281 168/283
f 165/288 170/289 169/290
f 166/291 165/288 169/290
f 166/291 169/290 168/292
f 167/293 166/291 168/292
f 182/294 176/295 174/296 183/297
f 181/298 191/299 176/300 182/301
f 188/302 172/303 178/304 177/305
f 193/306 188/302 177/305 194/307
f 191/299 193/306 194/307 176/300
f 189/308 180/309 181/298 190/310
f 190/310 181/298 182/301 175/311
f 175/312 182/294 183/297 173/313
f 171/314 187/315 188/302 193/306
f 180/316 192/317 199/318 196/319
f 193/320 191/321 198/322 200/323
f 197/324 198/322 191/321 181/325
f 196/326 197/327 181/328 180/329
f 195/330 199/318 192/317 171/331
f 171/332 193/333 200/334 195/335
f 199/336 195/337 200/338 198/339
f 196/340 199/336 198/339 197/341
f 201/116 202/342 204/343 203/119
f 203/119 204/343 206/344 205/121
f 205/121 206/344 208/345 207/123
f 207/123 208/345 210/346 209/125
f 202/347 212/348 218/349 213/350
f 211/130 212/351 202/352 201/133
f 209/125 210/346 212/351 211/130
f 212/348 210/353 217/354 218/349
f 210/353 208/355 216/356 217/354
f 204/357 202/358 213/359 214/360
f 208/355 206/361 215/362 216/356
f 206/361 204/357 214/360 215/362
f 215/363 214/364 220/365 221/366
f 217/367 216/368 222/369 223/370
f 213/371 218/372 224/373 219/374
f 214/364 213/375 219/376 220/365
f 216/368 215/363 221/366 222/369
f 218/372 217/367 223/370 224/373
f 224/377 223/378 229/379 230/380
f 221/381 220/382 226/383 227/384
f 223/378 222/385 228/386 229/379
f 219/387 224/377 230/380 225/388
f 220/382 219/387 225/388 226/383
f 222/385 221/381 227/384 228/386
f 230/389 229/390 235/391 236/392
f 227/393 226/394 232/395 233/396
f 229/390 228/397 234/398 235/391
f 225/399 230/389 236/392 231/400
f 226/394 225/401 231/402 232/395
f 228/397 227/393 233/396 234/398
f 231/403 236/404 235/405
f 231/403 235/405 234/406
f 233/407 231/403 234/406
f 233/407 232/408 231/403
f 255/409 244/410 240/411 256/412
f 270/413 245/414 241/415 271/416
f 253/417 265/418 244/419 255/420
f 268/421 262/422 245/423 270/424
f 244/410 270/413 271/416 240/411
f 251/425 269/426 237/427 266/428
f 265/418 268/421 270/424 244/419
f 250/429 254/430 249/431 263/432
f 254/430 251/425 266/428 249/431
f 263/432 249/431 253/417 264/433
f 264/433 253/417 255/420 243/434
f 243/435 255/409 256/412 239/436
f 237/427 261/437 262/422 268/421
f 269/426 252/438 261/437 237/427
f 261/437 267/439 238/440 262/422
f 249/441 266/442 276/443 273/444
f 268/445 265/446 275/447 277/448
f 274/449 275/447 265/446 253/450
f 273/451 274/452 253/453 249/454
f 272/455 276/443 266/442 237/456
f 237/457 268/458 277/459 272/460
f 276/461 272/462 277/463 275/464
f 273/465 276/461 275/464 274/466
f 278/116 279/117 281/118 280/119
f 280/119 281/118 283/120 282/121
f 282/121 283/120 285/122 284/123
f 284/123 285/122 287/124 286/125
f 279/467 289/468 295/469 290/470
f 288/130 289/131 279/132 278/133
f 286/125 287/124 289/131 288/130
f 289/468 287/471 294/472 295/469
f 287/471 285/473 293/474 294/472
f 281/475 279/476 290/477 291/478
f 285/473 283/479 292/480 293/474
f 283/479 281/475 291/478 292/480
f 292/481 291/482 297/483 298/484
f 294/485 293/486 299/487 300/488
f 290/489 295/490 301/491 296/492
f 291/482 290/493 296/494 297/483
f 293/486 292/481 298/484 299/487
f 295/490 294/485 300/488 301/491
f 301/495 300/496 306/497 307/498
f 298/499 297/500 303/501 304/502
f 300/496 299/503 305/504 306/497
f 296/505 301/495 307/498 302/506
f 297/500 296/505 302/506 303/501
f 299/503 298/499 304/502 305/504
f 307/507 306/508 312/509 313/510
f 304/511 303/512 309/513 310/514
f 306/508 305/515 311/516 312/509
f 302/517 307/507 313/510 308/518
f 303/512 302/519 308/520 309/513
f 305/515 304/511 310/514 311/516
f 313/521 312/522 311/523
f 310/524 313/521 311/523
f 310/524 308/525 313/521
f 310/524 309/526 308/525
f 323/527 336/528 316/529 325/530
f 338/531 333/532 317/533 340/534
f 321/535 339/536 314/537 337/538
f 336/528 338/531 340/534 316/529
f 320/539 324/540 319/541 334/542
f 324/540 321/535 337/538 319/541
f 334/542 319/541 323/527 335/543
f 335/543 323/527 325/530 315/544
f 327/545 326/546 328/547 331/548
f 330/549 327/545 331/548 318/550
f 314/537 332/551 333/532 338/531
f 339/536 322/552 332/551 314/537
f 319/553 337/554 345/555 342/556
f 338/557 336/558 344/559 346/560
f 343/561 344/559 336/558 323/562
f 342/563 343/564 323/565 319/566
f 341/567 345/555 337/554 314/568
f 314/569 338/570 346/571 341/572
f 345/573 341/574 346/575 344/576
f 342/577 345/573 344/576 343/578
f 116/579 106/580 321/581 324/582
f 107/583 108/584 329/585 322/586
f 128/587 107/583 322/586 339/588
f 329/589 108/549 110/550 109/590
f 117/546 114/591 111/592 118/547
f 106/580 128/587 339/588 321/581
f 174/593 127/206 103/204 125/594
f 173/595 183/596 112/201 122/200
f 183/596 174/593 125/594 112/201
f 105/597 116/579 324/582 320/598
f 104/545 117/546 118/547 119/548
f 108/549 104/545 119/548 110/550
f 120/205 117/599 104/195 121/194
f 113/207 114/600 117/599 120/205
f 177/601 178/602 114/603 113/604
f 194/605 177/601 113/604 127/606
f 114/589 178/549 179/550 111/590
f 184/546 242/591 246/592 185/547
f 176/295 194/605 127/606 174/296
f 240/607 271/608 171/314 192/609
f 239/610 256/611 180/309 189/308
f 256/611 240/607 192/609 180/309
f 172/545 184/546 185/547 186/548
f 178/549 172/545 186/548 179/550
f 271/608 241/612 187/315 171/314
f 187/315 184/613 172/303 188/302
f 241/612 242/614 184/613 187/315
f 245/414 259/615 242/616 241/415
f 262/422 238/440 259/617 245/423
f 242/589 259/549 247/550 246/590
f 267/546 258/591 248/592 257/547
f 238/545 267/546 257/547 260/548
f 259/549 238/545 260/548 247/550
f 252/438 258/618 267/439 261/437
f 325/619 316/620 251/621 254/622
f 317/623 330/624 258/625 252/626
f 340/627 317/623 252/626 269/628
f 333/532 327/629 330/630 317/533
f 258/589 330/549 318/550 248/590
f 326/546 329/591 109/592 328/547
f 316/620 340/627 269/628 251/621
f 315/631 325/619 254/622 250/632
f 332/551 326/633 327/629 333/532
f 322/552 329/634 326/633 332/551
f 122/635 123/636 347/637
f 189/638 190/639 347/637
f 190/639 175/640 347/637
f 123/636 105/641 347/637
f 263/642 264/643 347/637
f 347/637 173/644 122/635
f 347/637 105/641 320/645
f 334/646 335/647 347/637
f 264/643 243/648 347/637
f 347/637 315/649 250/650
f 335/647 315/649 347/637
f 347/637 320/645 334/646
f 347/637 175/640 173/644
f 347/637 243/648 239/651
f 347/637 239/651 189/638
f 347/637 250/650 263/642
f 363/652 365/653 351/654 349/655
f 354/656 356/657 357/658 355/659
f 356/657 358/660 359/661 357/658
f 373/662 360/663 361/664 372/665
f 360/666 362/667 363/652 361/668
f 362/667 364/669 365/653 363/652
f 364/669 366/670 367/671 365/653
f 366/670 368/672 369/673 367/671
f 358/660 371/674 370/675 359/661
f 370/676 374/677 376/678 372/679
f 377/680 373/681 372/682 376/683
f 375/684 371/685 373/686 377/687
f 371/688 375/689 374/690 370/691
f 377/692 376/693 374/694 375/695
f 395/659 397/658 380/696 378/697
f 397/658 399/661 382/698 380/696
f 412/665 401/664 384/699 392/700
f 401/668 403/652 386/655 384/701
f 403/652 405/653 387/654 386/655
f 405/653 407/671 388/702 387/654
f 407/671 409/673 390/703 388/702
f 399/661 410/675 391/704 382/698
f 410/675 412/665 392/700 391/704
f 379/705 381/706 396/657 394/656
f 394/656 396/657 397/658 395/659
f 381/706 383/707 398/660 396/657
f 396/657 398/660 399/661 397/658
f 393/708 385/709 400/663 413/662
f 413/662 400/663 401/664 412/665
f 400/666 402/667 403/652 401/668
f 402/667 404/669 405/653 403/652
f 404/669 406/670 407/671 405/653
f 406/670 408/672 409/673 407/671
f 398/660 411/674 410/675 399/661
f 410/676 414/677 416/678 412/679
f 417/680 413/681 412/710 416/683
f 415/684 411/685 413/686 417/687
f 411/688 415/689 414/690 410/691
f 417/692 416/693 414/694 415/695
f 423/656 425/657 426/711 424/659
f 418/706 419/707 427/660 425/657
f 425/657 427/660 428/712 426/711
f 442/662 429/663 430/664 441/665
f 420/713 421/714 431/667 429/666
f 429/666 431/667 432/652 430/668
f 431/667 433/669 434/653 432/652
f 455/715 368/716 571/717
f 433/669 435/670 436/671 434/653
f 455/715 591/718 572/719
f 435/670 437/672 438/673 436/671
f 500/720 455/715 484/721
f 427/660 440/674 439/675 428/712
f 369/722 455/715 352/723
f 439/676 443/677 445/678 441/679
f 446/680 442/681 441/710 445/683
f 444/684 440/685 442/686 446/687
f 440/688 444/689 443/690 439/691
f 446/692 445/693 443/694 444/695
f 409/724 455/715 390/725
f 438/726 455/715 454/727
f 455/715 499/728 390/725
f 455/715 592/729 591/718
f 473/730 455/715 572/719
f 455/715 472/731 454/727
f 455/715 437/732 484/721
f 455/715 500/720 499/728
f 455/715 438/726 437/732
f 447/705 448/706 460/657 458/656
f 458/656 460/657 461/711 459/659
f 448/706 449/707 462/660 460/657
f 460/657 462/660 463/712 461/711
f 456/708 450/709 464/663 477/662
f 477/662 464/663 465/664 476/665
f 450/713 451/714 466/667 464/666
f 464/666 466/667 467/652 465/668
f 451/714 452/733 468/669 466/667
f 466/667 468/669 469/653 467/652
f 452/733 453/734 470/670 468/669
f 468/669 470/670 471/671 469/653
f 453/734 454/735 472/672 470/670
f 470/670 472/672 473/673 471/671
f 449/707 457/736 475/674 462/660
f 462/660 475/674 474/675 463/712
f 457/736 456/708 477/662 475/674
f 474/676 478/677 480/678 476/679
f 481/680 477/681 476/682 480/683
f 479/684 475/685 477/686 481/687
f 475/688 479/689 478/690 474/691
f 481/692 480/693 478/694 479/695
f 455/715 369/722 368/716
f 455/715 473/730 472/731
f 455/715 409/724 408/737
f 592/729 455/715 571/717
f 455/715 408/737 352/723
f 519/738 531/739 527/740 503/741
f 522/742 534/743 525/744 485/745
f 487/746 489/747 490/748 488/749
f 552/750 491/751 492/752 554/753
f 491/666 493/667 494/652 492/668
f 493/667 495/669 496/653 494/652
f 495/669 497/670 498/671 496/653
f 497/670 499/672 500/673 498/671
f 488/754 512/755 511/756 487/757
f 511/756 519/738 503/741 508/758
f 522/742 514/759 508/760 503/761
f 524/762 516/763 515/764 523/765
f 531/739 543/766 539/767 527/740
f 513/768 521/769 504/770 507/771
f 535/772 523/773 517/774 529/775
f 534/743 522/742 503/761 527/776
f 513/768 501/777 482/778 505/779
f 523/765 519/780 520/781 524/762
f 523/773 515/782 509/783 517/774
f 512/755 520/784 519/738 511/756
f 520/784 512/755 507/785 504/786
f 516/787 524/788 518/789 510/790
f 515/791 516/792 510/793 509/794
f 521/769 513/768 505/779 486/795
f 514/759 522/742 485/745 506/796
f 546/797 534/743 527/776 539/798
f 535/772 547/799 543/800 531/801
f 533/802 545/803 540/804 528/805
f 524/788 536/806 530/807 518/789
f 533/802 521/769 486/795 526/808
f 536/806 524/788 520/809 532/810
f 523/773 535/772 531/801 519/811
f 521/769 533/802 528/805 504/770
f 532/812 520/784 504/786 528/813
f 546/814 539/767 543/766 547/815
f 537/816 546/814 547/815 541/817
f 548/818 544/819 540/820 545/821
f 542/822 548/818 545/821 538/823
f 547/799 535/772 529/775 541/824
f 536/806 548/825 542/826 530/807
f 544/819 532/812 528/813 540/820
f 545/803 533/802 526/808 538/827
f 534/743 546/797 537/828 525/744
f 548/825 536/806 532/810 544/829
f 553/830 554/753 550/831 549/832
f 489/747 551/833 553/830 490/748
f 554/682 558/683 556/680 552/681
f 552/686 556/687 555/684 551/685
f 558/678 554/679 553/676 557/677
f 557/690 553/691 551/688 555/689
f 558/693 557/694 555/695 556/692
f 580/658 582/661 562/834 560/835
f 595/665 584/664 564/699 574/836
f 588/653 590/671 569/702 567/654
f 590/671 592/673 571/703 569/702
f 582/661 593/675 573/837 562/834
f 593/675 595/665 574/836 573/837
f 559/705 561/706 579/657 577/656
f 577/656 579/657 580/658 578/659
f 561/706 563/707 581/660 579/657
f 579/657 581/660 582/661 580/658
f 575/708 565/709 583/663 596/662
f 596/662 583/663 584/664 595/665
f 565/713 566/838 585/667 583/666
f 583/666 585/667 586/652 584/668
f 566/838 568/733 587/669 585/667
f 585/667 587/669 588/653 586/652
f 568/733 570/734 589/670 587/669
f 587/669 589/670 590/671 588/653
f 570/734 572/735 591/672 589/670
f 589/670 591/672 592/673 590/671
f 563/707 576/736 594/674 581/660
f 581/660 594/674 593/675 582/661
f 576/736 575/708 596/662 594/674
f 593/676 597/677 599/678 595/679
f 600/680 596/681 595/710 599/683
f 598/684 594/685 596/686 600/687
f 594/688 598/689 597/690 593/691
f 600/692 599/693 597/694 598/695
f 355/659 357/658 381/835 379/697
f 357/658 359/661 383/834 381/835
f 372/665 361/664 385/699 393/836
f 361/668 363/652 349/655 385/701
f 365/653 367/671 389/702 351/654
f 367/671 369/673 352/703 389/702
f 359/661 370/675 353/837 383/834
f 370/675 372/665 393/836 353/837
f 348/705 560/706 356/657 354/656
f 560/706 562/707 358/660 356/657
f 574/708 564/709 360/663 373/662
f 564/713 350/838 362/667 360/666
f 350/838 567/733 364/669 362/667
f 567/733 569/734 366/670 364/669
f 569/734 571/735 368/672 366/670
f 562/707 573/736 371/674 358/660
f 573/736 574/708 373/662 371/674
f 385/713 349/838 402/667 400/666
f 349/838 351/733 404/669 402/667
f 351/733 389/734 406/670 404/669
f 389/734 352/735 408/672 406/670
f 383/707 353/736 411/674 398/660
f 353/736 393/708 413/662 411/674
f 424/659 426/711 448/696 447/697
f 426/711 428/712 449/698 448/696
f 441/665 430/664 450/699 456/700
f 430/668 432/652 451/655 450/701
f 432/652 434/653 452/839 451/655
f 434/653 436/671 453/702 452/839
f 436/671 438/673 454/703 453/702
f 428/712 439/675 457/704 449/698
f 439/675 441/665 456/700 457/704
f 482/705 418/706 425/657 423/656
f 550/708 420/709 429/663 442/662
f 421/714 483/733 433/669 431/667
f 483/733 422/734 435/670 433/669
f 422/734 484/735 437/672 435/670
f 419/707 549/736 440/674 427/660
f 549/736 550/708 442/662 440/674
f 459/659 461/711 561/696 559/697
f 461/711 463/712 563/698 561/696
f 476/665 465/664 565/699 575/700
f 465/668 467/652 566/655 565/701
f 467/652 469/653 568/839 566/655
f 469/653 471/671 570/702 568/839
f 471/671 473/673 572/703 570/702
f 463/712 474/675 576/704 563/698
f 474/675 476/665 575/700 576/704
f 514/759 502/840 380/841 508/760
f 488/749 490/748 419/842 418/843
f 554/753 492/752 420/844 550/831
f 492/668 494/652 421/655 420/701
f 494/652 496/653 483/839 421/655
f 496/653 498/671 422/702 483/839
f 498/671 500/673 484/703 422/702
f 380/845 382/846 489/747 487/746
f 392/847 384/848 491/751 552/750
f 384/713 386/714 493/667 491/666
f 386/714 387/733 495/669 493/667
f 387/733 388/734 497/670 495/669
f 388/734 390/735 499/672 497/670
f 501/777 513/768 507/771 418/849
f 512/755 488/754 418/850 507/785
f 487/757 511/756 508/758 380/851
f 502/840 514/759 506/796 378/852
f 490/748 553/830 549/832 419/842
f 382/846 391/853 551/833 489/747
f 391/853 392/847 552/750 551/833
f 578/659 580/658 560/835 348/697
f 584/668 586/652 350/655 564/701
f 586/652 588/653 567/654 350/655
f 637/854 606/855 602/856 638/857
f 610/858 607/859 603/860 611/861
f 639/854 608/855 604/856 640/857
f 614/858 605/859 601/860 615/861
f 632/862 625/863 605/859 614/858
f 606/864 609/858 612/861 602/865
f 610/858 611/861 619/865 618/864
f 608/864 613/858 616/861 604/865
f 614/858 615/861 623/865 622/864
f 650/866 621/867 635/868 645/869
f 630/862 627/863 607/859 610/858
f 652/866 618/870 619/871 651/872
f 617/859 620/860 612/861 609/858
f 636/873 632/862 614/858 622/864
f 650/866 622/870 623/871 649/872
f 629/862 633/863 617/859 609/858
f 621/859 624/860 616/861 613/858
f 644/874 629/875 626/876 641/877
f 642/878 627/879 630/880 643/881
f 653/882 648/883 629/875 644/874
f 646/884 633/885 629/875 648/883
f 645/886 635/887 631/888 647/889
f 621/859 613/858 631/862 635/863
f 641/890 626/891 606/855 637/854
f 613/858 608/864 628/873 631/862
f 634/873 630/862 610/858 618/864
f 609/858 606/864 626/873 629/862
f 652/866 617/867 633/868 646/869
f 642/890 628/891 608/855 639/854
f 605/892 637/854 638/857 601/893
f 607/892 639/854 640/857 603/893
f 632/894 644/874 641/877 625/895
f 628/896 642/878 643/881 631/888
f 647/889 653/882 644/874 632/894
f 625/897 641/890 637/854 605/892
f 627/897 642/890 639/854 607/892
f 618/870 652/866 646/869 634/898
f 617/867 652/866 651/872 620/899
f 631/888 643/881 653/882 647/889
f 634/900 646/884 648/883 630/880
f 636/901 645/886 647/889 632/894
f 643/881 630/880 648/883 653/882
f 622/870 650/866 645/869 636/898
f 621/867 650/866 649/872 624/899
f 669/30 659/31 670/32
f 654/33 659/31 655/34
f 670/32 659/31 654/33
f 655/34 659/31 656/35
f 668/36 659/31 669/30
f 667/37 659/31 668/36
f 666/38 659/31 667/37
f 665/39 659/31 666/38
f 664/40 659/31 665/39
f 663/41 659/31 664/40
f 662/42 659/31 663/41
f 661/43 659/31 662/42
f 660/44 659/31 661/43
f 658/45 659/31 660/44
f 657/46 659/31 658/45
f 656/35 659/31 657/47
f 684/48 685/49 701/50 700/51
f 672/52 671/53 654/54 655/55
f 673/56 672/52 655/55 656/57
f 674/58 673/56 656/57 657/59
f 675/60 674/61 657/62 658/63
f 676/64 675/60 658/63 660/65
f 677/66 676/64 660/65 661/67
f 678/68 677/66 661/67 662/69
f 679/70 678/68 662/69 663/71
f 680/72 679/70 663/71 664/73
f 681/74 680/72 664/73 665/75
f 682/76 681/74 665/75 666/77
f 683/78 682/76 666/77 667/79
f 684/48 683/78 667/79 668/80
f 685/49 684/48 668/80 669/81
f 686/82 685/49 669/81 670/83
f 671/53 686/82 670/83 654/54
f 679/70 680/72 696/84 695/85
f 674/61 675/60 691/86 690/87
f 685/49 686/82 702/88 701/50
f 680/72 681/74 697/89 696/84
f 675/60 676/64 692/90 691/86
f 686/82 671/53 687/91 702/88
f 681/74 682/76 698/92 697/89
f 676/64 677/66 693/93 692/90
f 671/53 672/52 688/94 687/91
f 682/76 683/78 699/95 698/92
f 677/66 678/68 694/96 693/93
f 672/52 673/56 689/97 688/94
f 683/78 684/48 700/51 699/95
f 678/68 679/70 695/85 694/96
f 673/56 674/58 690/98 689/97
f 689/99 690/100 703/101
f 700/102 701/103 703/101
f 695/104 696/105 703/101
f 690/100 691/106 703/101
f 701/103 702/107 703/101
f 696/105 697/108 703/101
f 691/106 692/109 703/101
f 702/107 687/110 703/101
f 697/108 698/111 703/101
f 692/109 693/112 703/101
f 687/110 688/113 703/101
f 698/111 699/114 703/101
f 693/112 694/115 703/101
f 688/113 689/99 703/101
f 699/114 700/102 703/101
f 694/115 695/104 703/101
f 719/30 709/31 720/32
f 704/33 709/31 705/34
f 720/32 709/31 704/33
f 705/34 709/31 706/35
f 718/36 709/31 719/30
f 717/37 709/31 718/36
f 716/38 709/31 717/37
f 715/39 709/31 716/38
f 714/40 709/31 715/39
f 713/41 709/31 714/40
f 712/42 709/31 713/41
f 711/43 709/31 712/42
f 710/44 709/31 711/43
f 708/45 709/31 710/44
f 707/46 709/31 708/45
f 706/35 709/31 707/47
f 734/48 735/49 751/50 750/51
f 722/52 721/53 704/54 705/55
f 723/56 722/52 705/55 706/57
f 724/58 723/56 706/57 707/59
f 725/60 724/61 707/62 708/63
f 726/64 725/60 708/63 710/65
f 727/66 726/64 710/65 711/67
f 728/68 727/66 711/67 712/69
f 729/70 728/68 712/69 713/71
f 730/72 729/70 713/71 714/73
f 731/74 730/72 714/73 715/75
f 732/76 731/74 715/75 716/77
f 733/78 732/76 716/77 717/79
f 734/48 733/78 717/79 718/80
f 735/49 734/48 718/80 719/81
f 736/82 735/49 719/81 720/83
f 721/53 736/82 720/83 704/54
f 729/70 730/72 746/84 745/85
f 724/61 725/60 741/86 740/87
f 735/49 736/82 752/88 751/50
f 730/72 731/74 747/89 746/84
f 725/60 726/64 742/90 741/86
f 736/82 721/53 737/91 752/88
f 731/74 732/76 748/92 747/89
f 726/64 727/66 743/93 742/90
f 721/53 722/52 738/94 737/91
f 732/76 733/78 749/95 748/92
f 727/66 728/68 744/96 743/93
f 722/52 723/56 739/97 738/94
f 733/78 734/48 750/51 749/95
f 728/68 729/70 745/85 744/96
f 723/56 724/58 740/98 739/97
f 739/99 740/100 753/101
f 750/102 751/103 753/101
f 745/104 746/105 753/101
f 740/100 741/106 753/101
f 751/103 752/107 753/101
f 746/105 747/108 753/101
f 741/106 742/109 753/101
f 752/107 737/110 753/101
f 747/108 748/111 753/101
f 742/109 743/112 753/101
f 737/110 738/113 753/101
f 748/111 749/114 753/101
f 743/112 744/115 753/101
f 738/113 739/99 753/101
f 749/114 750/102 753/101
f 744/115 745/104 753/101
f 769/30 759/31 770/32
f 754/33 759/31 755/34
f 770/32 759/31 754/33
f 755/34 759/31 756/35
f 768/36 759/31 769/30
f 767/37 759/31 768/36
f 766/38 759/31 767/37
f 765/39 759/31 766/38
f 764/40 759/31 765/39
f 763/41 759/31 764/40
f 762/42 759/31 763/41
f 761/43 759/31 762/42
f 760/44 759/31 761/43
f 758/45 759/31 760/44
f 757/46 759/31 758/45
f 756/35 759/31 757/47
f 784/48 785/49 801/50 800/51
f 772/52 771/53 754/54 755/55
f 773/56 772/52 755/55 756/57
f 774/58 773/56 756/57 757/59
f 775/60 774/61 757/62 758/63
f 776/64 775/60 758/63 760/65
f 777/66 776/64 760/65 761/67
f 778/68 777/66 761/67 762/69
f 779/70 778/68 762/69 763/71
f 780/72 779/70 763/71 764/73
f 781/74 780/72 764/73 765/75
f 782/76 781/74 765/75 766/77
f 783/78 782/76 766/77 767/79
f 784/48 783/78 767/79 768/80
f 785/49 784/48 768/80 769/81
f 786/82 785/49 769/81 770/83
f 771/53 786/82 770/83 754/54
f 779/70 780/72 796/84 795/85
f 774/61 775/60 791/86 790/87
f 785/49 786/82 802/88 801/50
f 780/72 781/74 797/89 796/84
f 775/60 776/64 792/90 791/86
f 786/82 771/53 787/91 802/88
f 781/74 782/76 798/92 797/89
f 776/64 777/66 793/93 792/90
f 771/53 772/52 788/94 787/91
f 782/76 783/78 799/95 798/92
f 777/66 778/68 794/96 793/93
f 772/52 773/56 789/97 788/94
f 783/78 784/48 800/51 799/95
f 778/68 779/70 795/85 794/96
f 773/56 774/58 790/98 789/97
f 789/99 790/100 803/101
f 800/102 801/103 803/101
f 795/104 796/105 803/101
f 790/100 791/106 803/101
f 801/103 802/107 803/101
f 796/105 797/108 803/101
f 791/106 792/109 803/101
f 802/107 787/110 803/101
f 797/108 798/111 803/101
f 792/109 793/112 803/101
f 787/110 788/113 803/101
f 798/111 799/114 803/101
f 793/112 794/115 803/101
f 788/113 789/99 803/101
f 799/114 800/102 803/101
f 794/115 795/104 803/101
f 819/30 809/31 820/32
f 804/33 809/31 805/34
f 820/32 809/31 804/33
f 805/34 809/31 806/35
f 818/36 809/31 819/30
f 817/37 809/31 818/36
f 816/38 809/31 817/37
f 815/39 809/31 816/38
f 814/40 809/31 815/39
f 813/41 809/31 814/40
f 812/42 809/31 813/41
f 811/43 809/31 812/42
f 810/44 809/31 811/43
f 808/45 809/31 810/44
f 807/46 809/31 808/45
f 806/35 809/31 807/47
f 834/48 835/49 851/50 850/51
f 822/52 821/53 804/54 805/55
f 823/56 822/52 805/55 806/57
f 824/58 823/56 806/57 807/59
f 825/60 824/61 807/62 808/63
f 826/64 825/60 808/63 810/65
f 827/66 826/64 810/65 811/67
f 828/68 827/66 811/67 812/69
f 829/70 828/68 812/69 813/71
f 830/72 829/70 813/71 814/73
f 831/74 830/72 814/73 815/75
f 832/76 831/74 815/75 816/77
f 833/78 832/76 816/77 817/79
f 834/48 833/78 817/79 818/80
f 835/49 834/48 818/80 819/81
f 836/82 835/49 819/81 820/83
f 821/53 836/82 820/83 804/54
f 829/70 830/72 846/84 845/85
f 824/61 825/60 841/86 840/87
f 835/49 836/82 852/88 851/50
f 830/72 831/74 847/89 846/84
f 825/60 826/64 842/90 841/86
f 836/82 821/53 837/91 852/88
f 831/74 832/76 848/92 847/89
f 826/64 827/66 843/93 842/90
f 821/53 822/52 838/94 837/91
f 832/76 833/78 849/95 848/92
f 827/66 828/68 844/96 843/93
f 822/52 823/56 839/97 838/94
f 833/78 834/48 850/51 849/95
f 828/68 829/70 845/85 844/96
f 823/56 824/58 840/98 839/97
f 839/99 840/100 853/101
f 850/102 851/103 853/101
f 845/104 846/105 853/101
f 840/100 841/106 853/101
f 851/103 852/107 853/101
f 846/105 847/108 853/101
f 841/106 842/109 853/101
f 852/107 837/110 853/101
f 847/108 848/111 853/101
f 842/109 843/112 853/101
f 837/110 838/113 853/101
f 848/111 849/114 853/101
f 843/112 844/115 853/101
f 838/113 839/99 853/101
f 849/114 850/102 853/101
f 844/115 845/104 853/101
f 869/30 859/31 870/32
f 854/33 859/31 855/34
f 870/32 859/31 854/33
f 855/34 859/31 856/35
f 868/36 859/31 869/30
f 867/37 859/31 868/36
f 866/38 859/31 867/37
f 865/39 859/31 866/38
f 864/40 859/31 865/39
f 863/41 859/31 864/40
f 862/42 859/31 863/41
f 861/43 859/31 862/42
f 860/44 859/31 861/43
f 858/45 859/31 860/44
f 857/46 859/31 858/45
f 856/35 859/31 857/47
f 884/48 885/49 901/50 900/51
f 872/52 871/53 854/54 855/55
f 873/56 872/52 855/55 856/57
f 874/58 873/56 856/57 857/59
f 875/60 874/61 857/62 858/63
f 876/64 875/60 858/63 860/65
f 877/66 876/64 860/65 861/67
f 878/68 877/66 861/67 862/69
f 879/70 878/68 862/69 863/71
f 880/72 879/70 863/71 864/73
f 881/74 880/72 864/73 865/75
f 882/76 881/74 865/75 866/77
f 883/78 882/76 866/77 867/79
f 884/48 883/78 867/79 868/80
f 885/49 884/48 868/80 869/81
f 886/82 885/49 869/81 870/83
f 871/53 886/82 870/83 854/54
f 879/70 880/72 896/84 895/85
f 874/61 875/60 891/86 890/87
f 885/49 886/82 902/88 901/50
f 880/72 881/74 897/89 896/84
f 875/60 876/64 892/90 891/86
f 886/82 871/53 887/91 902/88
f 881/74 882/76 898/92 897/89
f 876/64 877/66 893/93 892/90
f 871/53 872/52 888/94 887/91
f 882/76 883/78 899/95 898/92
f 877/66 878/68 894/96 893/93
f 872/52 873/56 889/97 888/94
f 883/78 884/48 900/51 899/95
f 878/68 879/70 895/85 894/96
f 873/56 874/58 890/98 889/97
f 889/99 890/100 903/101
f 900/102 901/103 903/101
f 895/104 896/105 903/101
f 890/100 891/106 903/101
f 901/103 902/107 903/101
f 896/105 897/108 903/101
f 891/106 892/109 903/101
f 902/107 887/110 903/101
f 897/108 898/111 903/101
f 892/109 893/112 903/101
f 887/110 888/113 903/101
f 898/111 899/114 903/101
f 893/112 894/115 903/101
f 888/113 889/99 903/101
f 899/114 900/102 903/101
f 894/115 895/104 903/101
f 921/30 911/31 922/32
f 906/33 911/31 907/34
f 922/32 911/31 906/33
f 907/34 911/31 908/35
f 920/36 911/31 921/30
f 919/37 911/31 920/36
f 918/38 911/31 919/37
f 917/39 911/31 918/38
f 916/40 911/31 917/39
f 915/41 911/31 916/40
f 914/42 911/31 915/41
f 913/43 911/31 914/42
f 912/44 911/31 913/43
f 910/45 911/31 912/44
f 909/46 911/31 910/45
f 908/35 911/31 909/47
f 936/48 937/49 953/50 952/51
f 924/52 923/53 906/54 907/55
f 925/56 924/52 907/55 908/57
f 926/58 925/56 908/57 909/59
f 927/60 926/61 909/62 910/63
f 928/64 927/60 910/63 912/65
f 929/66 928/64 912/65 913/67
f 930/68 929/66 913/67 914/69
f 931/70 930/68 914/69 915/71
f 932/72 931/70 915/71 916/73
f 933/74 932/72 916/73 917/75
f 934/76 933/74 917/75 918/77
f 935/78 934/76 918/77 919/79
f 936/48 935/78 919/79 920/80
f 937/49 936/48 920/80 921/81
f 938/82 937/49 921/81 922/83
f 923/53 938/82 922/83 906/54
f 931/70 932/72 948/84 947/85
f 926/61 927/60 943/86 942/87
f 937/49 938/82 954/88 953/50
f 932/72 933/74 949/89 948/84
f 927/60 928/64 944/90 943/86
f 938/82 923/53 939/91 954/88
f 933/74 934/76 950/92 949/89
f 928/64 929/66 945/93 944/90
f 923/53 924/52 940/94 939/91
f 934/76 935/78 951/95 950/92
f 929/66 930/68 946/96 945/93
f 924/52 925/56 941/97 940/94
f 935/78 936/48 952/51 951/95
f 930/68 931/70 947/85 946/96
f 925/56 926/58 942/98 941/97
f 941/99 942/100 955/101
f 952/102 953/103 955/101
f 947/104 948/105 955/101
f 942/100 943/106 955/101
f 953/103 954/107 955/101
f 948/105 949/108 955/101
f 943/106 944/109 955/101
f 954/107 939/110 955/101
f 949/108 950/111 955/101
f 944/109 945/112 955/101
f 939/110 940/113 955/101
f 950/111 951/114 955/101
f 945/112 946/115 955/101
f 940/113 941/99 955/101
f 951/114 952/102 955/101
f 946/115 947/104 955/101
f 973/30 963/31 974/32
f 958/33 963/31 959/34
f 974/32 963/31 958/33
f 959/34 963/31 960/35
f 972/36 963/31 973/30
f 971/37 963/31 972/36
f 970/38 963/31 971/37
f 969/39 963/31 970/38
f 968/40 963/31 969/39
f 967/41 963/31 968/40
f 966/42 963/31 967/41
f 965/43 963/31 966/42
f 964/44 963/31 965/43
f 962/45 963/31 964/44
f 961/46 963/31 962/45
f 960/35 963/31 961/47
f 988/48 989/49 1005/50 1004/51
f 976/52 975/53 958/54 959/55
f 977/56 976/52 959/55 960/57
f 978/58 977/56 960/57 961/59
f 979/60 978/61 961/62 962/63
f 980/64 979/60 962/63 964/65
f 981/66 980/64 964/65 965/67
f 982/68 981/66 965/67 966/69
f 983/70 982/68 966/69 967/71
f 984/72 983/70 967/71 968/73
f 985/74 984/72 968/73 969/75
f 986/76 985/74 969/75 970/77
f 987/78 986/76 970/77 971/79
f 988/48 987/78 971/79 972/80
f 989/49 988/48 972/80 973/81
f 990/82 989/49 973/81 974/83
f 975/53 990/82 974/83 958/54
f 983/70 984/72 1000/84 999/85
f 978/61 979/60 995/86 994/87
f 989/49 990/82 1006/88 1005/50
f 984/72 985/74 1001/89 1000/84
f 979/60 980/64 996/90 995/86
f 990/82 975/53 991/91 1006/88
f 985/74 986/76 1002/92 1001/89
f 980/64 981/66 997/93 996/90
f 975/53 976/52 992/94 991/91
f 986/76 987/78 1003/95 1002/92
f 981/66 982/68 998/96 997/93
f 976/52 977/56 993/97 992/94
f 987/78 988/48 1004/51 1003/95
f 982/68 983/70 999/85 998/96
f 977/56 978/58 994/98 993/97
f 993/99 994/100 1007/101
f 1004/102 1005/103 1007/101
f 999/104 1000/105 1007/101
f 994/100 995/106 1007/101
f 1005/103 1006/107 1007/101
f 1000/105 1001/108 1007/101
f 995/106 996/109 1007/101
f 1006/107 991/110 1007/101
f 1001/108 1002/111 1007/101
f 996/109 997/112 1007/101
f 991/110 992/113 1007/101
f 1002/111 1003/114 1007/101
f 997/112 998/115 1007/101
f 992/113 993/99 1007/101
f 1003/114 1004/102 1007/101
f 998/115 999/104 1007/101
f 1012/3 1013/4 1009/1 1008/2
f 1019/5 1017/6 1021/7 1023/8
f 1014/9 1015/10 1011/11 1010/12
f 1008/2 1009/1 1010/12 1011/11
f 1015/13 1014/14 1013/4 1012/3
f 1016/15 1017/6 1009/16 1013/17
f 1018/18 1016/15 1013/17 1014/19
f 1019/5 1018/20 1014/21 1010/22
f 1017/6 1019/5 1010/22 1009/16
f 1020/23 1022/24 1023/25 1021/26
f 1020/27 1021/7 1017/6 1016/15
f 1016/15 1018/18 1022/28 1020/27
f 1018/20 1019/5 1023/8 1022/29
f 1028/3 1029/4 1025/1 1024/2
f 1035/5 1033/6 1037/7 1039/8
f 1030/9 1031/10 1027/11 1026/12
f 1024/2 1025/1 1026/12 1027/11
f 1031/13 1030/14 1029/4 1028/3
f 1032/15 1033/6 1025/16 1029/17
f 1034/18 1032/15 1029/17 1030/19
f 1035/5 1034/20 1030/21 1026/22
f 1033/6 1035/5 1026/22 1025/16
f 1036/23 1038/24 1039/25 1037/26
f 1036/27 1037/7 1033/6 1032/15
f 1032/15 1034/18 1038/28 1036/27
f 1034/20 1035/5 1039/8 1038/29
f 1044/3 1045/4 1041/1 1040/2
f 1051/5 1049/6 1053/7 1055/8
f 1046/9 1047/10 1043/11 1042/12
f 1040/2 1041/1 1042/12 1043/11
f 1047/13 1046/14 1045/4 1044/3
f 1048/15 1049/6 1041/16 1045/17
f 1050/18 1048/15 1045/17 1046/19
f 1051/5 1050/20 1046/21 1042/22
f 1049/6 1051/5 1042/22 1041/16
f 1052/23 1054/24 1055/25 1053/26
f 1052/27 1053/7 1049/6 1048/15
f 1048/15 1050/18 1054/28 1052/27
f 1050/20 1051/5 1055/8 1054/29
f 1060/3 1061/4 1057/1 1056/2
f 1067/5 1065/6 1069/7 1071/8
f 1062/9 1063/10 1059/11 1058/12
f 1056/2 1057/1 1058/12 1059/11
f 1063/13 1062/14 1061/4 1060/3
f 1064/15 1065/6 1057/16 1061/17
f 1066/18 1064/15 1061/17 1062/19
f 1067/5 1066/20 1062/21 1058/22
f 1065/6 1067/5 1058/22 1057/16
f 1068/23 1070/24 1071/25 1069/26
f 1068/27 1069/7 1065/6 1064/15
f 1064/15 1066/18 1070/28 1068/27
f 1066/20 1067/5 1071/8 1070/29
f 1076/3 1077/4 1073/1 1072/2
f 1083/5 1081/6 1085/7 1087/8
f 1078/9 1079/10 1075/11 1074/12
f 1072/2 1073/1 1074/12 1075/11
f 1079/13 1078/14 1077/4 1076/3
f 1080/15 1081/6 1073/16 1077/17
f 1082/18 1080/15 1077/17 1078/19
f 1083/5 1082/20 1078/21 1074/22
f 1081/6 1083/5 1074/22 1073/16
f 1084/23 1086/24 1087/25 1085/26
f 1084/27 1085/7 1081/6 1080/15
f 1080/15 1082/18 1086/28 1084/27
f 1082/20 1083/5 1087/8 1086/29
f 904 905
f 956 957
o Plane_Plane.001
v 4 0 4
v -4 0 4
v 4 0 -4
v -4 0 -4
f 1089 1088 1090 1091