o Sphere
v -0.1951 0.8808 0
v -0.4951 0.8239 0
v -0.8334 0.7315 0
v -1.0607 0.6071 0
v -1.6629 0.5556 0
v -1.8478 0.3827 0
v -3.9231 0.0975 0
v -3.9388 0 0
v -3.9231 -0.0975 0
v -1.8478 -0.3827 0
v -1.6629 -0.5556 0
v -1.4142 -0.7071 0
v -1.1111 -0.8315 0
v -0.7654 -0.9739 0
v -0.3902 -1.0308 0
v -0.1913 0.8808 -0.0381
v -0.4856 0.8239 -0.0966
v -0.8173 0.7315 -0.1626
v -1.0403 0.6071 -0.2069
v -1.631 0.5556 -0.3244
v -1.8123 0.3827 -0.3605
v -3.8478 0.0975 -0.7654
v -3.8632 0 -0.7684
v -3.8478 -0.0975 -0.7654
v -1.8123 -0.3827 -0.3605
v -1.631 -0.5556 -0.3244
v -1.387 -0.7071 -0.2759
v -1.0898 -0.8315 -0.2168
v -0.7507 -0.9739 -0.1493
v -0.3827 -1.0308 -0.0761
v -0.1802 0.8808 -0.0747
v -0.4574 0.8239 -0.1895
v -0.7699 0.7315 -0.3189
v -0.9799 0.6071 -0.4059
v -1.5364 0.5556 -0.6364
v -1.7071 0.3827 -0.7071
v -3.6245 0.0975 -1.5013
v -3.639 0 -1.5073
v -3.6245 -0.0975 -1.5013
v -1.7071 -0.3827 -0.7071
v -1.5364 -0.5556 -0.6364
v -1.3066 -0.7071 -0.5412
v -1.0266 -0.8315 -0.4252
v -0.7071 -0.9739 -0.2929
v -0.3605 -1.0308 -0.1493
v -0.1622 0.8808 -0.1084
v -0.4117 0.8239 -0.2751
v -0.6929 0.7315 -0.463
v -0.8819 0.6071 -0.5893
v -1.3827 0.5556 -0.9239
v -1.5364 0.3827 -1.0266
v -3.262 0.0975 -2.1796
v -3.275 0 -2.1883
v -3.262 -0.0975 -2.1796
v -1.5364 -0.3827 -1.0266
v -1.3827 -0.5556 -0.9239
v -1.1759 -0.7071 -0.7857
v -0.9239 -0.8315 -0.6173
v -0.6364 -0.9739 -0.4252
v -0.3244 -1.0308 -0.2168
v -0.1379 0.8808 -0.1379
v -0.3501 0.8239 -0.3501
v -0.5893 0.7315 -0.5893
v -0.75 0.6071 -0.75
v -1.1759 0.5556 -1.1759
v -1.3066 0.3827 -1.3066
v -2.7741 0.0975 -2.7741
v -2.7852 0 -2.7852
v -2.7741 -0.0975 -2.7741
v -1.3066 -0.3827 -1.3066
v -1.1759 -0.5556 -1.1759
v -1 -0.7071 -1
v -0.7857 -0.8315 -0.7857
v -0.5412 -0.9739 -0.5412
v -0.2759 -1.0308 -0.2759
v -0.1084 0.8808 -0.1622
v -0.2751 0.8239 -0.4117
v -0.463 0.7315 -0.6929
v -0.5893 0.6071 -0.8819
v -0.9239 0.5556 -1.3827
v -1.0266 0.3827 -1.5364
v -2.1796 0.0975 -3.262
v -2.1883 0 -3.275
v -2.1796 -0.0975 -3.262
v -1.0266 -0.3827 -1.5364
v -0.9239 -0.5556 -1.3827
v -0.7857 -0.7071 -1.1759
v -0.6173 -0.8315 -0.9239
v -0.4252 -0.9739 -0.6364
v -0.2168 -1.0308 -0.3244
v -0.0747 0.8808 -0.1802
v -0.1895 0.8239 -0.4574
v -0.3189 0.7315 -0.7699
v -0.4059 0.6071 -0.9799
v -0.6364 0.5556 -1.5364
v -0.7071 0.3827 -1.7071
v -1.5013 0.0975 -3.6245
v -1.5073 0 -3.639
v -1.5013 -0.0975 -3.6245
v -0.7071 -0.3827 -1.7071
v -0.6364 -0.5556 -1.5364
v -0.5412 -0.7071 -1.3066
v -0.4252 -0.8315 -1.0266
v -0.2929 -0.9739 -0.7071
v -0.1493 -1.0308 -0.3605
v -0.0381 0.8808 -0.1913
v -0.0966 0.8239 -0.4856
v -0.1626 0.7315 -0.8173
v -0.2069 0.6071 -1.0403
v -0.3244 0.5556 -1.631
v -0.3605 0.3827 -1.8123
v -0.7654 0.0975 -3.8478
v -0.7684 0 -3.8632
v -0.7654 -0.0975 -3.8478
v -0.3605 -0.3827 -1.8123
v -0.3244 -0.5556 -1.631
v -0.2759 -0.7071 -1.387
v -0.2168 -0.8315 -1.0898
v -0.1493 -0.9739 -0.7507
v -0.0761 -1.0308 -0.3827
v 0 0.8808 -0.1951
v 0 0.8239 -0.4951
v 0 0.7315 -0.8334
v 0 0.6071 -1.0607
v 0 0.5556 -1.6629
v 0 0.3827 -1.8478
v 0 0.0975 -3.9231
v 0 0 -3.9388
v 0 -0.0975 -3.9231
v 0 -0.3827 -1.8478
v 0 -0.5556 -1.6629
v 0 -0.7071 -1.4142
v 0 -0.8315 -1.1111
v 0 -0.9739 -0.7654
v 0 -1.0308 -0.3902
v 0.0381 0.8808 -0.1913
v 0.0966 0.8239 -0.4856
v 0.1626 0.7315 -0.8173
v 0.2069 0.6071 -1.0403
v 0.3244 0.5556 -1.631
v 0.3605 0.3827 -1.8123
v 0.7654 0.0975 -3.8478
v 0.7684 0 -3.8632
v 0.7654 -0.0975 -3.8478
v 0.3605 -0.3827 -1.8123
v 0.3244 -0.5556 -1.631
v 0.2759 -0.7071 -1.387
v 0.2168 -0.8315 -1.0898
v 0.1493 -0.9739 -0.7507
v 0.0761 -1.0308 -0.3827
v 0.0747 0.8808 -0.1802
v 0.1895 0.8239 -0.4574
v 0.3189 0.7315 -0.7699
v 0.4059 0.6071 -0.9799
v 0.6364 0.5556 -1.5364
v 0.7071 0.3827 -1.7071
v 1.5013 0.0975 -3.6245
v 1.5073 0 -3.639
v 1.5013 -0.0975 -3.6245
v 0.7071 -0.3827 -1.7071
v 0.6364 -0.5556 -1.5364
v 0.5412 -0.7071 -1.3066
v 0.4252 -0.8315 -1.0266
v 0.2929 -0.9739 -0.7071
v 0.1493 -1.0308 -0.3605
v 0.1084 0.8808 -0.1622
v 0.2751 0.8239 -0.4117
v 0.463 0.7315 -0.6929
v 0.5893 0.6071 -0.8819
v 0.9239 0.5556 -1.3827
v 1.0266 0.3827 -1.5364
v 2.1796 0.0975 -3.262
v 2.1883 0 -3.275
v 2.1796 -0.0975 -3.262
v 1.0266 -0.3827 -1.5364
v 0.9239 -0.5556 -1.3827
v 0.7857 -0.7071 -1.1759
v 0.6173 -0.8315 -0.9239
v 0.4252 -0.9739 -0.6364
v 0.2168 -1.0308 -0.3244
v 0.1379 0.8808 -0.1379
v 0.3501 0.8239 -0.3501
v 0.5893 0.7315 -0.5893
v 0.75 0.6071 -0.75
v 1.1759 0.5556 -1.1759
v 1.3066 0.3827 -1.3066
v 2.7741 0.0975 -2.7741
v 2.7852 0 -2.7852
v 2.7741 -0.0975 -2.7741
v 1.3066 -0.3827 -1.3066
v 1.1759 -0.5556 -1.1759
v 1 -0.7071 -1
v 0.7857 -0.8315 -0.7857
v 0.5412 -0.9739 -0.5412
v 0.2759 -1.0308 -0.2759
v 0.1622 0.8808 -0.1084
v 0.4117 0.8239 -0.2751
v 0.6929 0.7315 -0.463
v 0.8819 0.6071 -0.5893
v 1.3827 0.5556 -0.9239
v 1.5364 0.3827 -1.0266
v 3.262 0.0975 -2.1796
v 3.275 0 -2.1883
v 3.262 -0.0975 -2.1796
v 1.5364 -0.3827 -1.0266
v 1.3827 -0.5556 -0.9239
v 1.1759 -0.7071 -0.7857
v 0.9239 -0.8315 -0.6173
v 0.6364 -0.9739 -0.4252
v 0.3244 -1.0308 -0.2168
v 0.1802 0.8808 -0.0747
v 0.4574 0.8239 -0.1895
v 0.7699 0.7315 -0.3189
v 0.9799 0.6071 -0.4059
v 1.5364 0.5556 -0.6364
v 1.7071 0.3827 -0.7071
v 3.6245 0.0975 -1.5013
v 3.639 0 -1.5073
v 3.6245 -0.0975 -1.5013
v 1.7071 -0.3827 -0.7071
v 1.5364 -0.5556 -0.6364
v 1.3066 -0.7071 -0.5412
v 1.0266 -0.8315 -0.4252
v 0.7071 -0.9739 -0.2929
v 0.3605 -1.0308 -0.1493
v 0.1913 0.8808 -0.0381
v 0.4856 0.8239 -0.0966
v 0.8173 0.7315 -0.1626
v 1.0403 0.6071 -0.2069
v 1.631 0.5556 -0.3244
v 1.8123 0.3827 -0.3605
v 3.8478 0.0975 -0.7654
v 3.8632 0 -0.7684
v 3.8478 -0.0975 -0.7654
v 1.8123 -0.3827 -0.3605
v 1.631 -0.5556 -0.3244
v 1.387 -0.7071 -0.2759
v 1.0898 -0.8315 -0.2168
v 0.7507 -0.9739 -0.1493
v 0.3827 -1.0308 -0.0761
v 0.1951 0.8808 0
v 0.4951 0.8239 0
v 0.8334 0.7315 0
v 1.0607 0.6071 0
v 1.6629 0.5556 0
v 1.8478 0.3827 0
v 3.9231 0.0975 0
v 3.9388 0 0
v 3.9231 -0.0975 0
v 1.8478 -0.3827 0
v 1.6629 -0.5556 0
v 1.4142 -0.7071 0
v 1.1111 -0.8315 0
v 0.7654 -0.9739 0
v 0.3902 -1.0308 0
v 0.1913 0.8808 0.0381
v 0.4856 0.8239 0.0966
v 0.8173 0.7315 0.1626
v 1.0403 0.6071 0.2069
v 1.631 0.5556 0.3244
v 1.8123 0.3827 0.3605
v 3.8478 0.0975 0.7654
v 3.8632 0 0.7684
v 3.8478 -0.0975 0.7654
v 1.8123 -0.3827 0.3605
v 1.631 -0.5556 0.3244
v 1.387 -0.7071 0.2759
v 1.0898 -0.8315 0.2168
v 0.7507 -0.9739 0.1493
v 0.3827 -1.0308 0.0761
v 0.1802 0.8808 0.0747
v 0.4574 0.8239 0.1895
v 0.7699 0.7315 0.3189
v 0.9799 0.6071 0.4059
v 1.5364 0.5556 0.6364
v 1.7071 0.3827 0.7071
v 3.6245 0.0975 1.5013
v 3.639 0 1.5073
v 3.6245 -0.0975 1.5013
v 1.7071 -0.3827 0.7071
v 1.5364 -0.5556 0.6364
v 1.3066 -0.7071 0.5412
v 1.0266 -0.8315 0.4252
v 0.7071 -0.9739 0.2929
v 0.3605 -1.0308 0.1493
v 0.1622 0.8808 0.1084
v 0.4117 0.8239 0.2751
v 0.6929 0.7315 0.463
v 0.8819 0.6071 0.5893
v 1.3827 0.5556 0.9239
v 1.5364 0.3827 1.0266
v 3.262 0.0975 2.1796
v 3.275 0 2.1883
v 3.262 -0.0975 2.1796
v 1.5364 -0.3827 1.0266
v 1.3827 -0.5556 0.9239
v 1.1759 -0.7071 0.7857
v 0.9239 -0.8315 0.6173
v 0.6364 -0.9739 0.4252
v 0.3244 -1.0308 0.2168
v 0.1379 0.8808 0.1379
v 0.3501 0.8239 0.3501
v 0.5893 0.7315 0.5893
v 0.75 0.6071 0.75
v 1.1759 0.5556 1.1759
v 1.3066 0.3827 1.3066
v 2.7741 0.0975 2.7741
v 2.7852 0 2.7852
v 2.7741 -0.0975 2.7741
v 1.3066 -0.3827 1.3066
v 1.1759 -0.5556 1.1759
v 1 -0.7071 1
v 0.7857 -0.8315 0.7857
v 0.5412 -0.9739 0.5412
v 0.2759 -1.0308 0.2759
v 0.1084 0.8808 0.1622
v 0.2751 0.8239 0.4117
v 0.463 0.7315 0.6929
v 0.5893 0.6071 0.8819
v 0.9239 0.5556 1.3827
v 1.0266 0.3827 1.5364
v 2.1796 0.0975 3.262
v 2.1883 0 3.275
v 2.1796 -0.0975 3.262
v 1.0266 -0.3827 1.5364
v 0.9239 -0.5556 1.3827
v 0.7857 -0.7071 1.1759
v 0.6173 -0.8315 0.9239
v 0.4252 -0.9739 0.6364
v 0.2168 -1.0308 0.3244
v 0 -1.05 0
v 0.0747 0.8808 0.1802
v 0.1895 0.8239 0.4574
v 0.3189 0.7315 0.7699
v 0.4059 0.6071 0.9799
v 0.6364 0.5556 1.5364
v 0.7071 0.3827 1.7071
v 1.5013 0.0975 3.6245
v 1.5073 0 3.639
v 1.5013 -0.0975 3.6245
v 0.7071 -0.3827 1.7071
v 0.6364 -0.5556 1.5364
v 0.5412 -0.7071 1.3066
v 0.4252 -0.8315 1.0266
v 0.2929 -0.9739 0.7071
v 0.1493 -1.0308 0.3605
v 0.0381 0.8808 0.1913
v 0.0966 0.8239 0.4856
v 0.1626 0.7315 0.8173
v 0.2069 0.6071 1.0403
v 0.3244 0.5556 1.631
v 0.3605 0.3827 1.8123
v 0.7654 0.0975 3.8478
v 0.7684 0 3.8632
v 0.7654 -0.0975 3.8478
v 0.3605 -0.3827 1.8123
v 0.3244 -0.5556 1.631
v 0.2759 -0.7071 1.387
v 0.2168 -0.8315 1.0898
v 0.1493 -0.9739 0.7507
v 0.0761 -1.0308 0.3827
v 0 0.8808 0.1951
v 0 0.8239 0.4951
v 0 0.7315 0.8334
v 0 0.6071 1.0607
v 0 0.5556 1.6629
v 0 0.3827 1.8478
v -0 0.0975 3.9231
v -0 0 3.9388
v -0 -0.0975 3.9231
v 0 -0.3827 1.8478
v 0 -0.5556 1.6629
v 0 -0.7071 1.4142
v 0 -0.8315 1.1111
v 0 -0.9739 0.7654
v 0 -1.0308 0.3902
v -0.0381 0.8808 0.1913
v -0.0966 0.8239 0.4856
v -0.1626 0.7315 0.8173
v -0.2069 0.6071 1.0403
v -0.3244 0.5556 1.631
v -0.3605 0.3827 1.8123
v -0.7654 0.0975 3.8478
v -0.7684 0 3.8632
v -0.7654 -0.0975 3.8478
v -0.3605 -0.3827 1.8123
v -0.3244 -0.5556 1.631
v -0.2759 -0.7071 1.387
v -0.2168 -0.8315 1.0898
v -0.1493 -0.9739 0.7507
v -0.0761 -1.0308 0.3827
v -0.0747 0.8808 0.1802
v -0.1895 0.8239 0.4574
v -0.3189 0.7315 0.7699
v -0.4059 0.6071 0.9799
v -0.6364 0.5556 1.5364
v -0.7071 0.3827 1.7071
v -1.5013 0.0975 3.6245
v -1.5073 0 3.639
v -1.5013 -0.0975 3.6245
v -0.7071 -0.3827 1.7071
v -0.6364 -0.5556 1.5364
v -0.5412 -0.7071 1.3066
v -0.4252 -0.8315 1.0266
v -0.2929 -0.9739 0.7071
v -0.1493 -1.0308 0.3605
v -0.1084 0.8808 0.1622
v -0.2751 0.8239 0.4117
v -0.463 0.7315 0.6929
v -0.5893 0.6071 0.8819
v -0.9239 0.5556 1.3827
v -1.0266 0.3827 1.5364
v -2.1796 0.0975 3.262
v -2.1883 0 3.275
v -2.1796 -0.0975 3.262
v -1.0266 -0.3827 1.5364
v -0.9239 -0.5556 1.3827
v -0.7857 -0.7071 1.1759
v -0.6173 -0.8315 0.9239
v -0.4252 -0.9739 0.6364
v -0.2168 -1.0308 0.3244
v -0.1379 0.8808 0.1379
v -0.3501 0.8239 0.3501
v -0.5893 0.7315 0.5893
v -0.75 0.6071 0.75
v -1.1759 0.5556 1.1759
v -1.3066 0.3827 1.3066
v -2.7741 0.0975 2.7741
v -2.7852 0 2.7852
v -2.7741 -0.0975 2.7741
v -1.3066 -0.3827 1.3066
v -1.1759 -0.5556 1.1759
v -1 -0.7071 1
v -0.7857 -0.8315 0.7857
v -0.5412 -0.9739 0.5412
v -0.2759 -1.0308 0.2759
v -0.1622 0.8808 0.1084
v -0.4117 0.8239 0.2751
v -0.6929 0.7315 0.463
v -0.8819 0.6071 0.5893
v -1.3827 0.5556 0.9239
v -1.5364 0.3827 1.0266
v -3.262 0.0975 2.1796
v -3.275 0 2.1883
v -3.262 -0.0975 2.1796
v -1.5364 -0.3827 1.0266
v -1.3827 -0.5556 0.9239
v -1.1759 -0.7071 0.7857
v -0.9239 -0.8315 0.6173
v -0.6364 -0.9739 0.4252
v -0.3244 -1.0308 0.2168
v 0 0.8945 0
v -0.1802 0.8808 0.0747
v -0.4574 0.8239 0.1895
v -0.7699 0.7315 0.3189
v -0.9799 0.6071 0.4059
v -1.5364 0.5556 0.6364
v -1.7071 0.3827 0.7071
v -3.6245 0.0975 1.5013
v -3.639 0 1.5073
v -3.6245 -0.0975 1.5013
v -1.7071 -0.3827 0.7071
v -1.5364 -0.5556 0.6364
v -1.3066 -0.7071 0.5412
v -1.0266 -0.8315 0.4252
v -0.7071 -0.9739 0.2929
v -0.3605 -1.0308 0.1493
v -0.1913 0.8808 0.0381
v -0.4856 0.8239 0.0966
v -0.8173 0.7315 0.1626
v -1.0403 0.6071 0.2069
v -1.631 0.5556 0.3244
v -1.8123 0.3827 0.3605
v -3.8478 0.0975 0.7654
v -3.8631 0 0.7684
v -3.8478 -0.0975 0.7654
v -1.8123 -0.3827 0.3605
v -1.631 -0.5556 0.3244
v -1.387 -0.7071 0.2759
v -1.0898 -0.8315 0.2168
v -0.7507 -0.9739 0.1493
v -0.3827 -1.0308 0.0761
v -1.8735 0.3791 0
v -1.8375 0.3791 -0.3655
v -1.7309 0.3791 -0.717
v -1.5578 0.3791 -1.0409
v -1.3248 0.3791 -1.3248
v -1.0409 0.3791 -1.5578
v -0.717 0.3791 -1.7309
v -0.3655 0.3791 -1.8375
v 0 0.3791 -1.8735
v 0.3655 0.3791 -1.8375
v 0.717 0.3791 -1.7309
v 1.0409 0.3791 -1.5578
v 1.3248 0.3791 -1.3248
v 1.5578 0.3791 -1.0409
v 1.7309 0.3791 -0.717
v 1.8375 0.3791 -0.3655
v 1.8735 0.3791 0
v 1.8375 0.3791 0.3655
v 1.7309 0.3791 0.717
v 1.5578 0.3791 1.0409
v 1.3248 0.3791 1.3248
v 1.0409 0.3791 1.5578
v 0.717 0.3791 1.7309
v 0.3655 0.3791 1.8375
v 0 0.3791 1.8735
v -0.3655 0.3791 1.8375
v -0.717 0.3791 1.7309
v -1.0409 0.3791 1.5578
v -1.3248 0.3791 1.3248
v -1.5578 0.3791 1.0409
v -1.7309 0.3791 0.717
v -1.8375 0.3791 0.3655
v 1.647 0.5403 -0.3276
v 1.5514 0.5403 -0.6426
v 1.3962 0.5403 -0.9329
v 1.1874 0.5403 -1.1874
v -0.9329 0.5403 1.3962
v -0.6426 0.5403 1.5514
v -0.3276 0.5403 1.647
v 0 0.5403 1.6792
v 1.3962 0.5403 0.9329
v 1.5514 0.5403 0.6426
v 1.647 0.5403 0.3276
v 1.6792 0.5403 0
v 0.9329 0.5403 -1.3962
v 0.6426 0.5403 -1.5514
v 0.3276 0.5403 -1.647
v 0 0.5403 -1.6792
v -1.3962 0.5403 -0.9329
v -1.5514 0.5403 -0.6426
v -1.647 0.5403 -0.3276
v -1.6792 0.5403 0
v 0.3276 0.5403 1.647
v 0.6426 0.5403 1.5514
v 0.9329 0.5403 1.3962
v 1.1874 0.5403 1.1874
v -0.3276 0.5403 -1.647
v -0.6426 0.5403 -1.5514
v -0.9329 0.5403 -1.3962
v -1.1874 0.5403 -1.1874
v -1.647 0.5403 0.3276
v -1.5514 0.5403 0.6426
v -1.3962 0.5403 0.9329
v -1.1874 0.5403 1.1874
v -1.0844 0.6051 0
v -1.0636 0.6051 -0.2116
v -1.0019 0.6051 -0.415
v -0.9017 0.6051 -0.6025
v -0.7668 0.6051 -0.7668
v -0.6025 0.6051 -0.9017
v -0.415 0.6051 -1.0019
v -0.2116 0.6051 -1.0636
v 0 0.6051 -1.0844
v 0.2116 0.6051 -1.0636
v 0.415 0.6051 -1.0019
v 0.6025 0.6051 -0.9017
v 0.7668 0.6051 -0.7668
v 0.9017 0.6051 -0.6025
v 1.0019 0.6051 -0.415
v 1.0636 0.6051 -0.2116
v 1.0844 0.6051 0
v 1.0636 0.6051 0.2116
v 1.0019 0.6051 0.415
v 0.9017 0.6051 0.6025
v 0.7668 0.6051 0.7668
v 0.6025 0.6051 0.9017
v 0.415 0.6051 1.0019
v 0.2116 0.6051 1.0636
v 0 0.6051 1.0844
v -0.2116 0.6051 1.0636
v -0.415 0.6051 1.0019
v -0.6025 0.6051 0.9017
v -0.7668 0.6051 0.7668
v -0.9017 0.6051 0.6025
v -1.0019 0.6051 0.415
v -1.0636 0.6051 0.2116
v -0.357 0.3992 -1.7949
v -0.7003 0.3992 -1.6908
v -1.0167 0.3992 -1.5217
v -1.2941 0.3992 -1.2941
v -1.1527 0.5584 1.1527
v -1.3554 0.5584 0.9057
v -1.506 0.5584 0.6238
v -1.5988 0.5584 0.318
v 0.45 0.7362 -0.6735
v 0.31 0.7362 -0.7484
v 0.158 0.7362 -0.7945
v 0 0.7362 -0.81
v -0.47 0.7246 0.7034
v -0.3237 0.7246 0.7816
v -0.165 0.7246 0.8297
v 0 0.7246 0.8459
v 0.165 0.7246 0.8297
v 0.3237 0.7246 0.7816
v 0.47 0.7246 0.7034
v 0.5982 0.7246 0.5982
v -0.737 0.6171 -0.737
v -0.5791 0.6171 -0.8667
v -0.3989 0.6171 -0.963
v -0.2034 0.6171 -1.0223
v -1.6301 0.5584 0
v -1.5988 0.5584 -0.318
v -1.5061 0.5584 -0.6238
v -1.3554 0.5584 -0.9057
v -0.165 0.7246 -0.8297
v -0.3237 0.7246 -0.7816
v -0.47 0.7246 -0.7034
v -0.5982 0.7246 -0.5982
v 1.1527 0.5584 -1.1527
v 1.3554 0.5584 -0.9057
v 1.5061 0.5584 -0.6238
v 1.5988 0.5584 -0.318
v 0.8297 0.7246 -0.165
v 0.7816 0.7246 -0.3237
v 0.7034 0.7246 -0.47
v 0.5982 0.7246 -0.5982
v 0.7945 0.7362 -0.158
v 0.7484 0.7362 -0.31
v 0.6735 0.7362 -0.45
v 0.5728 0.7362 -0.5728
v -0.158 0.7362 -0.7945
v -0.31 0.7362 -0.7484
v -0.45 0.7362 -0.6735
v -0.5728 0.7362 -0.5728
v -0.45 0.7362 0.6735
v -0.31 0.7362 0.7484
v -0.158 0.7362 0.7945
v 0 0.7362 0.81
v 1.7949 0.3992 -0.357
v 1.6908 0.3992 -0.7003
v 1.5217 0.3992 -1.0167
v 1.2941 0.3992 -1.2941
v -1.0423 0.6171 0
v -1.0223 0.6171 -0.2034
v -0.963 0.6171 -0.3989
v -0.8667 0.6171 -0.5791
v -1.1527 0.5584 -1.1527
v -0.9057 0.5584 -1.3554
v -0.6238 0.5584 -1.5061
v -0.318 0.5584 -1.5988
v -0.7034 0.7246 -0.47
v -0.7816 0.7246 -0.3237
v -0.8297 0.7246 -0.165
v -0.8459 0.7246 0
v 0.6735 0.7362 0.45
v 0.7484 0.7362 0.31
v 0.7945 0.7362 0.158
v 0.81 0.7362 0
v -1.7949 0.3992 0.357
v -1.6908 0.3992 0.7003
v -1.5217 0.3992 1.0167
v -1.2941 0.3992 1.2941
v 0.7034 0.7246 0.47
v 0.7816 0.7246 0.3237
v 0.8297 0.7246 0.165
v 0.8459 0.7246 0
v 0 0.5584 -1.6301
v 0.318 0.5584 -1.5988
v 0.6238 0.5584 -1.506
v 0.9057 0.5584 -1.3554
v 1.0167 0.3992 -1.5217
v 0.7003 0.3992 -1.6908
v 0.357 0.3992 -1.7949
v 0 0.3992 -1.8301
v 0.737 0.6171 0.737
v 0.5791 0.6171 0.8667
v 0.3989 0.6171 0.963
v 0.2034 0.6171 1.0223
v 1.0423 0.6171 0
v 1.0223 0.6171 0.2034
v 0.963 0.6171 0.3989
v 0.8667 0.6171 0.5791
v 1.6301 0.5584 0
v 1.5988 0.5584 0.318
v 1.506 0.5584 0.6238
v 1.3554 0.5584 0.9057
v 0.47 0.7246 -0.7034
v 0.3237 0.7246 -0.7816
v 0.165 0.7246 -0.8297
v 0 0.7246 -0.8459
v 0.158 0.7362 0.7945
v 0.31 0.7362 0.7484
v 0.45 0.7362 0.6735
v 0.5728 0.7362 0.5728
v -0.8297 0.7246 0.165
v -0.7816 0.7246 0.3237
v -0.7034 0.7246 0.47
v -0.5982 0.7246 0.5982
v 1.0223 0.6171 -0.2034
v 0.963 0.6171 -0.3989
v 0.8667 0.6171 -0.5791
v 0.737 0.6171 -0.737
v 0.5791 0.6171 -0.8667
v 0.3989 0.6171 -0.963
v 0.2034 0.6171 -1.0223
v 0 0.6171 -1.0423
v -0.5791 0.6171 0.8667
v -0.3989 0.6171 0.963
v -0.2034 0.6171 1.0223
v 0 0.6171 1.0423
v -1.0223 0.6171 0.2034
v -0.963 0.6171 0.3989
v -0.8667 0.6171 0.5791
v -0.737 0.6171 0.737
v -0.5728 0.7362 0.5728
v -0.6735 0.7362 0.45
v -0.7484 0.7362 0.31
v -0.7945 0.7362 0.158
v 0.318 0.5584 1.5988
v 0.6238 0.5584 1.506
v 0.9057 0.5584 1.3554
v 1.1527 0.5584 1.1527
v -0.6735 0.7362 -0.45
v -0.7484 0.7362 -0.31
v -0.7945 0.7362 -0.158
v -0.81 0.7362 0
v 0 0.5584 1.6301
v -0.318 0.5584 1.5988
v -0.6238 0.5584 1.506
v -0.9057 0.5584 1.3554
v -1.0167 0.3992 1.5217
v -0.7003 0.3992 1.6908
v -0.357 0.3992 1.7949
v 0 0.3992 1.8301
v 0.357 0.3992 1.7949
v 0.7003 0.3992 1.6908
v 1.0167 0.3992 1.5217
v 1.2941 0.3992 1.2941
v -1.8301 0.3992 0
v -1.7949 0.3992 -0.357
v -1.6908 0.3992 -0.7003
v -1.5217 0.3992 -1.0167
v 1.5217 0.3992 1.0167
v 1.6908 0.3992 0.7003
v 1.7949 0.3992 0.357
v 1.8301 0.3992 0
v -1.8271 -0.402 0
v -1.792 -0.402 -0.3565
v -1.688 -0.402 -0.6992
v -1.5192 -0.402 -1.0151
v -1.292 -0.402 -1.292
v -1.0151 -0.402 -1.5192
v -0.6992 -0.402 -1.688
v -0.3565 -0.402 -1.792
v 0 -0.402 -1.8271
v 0.3565 -0.402 -1.792
v 0.6992 -0.402 -1.688
v 1.0151 -0.402 -1.5192
v 1.292 -0.402 -1.292
v 1.5192 -0.402 -1.0151
v 1.688 -0.402 -0.6992
v 1.792 -0.402 -0.3565
v 1.8271 -0.402 0
v 1.792 -0.402 0.3565
v 1.688 -0.402 0.6992
v 1.5192 -0.402 1.0151
v 1.292 -0.402 1.292
v 1.0151 -0.402 1.5192
v 0.6992 -0.402 1.688
v 0.3565 -0.402 1.792
v 0 -0.402 1.8271
v -0.3565 -0.402 1.792
v -0.6992 -0.402 1.688
v -1.0151 -0.402 1.5192
v -1.292 -0.402 1.292
v -1.5192 -0.402 1.0151
v -1.688 -0.402 0.6992
v -1.792 -0.402 0.3565
v -1.8898 -0.3769 0
v -1.8535 -0.3769 -0.3687
v -1.746 -0.3769 -0.7232
v -1.5713 -0.3769 -1.0499
v -1.3363 -0.3769 -1.3363
v -1.0499 -0.3769 -1.5713
v -0.7232 -0.3769 -1.746
v -0.3687 -0.3769 -1.8535
v 0 -0.3769 -1.8898
v 0.3687 -0.3769 -1.8535
v 0.7232 -0.3769 -1.746
v 1.0499 -0.3769 -1.5713
v 1.3363 -0.3769 -1.3363
v 1.5713 -0.3769 -1.0499
v 1.746 -0.3769 -0.7232
v 1.8535 -0.3769 -0.3687
v 1.8898 -0.3769 0
v 1.8535 -0.3769 0.3687
v 1.746 -0.3769 0.7232
v 1.5713 -0.3769 1.0499
v 1.3363 -0.3769 1.3363
v 1.0499 -0.3769 1.5713
v 0.7232 -0.3769 1.746
v 0.3687 -0.3769 1.8535
v 0 -0.3769 1.8898
v -0.3687 -0.3769 1.8535
v -0.7232 -0.3769 1.746
v -1.0499 -0.3769 1.5713
v -1.3363 -0.3769 1.3363
v -1.5713 -0.3769 1.0499
v -1.746 -0.3769 0.7232
v -1.8535 -0.3769 0.3687
v -3.8698 0.1049 0
v -3.7954 0.1049 -0.755
v -3.5752 0.1049 -1.4809
v -3.2176 0.1049 -2.1499
v -2.7363 0.1049 -2.7363
v -2.1499 0.1049 -3.2176
v -1.4809 0.1049 -3.5752
v -0.755 0.1049 -3.7954
v 0 0.1049 -3.8698
v 0.755 0.1049 -3.7954
v 1.4809 0.1049 -3.5752
v 2.1499 0.1049 -3.2176
v 2.7363 0.1049 -2.7363
v 3.2176 0.1049 -2.1499
v 3.5752 0.1049 -1.4809
v 3.7954 0.1049 -0.755
v 3.8698 0.1049 0
v 3.7954 0.1049 0.755
v 3.5752 0.1049 1.4809
v 3.2176 0.1049 2.1499
v 2.7363 0.1049 2.7363
v 2.1499 0.1049 3.2176
v 1.4809 0.1049 3.5752
v 0.755 0.1049 3.7954
v -0 0.1049 3.8698
v -0.755 0.1049 3.7954
v -1.4809 0.1049 3.5752
v -2.1499 0.1049 3.2176
v -2.7363 0.1049 2.7363
v -3.2176 0.1049 2.1499
v -3.5752 0.1049 1.4809
v -3.7954 0.1049 0.755
v 2.1354 -0.1085 -3.1958
v 1.4709 -0.1085 -3.551
v 0.7498 -0.1085 -3.7697
v 0 -0.1085 -3.8436
v -3.7697 -0.1085 0.7498
v -3.551 -0.1085 1.4709
v -3.1958 -0.1085 2.1354
v -2.7178 -0.1085 2.7178
v -2.1354 -0.1085 3.1958
v -1.4709 -0.1085 3.551
v -0.7498 -0.1085 3.7697
v -0 -0.1085 3.8436
v -0.7498 -0.1085 -3.7697
v -1.4709 -0.1085 -3.551
v -2.1354 -0.1085 -3.1958
v -2.7178 -0.1085 -2.7178
v -3.1958 -0.1085 -2.1354
v -3.551 -0.1085 -1.4709
v -3.7697 -0.1085 -0.7498
v -3.8436 -0.1085 0
v 0.7498 -0.1085 3.7697
v 1.4709 -0.1085 3.551
v 2.1354 -0.1085 3.1958
v 2.7178 -0.1085 2.7178
v 3.7697 -0.1085 -0.7498
v 3.551 -0.1085 -1.4709
v 3.1958 -0.1085 -2.1354
v 2.7178 -0.1085 -2.7178
v 3.1958 -0.1085 2.1354
v 3.551 -0.1085 1.4709
v 3.7697 -0.1085 0.7498
v 3.8436 -0.1085 0
vt 0.5767 0.278
vt 0.5879 0.2802
vt 0.5857 0.3027
vt 0.5743 0.3027
vt 0.1565 0.7441
vt 0.1553 0.7444
vt 0.1528 0.7195
vt 0.1541 0.7195
vt 0.6047 0.2836
vt 0.6029 0.3027
vt 0.0187 0.7716
vt 0.0151 0.7723
vt 0.0099 0.7195
vt 0.0135 0.7195
vt 0.246 0.7195
vt 0.2667 0.7195
vt 0.2669 0.7222
vt 0.2467 0.7262
vt 0.6253 0.2877
vt 0.6238 0.3027
vt 0.014 0.7725
vt 0.0088 0.7195
vt 0.2254 0.7304
vt 0.2238 0.7307
vt 0.2227 0.7195
vt 0.2243 0.7195
vt 0.6488 0.2924
vt 0.6477 0.3027
vt 0.4335 0.2495
vt 0.4346 0.2498
vt 0.4294 0.3027
vt 0.4283 0.3027
vt 0.2097 0.7336
vt 0.2085 0.7338
vt 0.2071 0.7195
vt 0.2083 0.7195
vt 0.6742 0.2974
vt 0.6737 0.3027
vt 0.5725 0.2772
vt 0.5753 0.2777
vt 0.5729 0.3027
vt 0.57 0.3027
vt 0.17 0.7415
vt 0.1678 0.7419
vt 0.1656 0.7195
vt 0.1678 0.7195
vt 0.5839 0.2543
vt 0.5944 0.2587
vt 0.1637 0.7678
vt 0.1625 0.7683
vt 0.6103 0.2653
vt 0.0338 0.8216
vt 0.0304 0.823
vt 0.2677 0.7247
vt 0.2486 0.7326
vt 0.6297 0.2733
vt 0.0294 0.8234
vt 0.2286 0.7409
vt 0.2271 0.7415
vt 0.6518 0.2824
vt 0.449 0.1984
vt 0.45 0.1989
vt 0.2138 0.747
vt 0.2126 0.7475
vt 0.6757 0.2924
vt 0.5799 0.2527
vt 0.5826 0.2538
vt 0.1764 0.7625
vt 0.1743 0.7634
vt 0.2204 0.7594
vt 0.2194 0.7601
vt 0.6567 0.2733
vt 0.6782 0.2877
vt 0.592 0.2301
vt 0.5944 0.2317
vt 0.1868 0.7819
vt 0.1849 0.7832
vt 0.5956 0.2325
vt 0.605 0.2388
vt 0.1753 0.7896
vt 0.1743 0.7903
vt 0.6193 0.2483
vt 0.0585 0.8677
vt 0.0554 0.8697
vt 0.269 0.727
vt 0.2518 0.7385
vt 0.6368 0.26
vt 0.0545 0.8703
vt 0.2337 0.7505
vt 0.2324 0.7514
vt 0.4742 0.1514
vt 0.4751 0.152
vt 0.089 0.9106
vt 0.0883 0.9114
vt 0.2407 0.759
vt 0.2395 0.7601
vt 0.6463 0.2483
vt 0.6632 0.2653
vt 0.5081 0.1101
vt 0.5088 0.1109
vt 0.2294 0.7703
vt 0.2285 0.7712
vt 0.6816 0.2836
vt 0.6083 0.2103
vt 0.6103 0.2123
vt 0.2007 0.799
vt 0.1991 0.8005
vt 0.6113 0.2133
vt 0.6193 0.2214
vt 0.191 0.8087
vt 0.1901 0.8096
vt 0.6315 0.2335
vt 0.0916 0.908
vt 0.2706 0.7291
vt 0.256 0.7437
vt 0.6368 0.2071
vt 0.6463 0.2214
vt 0.132 0.9412
vt 0.13 0.9443
vt 0.2727 0.7307
vt 0.2612 0.7479
vt 0.658 0.2388
vt 0.1294 0.9452
vt 0.2491 0.7659
vt 0.2482 0.7673
vt 0.6713 0.2587
vt 0.5493 0.0762
vt 0.5499 0.0771
vt 0.2402 0.7793
vt 0.2395 0.7803
vt 0.6857 0.2802
vt 0.6281 0.194
vt 0.6297 0.1964
vt 0.2177 0.8129
vt 0.2165 0.8148
vt 0.6305 0.1976
vt 0.2101 0.8244
vt 0.2094 0.8254
vt 0.6523 0.186
vt 0.6567 0.1964
vt 0.2319 0.836
vt 0.2314 0.8371
vt 0.6632 0.2123
vt 0.1781 0.9658
vt 0.1767 0.9692
vt 0.275 0.732
vt 0.2671 0.7511
vt 0.6713 0.2317
vt 0.1763 0.9702
vt 0.2588 0.7711
vt 0.2582 0.7726
vt 0.6804 0.2538
vt 0.5964 0.051
vt 0.5968 0.0521
vt 0.2526 0.7859
vt 0.2522 0.7871
vt 0.6903 0.2777
vt 0.6506 0.1819
vt 0.6518 0.1846
vt 0.2372 0.8233
vt 0.2363 0.8254
vt 0.2661 0.79
vt 0.2659 0.7912
vt 0.6903 0.2508
vt 0.6954 0.2762
vt 0.6752 0.1745
vt 0.6757 0.1774
vt 0.2582 0.8297
vt 0.2578 0.8319
vt 0.676 0.1788
vt 0.6782 0.1899
vt 0.2555 0.8432
vt 0.2553 0.8444
vt 0.6816 0.2068
vt 0.2281 0.981
vt 0.2274 0.9846
vt 0.2775 0.7327
vt 0.2735 0.753
vt 0.6857 0.2273
vt 0.2272 0.9857
vt 0.2692 0.7743
vt 0.2689 0.7759
vt 0.6475 0.0355
vt 0.6477 0.0366
vt 0.2801 0.9898
vt 0.2801 0.9909
vt 0.2801 0.7753
vt 0.2801 0.777
vt 0.7007 0.2258
vt 0.7007 0.2498
vt 0.7007 0.0303
vt 0.7007 0.0314
vt 0.2801 0.7914
vt 0.2801 0.7926
vt 0.7007 0.2757
vt 0.7007 0.172
vt 0.7007 0.1749
vt 0.2801 0.8318
vt 0.2801 0.8341
vt 0.7007 0.1763
vt 0.7007 0.1877
vt 0.2801 0.8456
vt 0.2801 0.8468
vt 0.7007 0.2049
vt 0.2801 0.9861
vt 0.2801 0.733
vt 0.2801 0.7537
vt 0.7231 0.1899
vt 0.7197 0.2068
vt 0.3321 0.981
vt 0.3328 0.9846
vt 0.2827 0.7327
vt 0.2868 0.753
vt 0.7156 0.2273
vt 0.3331 0.9857
vt 0.291 0.7743
vt 0.2913 0.7759
vt 0.711 0.2508
vt 0.7538 0.0355
vt 0.7536 0.0366
vt 0.2941 0.79
vt 0.2944 0.7912
vt 0.7059 0.2762
vt 0.7261 0.1745
vt 0.7256 0.1774
vt 0.302 0.8297
vt 0.3025 0.8319
vt 0.7253 0.1788
vt 0.3047 0.8432
vt 0.305 0.8444
vt 0.749 0.186
vt 0.7447 0.1964
vt 0.3284 0.836
vt 0.3288 0.8371
vt 0.7381 0.2123
vt 0.3821 0.9658
vt 0.3835 0.9692
vt 0.2853 0.732
vt 0.2932 0.7511
vt 0.7301 0.2317
vt 0.384 0.9702
vt 0.3015 0.7711
vt 0.3021 0.7726
vt 0.7209 0.2538
vt 0.8049 0.051
vt 0.8045 0.0521
vt 0.3076 0.7859
vt 0.3081 0.7871
vt 0.711 0.2777
vt 0.7507 0.1819
vt 0.7496 0.1846
vt 0.3231 0.8233
vt 0.324 0.8254
vt 0.7301 0.2587
vt 0.7156 0.2802
vt 0.7733 0.194
vt 0.7716 0.1964
vt 0.3425 0.8129
vt 0.3438 0.8148
vt 0.7708 0.1976
vt 0.7645 0.2071
vt 0.3502 0.8244
vt 0.3508 0.8254
vt 0.755 0.2214
vt 0.4282 0.9412
vt 0.4303 0.9443
vt 0.2876 0.7307
vt 0.2991 0.7479
vt 0.7433 0.2388
vt 0.4309 0.9452
vt 0.3111 0.7659
vt 0.312 0.7673
vt 0.852 0.0762
vt 0.8514 0.0771
vt 0.32 0.7793
vt 0.3207 0.7803
vt 0.3196 0.759
vt 0.3207 0.7601
vt 0.755 0.2483
vt 0.7381 0.2653
vt 0.8932 0.1101
vt 0.8925 0.1109
vt 0.3309 0.7703
vt 0.3318 0.7712
vt 0.7197 0.2836
vt 0.7931 0.2103
vt 0.791 0.2123
vt 0.3595 0.799
vt 0.3611 0.8005
vt 0.79 0.2133
vt 0.782 0.2214
vt 0.3693 0.8087
vt 0.3701 0.8096
vt 0.7698 0.2335
vt 0.4686 0.908
vt 0.4712 0.9106
vt 0.2896 0.7291
vt 0.3042 0.7437
vt 0.472 0.9114
vt 0.5018 0.8677
vt 0.5048 0.8697
vt 0.2913 0.727
vt 0.3085 0.7385
vt 0.782 0.2483
vt 0.7645 0.26
vt 0.5057 0.8703
vt 0.3265 0.7505
vt 0.3279 0.7514
vt 0.7447 0.2733
vt 0.9271 0.1514
vt 0.9262 0.152
vt 0.3398 0.7594
vt 0.3409 0.7601
vt 0.7231 0.2877
vt 0.8093 0.2301
vt 0.8069 0.2317
vt 0.3735 0.7819
vt 0.3754 0.7832
vt 0.8057 0.2325
vt 0.7963 0.2388
vt 0.3849 0.7896
vt 0.386 0.7903
vt 0.8174 0.2543
vt 0.8069 0.2587
vt 0.3966 0.7678
vt 0.3977 0.7683
vt 0.791 0.2653
vt 0.5264 0.8216
vt 0.5298 0.823
vt 0.2925 0.7247
vt 0.3116 0.7326
vt 0.7716 0.2733
vt 0.5308 0.8234
vt 0.3317 0.7409
vt 0.3332 0.7415
vt 0.7496 0.2824
vt 0.9523 0.1984
vt 0.9513 0.1989
vt 0.3465 0.747
vt 0.3476 0.7475
vt 0.7256 0.2924
vt 0.8214 0.2527
vt 0.8187 0.2538
vt 0.3839 0.7625
vt 0.386 0.7634
vt 0.7526 0.2924
vt 0.7271 0.2974
vt 0.8288 0.2772
vt 0.826 0.2777
vt 0.3903 0.7415
vt 0.3925 0.7419
vt 0.8246 0.278
vt 0.8134 0.2802
vt 0.4038 0.7441
vt 0.405 0.7444
vt 0.7966 0.2836
vt 0.5416 0.7716
vt 0.5452 0.7723
vt 0.2933 0.7222
vt 0.3136 0.7262
vt 0.776 0.2877
vt 0.5462 0.7725
vt 0.3349 0.7304
vt 0.3364 0.7307
vt 0.9678 0.2495
vt 0.9667 0.2498
vt 0.3505 0.7336
vt 0.3518 0.7338
vt 0.3359 0.7195
vt 0.3375 0.7195
vt 0.7775 0.3027
vt 0.7536 0.3027
vt 0.973 0.3027
vt 0.9719 0.3027
vt 0.3519 0.7195
vt 0.3532 0.7195
vt 0.7276 0.3027
vt 0.8313 0.3027
vt 0.8284 0.3027
vt 0.3924 0.7195
vt 0.3947 0.7195
vt 0.827 0.3027
vt 0.8156 0.3027
vt 0.4062 0.7195
vt 0.4074 0.7195
vt 0.7984 0.3027
vt 0.5467 0.7195
vt 0.5504 0.7195
vt 0.2936 0.7195
vt 0.3142 0.7195
vt 0.5515 0.7195
vt 0.5416 0.6675
vt 0.5452 0.6668
vt 0.2933 0.7169
vt 0.3136 0.7129
vt 0.7966 0.3218
vt 0.776 0.3177
vt 0.5462 0.6666
vt 0.3349 0.7087
vt 0.3364 0.7083
vt 0.7526 0.313
vt 0.9678 0.3558
vt 0.9667 0.3556
vt 0.3505 0.7055
vt 0.3518 0.7053
vt 0.7271 0.3079
vt 0.8288 0.3282
vt 0.826 0.3276
vt 0.3903 0.6976
vt 0.3925 0.6972
vt 0.8246 0.3273
vt 0.8134 0.3251
vt 0.4038 0.695
vt 0.405 0.6947
vt 0.8174 0.351
vt 0.8069 0.3467
vt 0.3966 0.6713
vt 0.3977 0.6708
vt 0.791 0.3401
vt 0.5264 0.6175
vt 0.5298 0.6161
vt 0.2925 0.7144
vt 0.3116 0.7065
vt 0.7716 0.3321
vt 0.5308 0.6157
vt 0.3317 0.6982
vt 0.3332 0.6976
vt 0.7496 0.3229
vt 0.9523 0.4069
vt 0.9513 0.4065
vt 0.3465 0.6921
vt 0.3476 0.6916
vt 0.7256 0.313
vt 0.8214 0.3527
vt 0.8187 0.3516
vt 0.3839 0.6766
vt 0.386 0.6757
vt 0.7447 0.3321
vt 0.7231 0.3177
vt 0.8093 0.3753
vt 0.8069 0.3737
vt 0.3735 0.6572
vt 0.3754 0.6559
vt 0.8057 0.3729
vt 0.7963 0.3666
vt 0.3849 0.6495
vt 0.386 0.6488
vt 0.782 0.357
vt 0.5018 0.5714
vt 0.5048 0.5694
vt 0.2913 0.7121
vt 0.3085 0.7006
vt 0.7645 0.3454
vt 0.5057 0.5688
vt 0.3265 0.6885
vt 0.3279 0.6877
vt 0.9271 0.454
vt 0.9262 0.4534
vt 0.3398 0.6797
vt 0.3409 0.679
vt 0.755 0.357
vt 0.7381 0.3401
vt 0.8932 0.4953
vt 0.8925 0.4945
vt 0.3309 0.6688
vt 0.3318 0.6679
vt 0.7197 0.3218
vt 0.7931 0.3951
vt 0.791 0.393
vt 0.3595 0.6401
vt 0.3611 0.6385
vt 0.79 0.392
vt 0.782 0.384
vt 0.3693 0.6304
vt 0.3701 0.6295
vt 0.7698 0.3718
vt 0.4686 0.531
vt 0.4712 0.5284
vt 0.2896 0.71
vt 0.3042 0.6954
vt 0.472 0.5277
vt 0.3196 0.6801
vt 0.3207 0.679
vt 0.2876 0.7084
vt 0.2991 0.6912
vt 0.755 0.384
vt 0.7433 0.3666
vt 0.4303 0.4948
vt 0.4309 0.4939
vt 0.3111 0.6732
vt 0.312 0.6718
vt 0.7301 0.3467
vt 0.852 0.5291
vt 0.8514 0.5282
vt 0.32 0.6598
vt 0.3207 0.6588
vt 0.7156 0.3251
vt 0.7733 0.4113
vt 0.7716 0.4089
vt 0.3425 0.6262
vt 0.3438 0.6243
vt 0.7708 0.4077
vt 0.7645 0.3983
vt 0.3502 0.6147
vt 0.3508 0.6137
vt 0.4282 0.4979
vt 0.3284 0.6031
vt 0.3288 0.6019
vt 0.7447 0.4089
vt 0.7381 0.393
vt 0.3821 0.4733
vt 0.3835 0.4699
vt 0.2853 0.7071
vt 0.2932 0.688
vt 0.7301 0.3737
vt 0.384 0.4689
vt 0.3015 0.668
vt 0.3021 0.6665
vt 0.7209 0.3516
vt 0.8049 0.5543
vt 0.8045 0.5533
vt 0.3076 0.6532
vt 0.3081 0.652
vt 0.711 0.3276
vt 0.7507 0.4234
vt 0.7496 0.4207
vt 0.3231 0.6158
vt 0.324 0.6137
vt 0.749 0.4194
vt 0.7261 0.4308
vt 0.7256 0.428
vt 0.302 0.6094
vt 0.3025 0.6072
vt 0.7253 0.4266
vt 0.7231 0.4155
vt 0.3047 0.5959
vt 0.305 0.5947
vt 0.7197 0.3986
vt 0.3321 0.4581
vt 0.3328 0.4545
vt 0.2827 0.7064
vt 0.2868 0.6861
vt 0.7156 0.378
vt 0.3331 0.4534
vt 0.291 0.6648
vt 0.2913 0.6632
vt 0.711 0.3546
vt 0.7538 0.5698
vt 0.7536 0.5687
vt 0.2941 0.6491
vt 0.2944 0.6479
vt 0.7059 0.3291
vt 0.7007 0.3795
vt 0.7007 0.3556
vt 0.7007 0.575
vt 0.7007 0.5739
vt 0.2801 0.6477
vt 0.2801 0.6465
vt 0.7007 0.3297
vt 0.7007 0.4334
vt 0.7007 0.4304
vt 0.2801 0.6073
vt 0.2801 0.605
vt 0.7007 0.429
vt 0.7007 0.4177
vt 0.2801 0.5935
vt 0.2801 0.5923
vt 0.7007 0.4005
vt 0.2801 0.453
vt 0.2801 0.4493
vt 0.2801 0.7061
vt 0.2801 0.6854
vt 0.2801 0.4482
vt 0.2801 0.6637
vt 0.2801 0.6621
vt 0.2775 0.7064
vt 0.2735 0.6861
vt 0.6816 0.3986
vt 0.6857 0.378
vt 0.2274 0.4545
vt 0.2272 0.4534
vt 0.2692 0.6648
vt 0.2689 0.6632
vt 0.6903 0.3546
vt 0.6475 0.5698
vt 0.6477 0.5687
vt 0.2661 0.6491
vt 0.2659 0.6479
vt 0.6954 0.3291
vt 0.6752 0.4308
vt 0.6757 0.428
vt 0.2582 0.6094
vt 0.2578 0.6072
vt 0.676 0.4266
vt 0.6782 0.4155
vt 0.2555 0.5959
vt 0.2553 0.5947
vt 0.2281 0.4581
vt 0.2319 0.6031
vt 0.2314 0.6019
vt 0.6567 0.4089
vt 0.6632 0.393
vt 0.1781 0.4733
vt 0.1767 0.4699
vt 0.275 0.7071
vt 0.2671 0.688
vt 0.6713 0.3737
vt 0.1763 0.4689
vt 0.2588 0.668
vt 0.2582 0.6665
vt 0.6804 0.3516
vt 0.5964 0.5543
vt 0.5968 0.5533
vt 0.2526 0.6532
vt 0.2522 0.652
vt 0.6903 0.3276
vt 0.6506 0.4234
vt 0.6518 0.4207
vt 0.2372 0.6158
vt 0.2363 0.6137
vt 0.6523 0.4194
vt 0.6281 0.4113
vt 0.6297 0.4089
vt 0.2177 0.6262
vt 0.2165 0.6243
vt 0.6305 0.4077
vt 0.6368 0.3983
vt 0.2101 0.6147
vt 0.2094 0.6137
vt 0.6463 0.384
vt 0.132 0.4979
vt 0.13 0.4948
vt 0.2727 0.7084
vt 0.2612 0.6912
vt 0.658 0.3666
vt 0.1294 0.4939
vt 0.2491 0.6732
vt 0.2482 0.6718
vt 0.6713 0.3467
vt 0.5493 0.5291
vt 0.5499 0.5282
vt 0.2402 0.6598
vt 0.2395 0.6588
vt 0.6857 0.3251
vt 0.6463 0.357
vt 0.6632 0.3401
vt 0.5081 0.4953
vt 0.5088 0.4945
vt 0.2294 0.6688
vt 0.2285 0.6679
vt 0.6816 0.3218
vt 0.6083 0.3951
vt 0.6103 0.393
vt 0.2007 0.6401
vt 0.1991 0.6385
vt 0.6113 0.392
vt 0.6193 0.384
vt 0.191 0.6304
vt 0.1901 0.6295
vt 0.6315 0.3718
vt 0.0916 0.5311
vt 0.089 0.5284
vt 0.2706 0.71
vt 0.256 0.6954
vt 0.0883 0.5277
vt 0.2407 0.6801
vt 0.2395 0.679
vt 0.6193 0.357
vt 0.6368 0.3454
vt 0.0554 0.5694
vt 0.0545 0.5688
vt 0.2337 0.6885
vt 0.2324 0.6877
vt 0.6567 0.3321
vt 0.0096 0.7194
vt 0.2204 0.6797
vt 0.2194 0.679
vt 0.6782 0.3177
vt 0.592 0.3753
vt 0.5944 0.3737
vt 0.1868 0.6572
vt 0.1849 0.6559
vt 0.5956 0.3729
vt 0.605 0.3666
vt 0.1753 0.6495
vt 0.1743 0.6488
vt 0.0585 0.5714
vt 0.269 0.7121
vt 0.2518 0.7006
vt 0.5944 0.3467
vt 0.6103 0.3401
vt 0.0338 0.6175
vt 0.0304 0.6161
vt 0.2677 0.7144
vt 0.2486 0.7065
vt 0.6297 0.3321
vt 0.0294 0.6157
vt 0.2286 0.6982
vt 0.2271 0.6976
vt 0.6518 0.3229
vt 0.2138 0.6921
vt 0.2126 0.6916
vt 0.6757 0.313
vt 0.5799 0.3527
vt 0.5826 0.3516
vt 0.1764 0.6766
vt 0.1743 0.6757
vt 0.5839 0.351
vt 0.1637 0.6713
vt 0.1625 0.6708
vt 0.17 0.6976
vt 0.1678 0.6972
vt 0.5767 0.3273
vt 0.5879 0.3251
vt 0.1565 0.695
vt 0.1553 0.6947
vt 0.6047 0.3218
vt 0.0187 0.6675
vt 0.0151 0.6668
vt 0.2669 0.7169
vt 0.2467 0.7129
vt 0.6253 0.3177
vt 0.014 0.6666
vt 0.2254 0.7087
vt 0.2238 0.7083
vt 0.6488 0.313
vt 0.4335 0.3558
vt 0.4346 0.3556
vt 0.45 0.4065
vt 0.449 0.4069
vt 0.2097 0.7055
vt 0.2085 0.7053
vt 0.6742 0.3079
vt 0.5725 0.3282
vt 0.5753 0.3276
vt 0.7007 0.3027
vt 0.2801 0.7195
vt 0.1535 0.7447
vt 0.1511 0.7195
vt 0.1609 0.7689
vt 0.1728 0.7912
vt 0.1889 0.8108
vt 0.2084 0.8269
vt 0.2307 0.8388
vt 0.2549 0.8461
vt 0.2801 0.8486
vt 0.3053 0.8461
vt 0.3295 0.8388
vt 0.3518 0.8269
vt 0.3714 0.8108
vt 0.3874 0.7912
vt 0.3994 0.7689
vt 0.4067 0.7447
vt 0.4092 0.7195
vt 0.4067 0.6944
vt 0.3994 0.6702
vt 0.3874 0.6478
vt 0.3714 0.6283
vt 0.3518 0.6122
vt 0.3295 0.6003
vt 0.3053 0.593
vt 0.2801 0.5905
vt 0.2549 0.593
vt 0.2307 0.6003
vt 0.2084 0.6122
vt 0.1889 0.6283
vt 0.1728 0.6478
vt 0.1609 0.6702
vt 0.1535 0.6944
vt 0.1983 0.8013
vt 0.1839 0.7838
vt 0.3027 0.833
vt 0.2801 0.8352
vt 0.2359 0.6127
vt 0.2576 0.6061
vt 0.387 0.7638
vt 0.3763 0.7838
vt 0.2801 0.6039
vt 0.1644 0.7195
vt 0.1667 0.697
vt 0.2576 0.833
vt 0.2359 0.8264
vt 0.3444 0.8157
vt 0.3244 0.8264
vt 0.3027 0.6061
vt 0.3244 0.6127
vt 0.3619 0.6378
vt 0.3763 0.6553
vt 0.3619 0.8013
vt 0.387 0.6753
vt 0.3936 0.697
vt 0.2159 0.8157
vt 0.1733 0.7638
vt 0.3958 0.7195
vt 0.3936 0.7421
vt 0.1667 0.7421
vt 0.2159 0.6234
vt 0.1983 0.6378
vt 0.1733 0.6753
vt 0.3444 0.6234
vt 0.1839 0.6553
vt 0.2069 0.7341
vt 0.2054 0.7195
vt 0.2111 0.7481
vt 0.218 0.7611
vt 0.2273 0.7724
vt 0.2386 0.7817
vt 0.2515 0.7886
vt 0.2656 0.7928
vt 0.2801 0.7943
vt 0.2947 0.7928
vt 0.3087 0.7886
vt 0.3216 0.7817
vt 0.3329 0.7724
vt 0.3422 0.7611
vt 0.3491 0.7481
vt 0.3534 0.7341
vt 0.3548 0.7195
vt 0.3534 0.705
vt 0.3491 0.691
vt 0.3422 0.678
vt 0.3329 0.6667
vt 0.3216 0.6574
vt 0.3087 0.6505
vt 0.2947 0.6463
vt 0.2801 0.6448
vt 0.2656 0.6463
vt 0.2515 0.6505
vt 0.2386 0.6574
vt 0.2273 0.6667
vt 0.218 0.678
vt 0.2111 0.691
vt 0.2069 0.705
vt 0.3213 0.6783
vt 0.3286 0.6872
vt 0.3213 0.7608
vt 0.3125 0.768
vt 0.2389 0.6783
vt 0.2477 0.6711
vt 0.2688 0.7767
vt 0.2578 0.7734
vt 0.2477 0.768
vt 0.334 0.6972
vt 0.3373 0.7082
vt 0.2578 0.6657
vt 0.2263 0.7418
vt 0.223 0.7309
vt 0.2317 0.6872
vt 0.2389 0.7608
vt 0.2317 0.7519
vt 0.3384 0.7195
vt 0.3373 0.7309
vt 0.3286 0.7519
vt 0.2915 0.6624
vt 0.3024 0.6657
vt 0.3125 0.6711
vt 0.2218 0.7195
vt 0.223 0.7082
vt 0.3024 0.7734
vt 0.2915 0.7767
vt 0.2801 0.6613
vt 0.2801 0.7778
vt 0.2263 0.6972
vt 0.2688 0.6624
vt 0.334 0.7418
vt 0.44 0.2508
vt 0.4349 0.3027
vt 0.4551 0.201
vt 0.4797 0.155
vt 0.5127 0.1147
vt 0.553 0.0817
vt 0.599 0.0571
vt 0.6488 0.042
vt 0.7007 0.0369
vt 0.7525 0.042
vt 0.8024 0.0571
vt 0.8483 0.0817
vt 0.8886 0.1147
vt 0.9216 0.155
vt 0.9462 0.201
vt 0.9613 0.2508
vt 0.9664 0.3027
vt 0.9613 0.3545
vt 0.9462 0.4044
vt 0.9216 0.4503
vt 0.8886 0.4906
vt 0.8483 0.5237
vt 0.8024 0.5482
vt 0.7525 0.5633
vt 0.7007 0.5684
vt 0.6488 0.5633
vt 0.599 0.5482
vt 0.553 0.5237
vt 0.5127 0.4906
vt 0.4797 0.4503
vt 0.4551 0.4044
vt 0.44 0.3545
vt 0.4751 0.4534
f 740/1 26/2 11/3 739/4
f 732/5 21/6 6/7 731/8
f 26/2 27/9 12/10 11/3
f 804/11 22/12 7/13 803/14
f 2/15 1/16 16/17 17/18
f 27/9 28/19 13/20 12/10
f 22/12 23/21 8/22 7/13
f 717/23 18/24 3/25 718/26
f 28/19 29/27 14/28 13/20
f 23/29 24/30 9/31 8/32
f 636/33 19/34 4/35 635/36
f 29/27 30/37 15/38 14/28
f 772/39 25/40 10/41 771/42
f 604/43 20/44 5/45 603/46
f 741/47 41/48 26/2 740/1
f 733/49 36/50 21/6 732/5
f 41/48 42/51 27/9 26/2
f 805/52 37/53 22/12 804/11
f 31/54 32/55 17/18 16/17
f 42/51 43/56 28/19 27/9
f 37/53 38/57 23/21 22/12
f 716/58 33/59 18/24 717/23
f 43/56 44/60 29/27 28/19
f 38/61 39/62 24/30 23/29
f 637/63 34/64 19/34 636/33
f 44/60 45/65 30/37 29/27
f 773/66 40/67 25/40 772/39
f 605/68 35/69 20/44 604/43
f 638/70 49/71 34/64 637/63
f 59/72 60/73 45/65 44/60
f 774/74 55/75 40/67 773/66
f 606/76 50/77 35/69 605/68
f 742/78 56/79 41/48 741/47
f 734/80 51/81 36/50 733/49
f 56/79 57/82 42/51 41/48
f 806/83 52/84 37/53 805/52
f 46/85 47/86 32/55 31/54
f 57/82 58/87 43/56 42/51
f 52/84 53/88 38/57 37/53
f 715/89 48/90 33/59 716/58
f 58/87 59/72 44/60 43/56
f 53/91 54/92 39/62 38/61
f 67/93 68/94 53/88 52/84
f 626/95 63/96 48/90 715/89
f 73/97 74/98 59/72 58/87
f 68/99 69/100 54/92 53/91
f 599/101 64/102 49/71 638/70
f 74/98 75/103 60/73 59/72
f 775/104 70/105 55/75 774/74
f 639/106 65/107 50/77 606/76
f 743/108 71/109 56/79 742/78
f 582/110 66/111 51/81 734/80
f 71/109 72/112 57/82 56/79
f 807/113 67/93 52/84 806/83
f 61/114 62/115 47/86 46/85
f 72/112 73/97 58/87 57/82
f 86/116 87/117 72/112 71/109
f 808/118 82/119 67/93 807/113
f 76/120 77/121 62/115 61/114
f 87/117 88/122 73/97 72/112
f 82/119 83/123 68/94 67/93
f 625/124 78/125 63/96 626/95
f 88/122 89/126 74/98 73/97
f 83/127 84/128 69/100 68/99
f 600/129 79/130 64/102 599/101
f 89/126 90/131 75/103 74/98
f 776/132 85/133 70/105 775/104
f 640/134 80/135 65/107 639/106
f 744/136 86/116 71/109 743/108
f 581/137 81/138 66/111 582/110
f 745/139 101/140 86/116 744/136
f 580/141 96/142 81/138 581/137
f 101/140 102/143 87/117 86/116
f 809/144 97/145 82/119 808/118
f 91/146 92/147 77/121 76/120
f 102/143 103/148 88/122 87/117
f 97/145 98/149 83/123 82/119
f 624/150 93/151 78/125 625/124
f 103/148 104/152 89/126 88/122
f 98/153 99/154 84/128 83/127
f 601/155 94/156 79/130 600/129
f 104/152 105/157 90/131 89/126
f 777/158 100/159 85/133 776/132
f 641/160 95/161 80/135 640/134
f 602/162 109/163 94/156 601/155
f 119/164 120/165 105/157 104/152
f 778/166 115/167 100/159 777/158
f 642/168 110/169 95/161 641/160
f 746/170 116/171 101/140 745/139
f 579/172 111/173 96/142 580/141
f 116/171 117/174 102/143 101/140
f 810/175 112/176 97/145 809/144
f 106/177 107/178 92/147 91/146
f 117/174 118/179 103/148 102/143
f 112/176 113/180 98/149 97/145
f 623/181 108/182 93/151 624/150
f 118/179 119/164 104/152 103/148
f 113/183 114/184 99/154 98/153
f 127/185 128/186 113/180 112/176
f 590/187 123/188 108/182 623/181
f 133/189 134/190 119/164 118/179
f 128/191 129/192 114/184 113/183
f 698/193 124/194 109/163 602/162
f 134/190 135/195 120/165 119/164
f 779/196 130/197 115/167 778/166
f 659/198 125/199 110/169 642/168
f 747/200 131/201 116/171 746/170
f 666/202 126/203 111/173 579/172
f 131/201 132/204 117/174 116/171
f 811/205 127/185 112/176 810/175
f 121/206 122/207 107/178 106/177
f 132/204 133/189 118/179 117/174
f 146/208 147/209 132/204 131/201
f 812/210 142/211 127/185 811/205
f 136/212 137/213 122/207 121/206
f 147/209 148/214 133/189 132/204
f 142/211 143/215 128/186 127/185
f 589/216 138/217 123/188 590/187
f 148/214 149/218 134/190 133/189
f 143/219 144/220 129/192 128/191
f 697/221 139/222 124/194 698/193
f 149/218 150/223 135/195 134/190
f 780/224 145/225 130/197 779/196
f 660/226 140/227 125/199 659/198
f 748/228 146/208 131/201 747/200
f 665/229 141/230 126/203 666/202
f 749/231 161/232 146/208 748/228
f 664/233 156/234 141/230 665/229
f 161/232 162/235 147/209 146/208
f 813/236 157/237 142/211 812/210
f 151/238 152/239 137/213 136/212
f 162/235 163/240 148/214 147/209
f 157/237 158/241 143/215 142/211
f 588/242 153/243 138/217 589/216
f 163/240 164/244 149/218 148/214
f 158/245 159/246 144/220 143/219
f 696/247 154/248 139/222 697/221
f 164/244 165/249 150/223 149/218
f 781/250 160/251 145/225 780/224
f 661/252 155/253 140/227 660/226
f 179/254 180/255 165/249 164/244
f 782/256 175/257 160/251 781/250
f 662/258 170/259 155/253 661/252
f 750/260 176/261 161/232 749/231
f 663/262 171/263 156/234 664/233
f 176/261 177/264 162/235 161/232
f 814/265 172/266 157/237 813/236
f 166/267 167/268 152/239 151/238
f 177/264 178/269 163/240 162/235
f 172/266 173/270 158/241 157/237
f 587/271 168/272 153/243 588/242
f 178/269 179/254 164/244 163/240
f 173/273 174/274 159/246 158/245
f 695/275 169/276 154/248 696/247
f 622/277 183/278 168/272 587/271
f 193/279 194/280 179/254 178/269
f 188/281 189/282 174/274 173/273
f 694/283 184/284 169/276 695/275
f 194/280 195/285 180/255 179/254
f 783/286 190/287 175/257 782/256
f 611/288 185/289 170/259 662/258
f 751/290 191/291 176/261 750/260
f 634/292 186/293 171/263 663/262
f 191/291 192/294 177/264 176/261
f 815/295 187/296 172/266 814/265
f 181/297 182/298 167/268 166/267
f 192/294 193/279 178/269 177/264
f 187/296 188/299 173/270 172/266
f 816/300 202/301 187/296 815/295
f 196/302 197/303 182/298 181/297
f 207/304 208/305 193/279 192/294
f 202/301 203/306 188/299 187/296
f 621/307 198/308 183/278 622/277
f 208/305 209/309 194/280 193/279
f 203/310 204/311 189/282 188/281
f 693/312 199/313 184/284 694/283
f 209/309 210/314 195/285 194/280
f 784/315 205/316 190/287 783/286
f 612/317 200/318 185/289 611/288
f 752/319 206/320 191/291 751/290
f 633/321 201/322 186/293 634/292
f 206/320 207/304 192/294 191/291
f 753/323 221/324 206/320 752/319
f 632/325 216/326 201/322 633/321
f 221/324 222/327 207/304 206/320
f 817/328 217/329 202/301 816/300
f 211/330 212/331 197/303 196/302
f 222/327 223/332 208/305 207/304
f 217/329 218/333 203/306 202/301
f 620/334 213/335 198/308 621/307
f 223/332 224/336 209/309 208/305
f 218/337 219/338 204/311 203/310
f 692/339 214/340 199/313 693/312
f 224/336 225/341 210/314 209/309
f 785/342 220/343 205/316 784/315
f 613/344 215/345 200/318 612/317
f 239/346 240/347 225/341 224/336
f 786/348 235/349 220/343 785/342
f 614/350 230/351 215/345 613/344
f 754/352 236/353 221/324 753/323
f 631/354 231/355 216/326 632/325
f 236/353 237/356 222/327 221/324
f 818/357 232/358 217/329 817/328
f 226/359 227/360 212/331 211/330
f 237/356 238/361 223/332 222/327
f 232/358 233/362 218/333 217/329
f 619/363 228/364 213/335 620/334
f 238/361 239/346 224/336 223/332
f 233/365 234/366 219/338 218/337
f 691/367 229/368 214/340 692/339
f 650/369 243/370 228/364 619/363
f 253/371 254/372 239/346 238/361
f 248/373 249/374 234/366 233/365
f 671/375 244/376 229/368 691/367
f 254/372 255/377 240/347 239/346
f 787/378 250/379 235/349 786/348
f 675/380 245/381 230/351 614/350
f 755/382 251/383 236/353 754/352
f 738/384 246/385 231/355 631/354
f 251/383 252/386 237/356 236/353
f 819/387 247/388 232/358 818/357
f 241/389 242/390 227/360 226/359
f 252/386 253/371 238/361 237/356
f 247/388 248/391 233/362 232/358
f 820/392 262/393 247/388 819/387
f 256/394 257/395 242/390 241/389
f 267/396 268/397 253/371 252/386
f 262/393 263/398 248/391 247/388
f 649/399 258/400 243/370 650/369
f 268/397 269/401 254/372 253/371
f 263/402 264/403 249/374 248/373
f 672/404 259/405 244/376 671/375
f 269/401 270/406 255/377 254/372
f 788/407 265/408 250/379 787/378
f 676/409 260/410 245/381 675/380
f 756/411 266/412 251/383 755/382
f 737/413 261/414 246/385 738/384
f 266/412 267/396 252/386 251/383
f 757/415 281/416 266/412 756/411
f 736/417 276/418 261/414 737/413
f 281/416 282/419 267/396 266/412
f 821/420 277/421 262/393 820/392
f 271/422 272/423 257/395 256/394
f 282/419 283/424 268/397 267/396
f 277/421 278/425 263/398 262/393
f 648/426 273/427 258/400 649/399
f 283/424 284/428 269/401 268/397
f 278/429 279/430 264/403 263/402
f 673/431 274/432 259/405 672/404
f 284/428 285/433 270/406 269/401
f 789/434 280/435 265/408 788/407
f 677/436 275/437 260/410 676/409
f 299/438 300/439 285/433 284/428
f 790/440 295/441 280/435 789/434
f 678/442 290/443 275/437 677/436
f 758/444 296/445 281/416 757/415
f 735/446 291/447 276/418 736/417
f 296/445 297/448 282/419 281/416
f 822/449 292/450 277/421 821/420
f 286/451 287/452 272/423 271/422
f 297/448 298/453 283/424 282/419
f 292/450 293/454 278/425 277/421
f 647/455 288/456 273/427 648/426
f 298/453 299/438 284/428 283/424
f 293/457 294/458 279/430 278/429
f 674/459 289/460 274/432 673/431
f 313/461 314/462 299/438 298/453
f 308/463 309/464 294/458 293/457
f 667/465 304/466 289/460 674/459
f 314/462 315/467 300/439 299/438
f 791/468 310/469 295/441 790/440
f 714/470 305/471 290/443 678/442
f 759/472 311/473 296/445 758/444
f 730/474 306/475 291/447 735/446
f 311/473 312/476 297/448 296/445
f 823/477 307/478 292/450 822/449
f 301/479 302/480 287/452 286/451
f 312/476 313/461 298/453 297/448
f 307/478 308/481 293/454 292/450
f 686/482 303/483 288/456 647/455
f 316/484 317/485 302/480 301/479
f 327/486 328/487 313/461 312/476
f 322/488 323/489 308/481 307/478
f 685/490 318/491 303/483 686/482
f 328/487 329/492 314/462 313/461
f 323/493 324/494 309/464 308/463
f 668/495 319/496 304/466 667/465
f 329/492 330/497 315/467 314/462
f 792/498 325/499 310/469 791/468
f 713/500 320/501 305/471 714/470
f 760/502 326/503 311/473 759/472
f 729/504 321/505 306/475 730/474
f 326/503 327/486 312/476 311/473
f 824/506 322/488 307/478 823/477
f 728/507 337/508 321/505 729/504
f 342/509 343/510 327/486 326/503
f 825/511 338/512 322/488 824/506
f 332/513 333/514 317/485 316/484
f 343/510 344/515 328/487 327/486
f 338/512 339/516 323/489 322/488
f 684/517 334/518 318/491 685/490
f 344/515 345/519 329/492 328/487
f 339/520 340/521 324/494 323/493
f 669/522 335/523 319/496 668/495
f 345/519 346/524 330/497 329/492
f 793/525 341/526 325/499 792/498
f 712/527 336/528 320/501 713/500
f 761/529 342/509 326/503 760/502
f 794/530 356/531 341/526 793/525
f 711/532 351/533 336/528 712/527
f 762/534 357/535 342/509 761/529
f 727/536 352/537 337/508 728/507
f 357/535 358/538 343/510 342/509
f 826/539 353/540 338/512 825/511
f 347/541 348/542 333/514 332/513
f 358/538 359/543 344/515 343/510
f 353/540 354/544 339/516 338/512
f 683/545 349/546 334/518 684/517
f 359/543 360/547 345/519 344/515
f 354/548 355/549 340/521 339/520
f 670/550 350/551 335/523 669/522
f 360/547 361/552 346/524 345/519
f 374/553 375/554 360/547 359/543
f 369/555 370/556 355/549 354/548
f 702/557 365/558 350/551 670/550
f 375/554 376/559 361/552 360/547
f 795/560 371/561 356/531 794/530
f 719/562 366/563 351/533 711/532
f 763/564 372/565 357/535 762/534
f 726/566 367/567 352/537 727/536
f 372/565 373/568 358/538 357/535
f 827/569 368/570 353/540 826/539
f 362/571 363/572 348/542 347/541
f 373/568 374/553 359/543 358/538
f 368/570 369/573 354/544 353/540
f 630/574 364/575 349/546 683/545
f 377/576 378/577 363/572 362/571
f 388/578 389/579 374/553 373/568
f 383/580 384/581 369/573 368/570
f 629/582 379/583 364/575 630/574
f 389/579 390/584 375/554 374/553
f 384/585 385/586 370/556 369/555
f 701/587 380/588 365/558 702/557
f 390/584 391/589 376/559 375/554
f 796/590 386/591 371/561 795/560
f 720/592 381/593 366/563 719/562
f 764/594 387/595 372/565 763/564
f 725/596 382/597 367/567 726/566
f 387/595 388/578 373/568 372/565
f 828/598 383/580 368/570 827/569
f 724/599 397/600 382/597 725/596
f 402/601 403/602 388/578 387/595
f 829/603 398/604 383/580 828/598
f 392/605 393/606 378/577 377/576
f 403/602 404/607 389/579 388/578
f 398/604 399/608 384/581 383/580
f 628/609 394/610 379/583 629/582
f 404/607 405/611 390/584 389/579
f 399/612 400/613 385/586 384/585
f 700/614 395/615 380/588 701/587
f 405/611 406/616 391/589 390/584
f 797/617 401/618 386/591 796/590
f 721/619 396/620 381/593 720/592
f 765/621 402/601 387/595 764/594
f 798/622 416/623 401/618 797/617
f 722/624 411/625 396/620 721/619
f 766/626 417/627 402/601 765/621
f 723/628 412/629 397/600 724/599
f 417/627 418/630 403/602 402/601
f 830/631 413/632 398/604 829/603
f 407/633 408/634 393/606 392/605
f 418/630 419/635 404/607 403/602
f 413/632 414/636 399/608 398/604
f 627/637 409/638 394/610 628/609
f 419/635 420/639 405/611 404/607
f 414/640 415/641 400/613 399/612
f 699/642 410/643 395/615 700/614
f 420/639 421/644 406/616 405/611
f 434/645 435/646 420/639 419/635
f 429/647 430/648 415/641 414/640
f 706/649 425/650 410/643 699/642
f 435/646 436/651 421/644 420/639
f 799/652 431/653 416/623 798/622
f 583/654 426/655 411/625 722/624
f 767/656 432/657 417/627 766/626
f 654/658 427/659 412/629 723/628
f 432/657 433/660 418/630 417/627
f 831/661 428/662 413/632 830/631
f 422/663 423/664 408/634 407/633
f 433/660 434/645 419/635 418/630
f 428/662 429/665 414/636 413/632
f 707/666 424/667 409/638 627/637
f 448/668 449/669 434/645 433/660
f 443/670 444/671 429/665 428/662
f 708/672 439/673 424/667 707/666
f 449/669 450/674 435/646 434/645
f 444/675 445/675 430/675 429/675
f 705/676 440/677 425/650 706/649
f 450/674 451/678 436/651 435/646
f 800/679 446/680 431/653 799/652
f 584/681 441/682 426/655 583/654
f 768/683 447/684 432/657 767/656
f 653/685 442/686 427/659 654/658
f 447/684 448/668 433/660 432/657
f 832/687 443/670 428/662 831/661
f 437/688 438/689 423/664 422/663
f 463/690 464/691 448/668 447/684
f 833/692 459/693 443/670 832/687
f 453/694 454/695 438/689 437/688
f 464/691 465/696 449/669 448/668
f 459/693 460/697 444/671 443/670
f 709/698 455/699 439/673 708/672
f 465/696 466/700 450/674 449/669
f 460/675 461/675 445/675 444/675
f 704/701 456/702 440/677 705/676
f 466/700 467/703 451/678 450/674
f 801/704 462/705 446/680 800/679
f 585/706 457/707 441/682 584/681
f 769/708 463/690 447/684 768/683
f 652/709 458/710 442/686 653/685
f 586/711 472/712 457/707 585/706
f 770/713 478/714 463/690 769/708
f 651/715 473/716 458/710 652/709
f 478/714 479/717 464/691 463/690
f 834/718 474/719 459/693 833/692
f 468/720 469/721 454/695 453/694
f 479/717 480/722 465/696 464/691
f 474/719 475/723 460/697 459/693
f 710/724 470/725 455/699 709/698
f 480/722 481/726 466/700 465/696
f 475/727 476/728 461/729 460/730
f 703/731 471/732 456/702 704/701
f 481/726 482/733 467/703 466/700
f 802/734 477/735 462/705 801/704
f 30/37 331/736 15/38
f 16/17 1/16 452/737
f 45/65 331/736 30/37
f 452/737 31/54 16/17
f 60/73 331/736 45/65
f 452/737 46/85 31/54
f 75/103 331/736 60/73
f 452/737 61/114 46/85
f 90/131 331/736 75/103
f 452/737 76/120 61/114
f 105/157 331/736 90/131
f 452/737 91/146 76/120
f 120/165 331/736 105/157
f 452/737 106/177 91/146
f 135/195 331/736 120/165
f 452/737 121/206 106/177
f 150/223 331/736 135/195
f 452/737 136/212 121/206
f 165/249 331/736 150/223
f 452/737 151/238 136/212
f 180/255 331/736 165/249
f 452/737 166/267 151/238
f 195/285 331/736 180/255
f 452/737 181/297 166/267
f 210/314 331/736 195/285
f 452/737 196/302 181/297
f 452/737 211/330 196/302
f 225/341 331/736 210/314
f 240/347 331/736 225/341
f 452/737 226/359 211/330
f 255/377 331/736 240/347
f 452/737 241/389 226/359
f 270/406 331/736 255/377
f 452/737 256/394 241/389
f 452/737 271/422 256/394
f 285/433 331/736 270/406
f 300/439 331/736 285/433
f 452/737 286/451 271/422
f 315/467 331/736 300/439
f 452/737 301/479 286/451
f 330/497 331/736 315/467
f 452/737 316/484 301/479
f 452/737 332/513 316/484
f 346/524 331/736 330/497
f 361/552 331/736 346/524
f 452/737 347/541 332/513
f 376/559 331/736 361/552
f 452/737 362/571 347/541
f 391/589 331/736 376/559
f 452/737 377/576 362/571
f 452/737 392/605 377/576
f 406/616 331/736 391/589
f 421/644 331/736 406/616
f 452/737 407/633 392/605
f 436/651 331/736 421/644
f 452/737 422/663 407/633
f 451/678 331/736 436/651
f 452/737 437/688 422/663
f 452/737 453/694 437/688
f 467/703 331/736 451/678
f 482/733 331/736 467/703
f 452/737 468/720 453/694
f 8/32 9/31 476/728 475/727
f 635/36 4/35 471/732 703/731
f 14/28 15/38 482/733 481/726
f 771/42 10/41 477/735 802/734
f 603/46 5/45 472/712 586/711
f 15/38 331/736 482/733
f 739/4 11/3 478/714 770/713
f 731/8 6/7 473/716 651/715
f 452/737 1/16 468/720
f 11/3 12/10 479/717 478/714
f 803/14 7/13 474/719 834/718
f 1/16 2/15 469/721 468/720
f 12/10 13/20 480/722 479/717
f 7/13 8/22 475/723 474/719
f 718/26 3/25 470/725 710/724
f 13/20 14/28 481/726 480/722
f 21/6 484/738 483/739 6/7
f 36/50 485/740 484/738 21/6
f 51/81 486/741 485/740 36/50
f 66/111 487/742 486/741 51/81
f 81/138 488/743 487/742 66/111
f 96/142 489/744 488/743 81/138
f 111/173 490/745 489/744 96/142
f 126/203 491/746 490/745 111/173
f 141/230 492/747 491/746 126/203
f 156/234 493/748 492/747 141/230
f 171/263 494/749 493/748 156/234
f 186/293 495/750 494/749 171/263
f 201/322 496/751 495/750 186/293
f 216/326 497/752 496/751 201/322
f 231/355 498/753 497/752 216/326
f 246/385 499/754 498/753 231/355
f 261/414 500/755 499/754 246/385
f 276/418 501/756 500/755 261/414
f 291/447 502/757 501/756 276/418
f 306/475 503/758 502/757 291/447
f 321/505 504/759 503/758 306/475
f 337/508 505/760 504/759 321/505
f 352/537 506/761 505/760 337/508
f 367/567 507/762 506/761 352/537
f 382/597 508/763 507/762 367/567
f 397/600 509/764 508/763 382/597
f 412/629 510/765 509/764 397/600
f 427/659 511/766 510/765 412/629
f 442/686 512/767 511/766 427/659
f 458/710 513/768 512/767 442/686
f 473/716 514/769 513/768 458/710
f 6/7 483/739 514/769 473/716
f 65/107 542/770 531/771 50/77
f 140/227 529/772 530/773 125/199
f 396/620 520/774 521/775 381/593
f 215/345 516/776 517/777 200/318
f 381/593 521/775 522/778 366/563
f 5/45 534/779 543/780 472/712
f 110/169 539/781 540/782 95/161
f 170/259 527/783 528/784 155/253
f 351/533 535/785 536/786 336/528
f 305/471 538/787 523/788 290/443
f 185/289 518/789 527/783 170/259
f 275/437 524/790 525/791 260/410
f 80/135 541/792 542/770 65/107
f 50/77 531/771 532/793 35/69
f 366/563 522/778 535/785 351/533
f 245/381 526/794 515/795 230/351
f 20/44 533/796 534/779 5/45
f 411/625 519/797 520/774 396/620
f 426/655 546/798 519/797 411/625
f 472/712 543/780 544/799 457/707
f 95/161 540/782 541/792 80/135
f 35/69 532/793 533/796 20/44
f 336/528 536/786 537/800 320/501
f 200/318 517/777 518/789 185/289
f 155/253 528/784 529/772 140/227
f 320/501 537/800 538/787 305/471
f 290/443 523/788 524/790 275/437
f 125/199 530/773 539/781 110/169
f 260/410 525/791 526/794 245/381
f 441/682 545/801 546/798 426/655
f 457/707 544/799 545/801 441/682
f 230/351 515/795 516/776 215/345
f 19/34 548/802 547/803 4/35
f 34/64 549/804 548/802 19/34
f 49/71 550/805 549/804 34/64
f 64/102 551/806 550/805 49/71
f 79/130 552/807 551/806 64/102
f 94/156 553/808 552/807 79/130
f 109/163 554/809 553/808 94/156
f 124/194 555/810 554/809 109/163
f 139/222 556/811 555/810 124/194
f 154/248 557/812 556/811 139/222
f 169/276 558/813 557/812 154/248
f 184/284 559/814 558/813 169/276
f 199/313 560/815 559/814 184/284
f 214/340 561/816 560/815 199/313
f 229/368 562/817 561/816 214/340
f 244/376 563/818 562/817 229/368
f 259/405 564/819 563/818 244/376
f 274/432 565/820 564/819 259/405
f 289/460 566/821 565/820 274/432
f 304/466 567/822 566/821 289/460
f 319/496 568/823 567/822 304/466
f 335/523 569/824 568/823 319/496
f 350/551 570/825 569/824 335/523
f 365/558 571/826 570/825 350/551
f 380/588 572/827 571/826 365/558
f 395/615 573/828 572/827 380/588
f 410/643 574/829 573/828 395/615
f 425/650 575/830 574/829 410/643
f 440/677 576/831 575/830 425/650
f 456/702 577/832 576/831 440/677
f 471/732 578/833 577/832 456/702
f 4/35 547/803 578/833 471/732
f 548/802 604/43 603/46 547/803
f 317/485 685/490 686/482 302/480
f 598/834 667/465 674/459 655/835
f 303/483 598/834 655/835 288/456
f 287/452 647/455 648/426 272/423
f 618/836 694/283 695/275 679/837
f 424/667 690/838 591/839 409/638
f 108/182 607/840 608/841 93/151
f 93/151 608/841 609/842 78/125
f 273/427 656/843 657/844 258/400
f 393/606 628/609 629/582 378/577
f 409/638 591/839 592/845 394/610
f 573/828 721/619 720/592 572/827
f 547/803 603/46 586/711 578/833
f 33/59 644/846 645/847 18/24
f 257/395 649/399 650/369 242/390
f 562/817 614/350 613/344 561/816
f 439/673 689/848 690/838 424/667
f 63/96 610/849 643/850 48/90
f 243/370 658/851 615/852 228/364
f 198/308 617/853 618/836 183/278
f 92/147 624/150 625/124 77/121
f 349/546 595/854 596/855 334/518
f 334/518 596/855 597/856 318/491
f 3/25 646/857 687/858 470/725
f 153/243 680/859 681/860 138/217
f 645/847 636/33 635/36 646/857
f 594/861 702/557 670/550 595/854
f 212/331 620/334 621/307 197/303
f 258/400 657/844 658/851 243/370
f 646/857 635/36 703/731 687/858
f 644/846 637/63 636/33 645/847
f 138/217 681/860 682/862 123/188
f 687/858 703/731 704/701 688/863
f 288/456 655/835 656/843 273/427
f 182/298 622/277 587/271 167/268
f 455/699 688/863 689/848 439/673
f 18/24 645/847 646/857 3/25
f 348/542 683/545 684/517 333/514
f 438/689 708/672 707/666 423/664
f 617/853 693/312 694/283 618/836
f 379/583 593/864 594/861 364/575
f 167/268 587/271 588/242 152/239
f 228/364 615/852 616/865 213/335
f 78/125 609/842 610/849 63/96
f 536/786 728/507 729/504 537/800
f 213/335 616/865 617/853 198/308
f 183/278 618/836 679/837 168/272
f 364/575 594/861 595/854 349/546
f 592/845 700/614 701/587 593/864
f 532/793 733/49 732/5 533/796
f 544/799 652/709 653/685 545/801
f 302/480 686/482 647/455 287/452
f 394/610 592/845 593/864 379/583
f 597/856 668/495 667/465 598/834
f 689/848 705/676 706/649 690/838
f 48/90 643/850 644/846 33/59
f 168/272 679/837 680/859 153/243
f 658/851 671/375 691/367 615/852
f 318/491 597/856 598/834 303/483
f 123/188 682/862 607/840 108/182
f 470/725 687/858 688/863 455/699
f 423/664 707/666 627/637 408/634
f 688/863 704/701 705/676 689/848
f 152/239 588/242 589/216 137/213
f 616/865 692/339 693/312 617/853
f 608/841 601/155 600/129 609/842
f 593/864 701/587 702/557 594/861
f 690/838 706/649 699/642 591/839
f 596/855 669/522 668/495 597/856
f 122/207 590/187 623/181 107/178
f 615/852 691/367 692/339 616/865
f 242/390 650/369 619/363 227/360
f 595/854 670/550 669/522 596/855
f 77/121 625/124 626/95 62/115
f 454/695 709/698 708/672 438/689
f 655/835 674/459 673/431 656/843
f 609/842 600/129 599/101 610/849
f 657/844 672/404 671/375 658/851
f 363/572 630/574 683/545 348/542
f 679/837 695/275 696/247 680/859
f 574/829 722/624 721/619 573/828
f 681/860 697/221 698/193 682/862
f 680/859 696/247 697/221 681/860
f 561/816 613/344 612/317 560/815
f 47/86 715/89 716/58 32/55
f 610/849 599/101 638/70 643/850
f 62/115 626/95 715/89 47/86
f 643/850 638/70 637/63 644/846
f 607/840 602/162 601/155 608/841
f 682/862 698/193 602/162 607/840
f 591/839 699/642 700/614 592/845
f 656/843 673/431 672/404 657/844
f 564/819 676/409 675/380 563/818
f 378/577 629/582 630/574 363/572
f 552/807 640/134 639/106 551/806
f 107/178 623/181 624/150 92/147
f 197/303 621/307 622/277 182/298
f 569/824 712/527 713/500 568/823
f 543/780 651/715 652/709 544/799
f 524/790 736/417 737/413 525/791
f 333/514 684/517 685/490 317/485
f 137/213 589/216 590/187 122/207
f 469/721 710/724 709/698 454/695
f 549/804 605/68 604/43 548/802
f 572/827 720/592 719/562 571/826
f 32/55 716/58 717/23 17/18
f 227/360 619/363 620/334 212/331
f 571/826 719/562 711/532 570/825
f 545/801 653/685 654/658 546/798
f 518/789 634/292 663/262 527/783
f 563/818 675/380 614/350 562/817
f 555/810 659/198 642/168 554/809
f 272/423 648/426 649/399 257/395
f 408/634 627/637 628/609 393/606
f 17/18 717/23 718/26 2/15
f 2/15 718/26 710/724 469/721
f 559/814 611/288 662/258 558/813
f 556/811 660/226 659/198 555/810
f 553/808 641/160 640/134 552/807
f 570/825 711/532 712/527 569/824
f 558/813 662/258 661/252 557/812
f 539/781 579/172 580/141 540/782
f 551/806 639/106 606/76 550/805
f 540/782 580/141 581/137 541/792
f 576/831 584/681 583/654 575/830
f 546/798 654/658 723/628 519/797
f 519/797 723/628 724/599 520/774
f 542/770 582/110 734/80 531/771
f 516/776 632/325 633/321 517/777
f 567/822 714/470 678/442 566/821
f 554/809 642/168 641/160 553/808
f 577/832 585/706 584/681 576/831
f 568/823 713/500 714/470 567/822
f 523/788 735/446 736/417 524/790
f 550/805 606/76 605/68 549/804
f 522/778 726/566 727/536 535/785
f 575/830 583/654 722/624 574/829
f 565/820 677/436 676/409 564/819
f 535/785 727/536 728/507 536/786
f 566/821 678/442 677/436 565/820
f 557/812 661/252 660/226 556/811
f 560/815 612/317 611/288 559/814
f 529/772 665/229 666/202 530/773
f 578/833 586/711 585/706 577/832
f 521/775 725/596 726/566 522/778
f 538/787 730/474 735/446 523/788
f 517/777 633/321 634/292 518/789
f 533/796 732/5 731/8 534/779
f 530/773 666/202 579/172 539/781
f 534/779 731/8 651/715 543/780
f 531/771 734/80 733/49 532/793
f 525/791 737/413 738/384 526/794
f 528/784 664/233 665/229 529/772
f 527/783 663/262 664/233 528/784
f 537/800 729/504 730/474 538/787
f 515/795 631/354 632/325 516/776
f 526/794 738/384 631/354 515/795
f 520/774 724/599 725/596 521/775
f 541/792 581/137 582/110 542/770
f 25/40 740/1 739/4 10/41
f 40/67 741/47 740/1 25/40
f 55/75 742/78 741/47 40/67
f 70/105 743/108 742/78 55/75
f 85/133 744/136 743/108 70/105
f 100/159 745/139 744/136 85/133
f 115/167 746/170 745/139 100/159
f 130/197 747/200 746/170 115/167
f 145/225 748/228 747/200 130/197
f 160/251 749/231 748/228 145/225
f 175/257 750/260 749/231 160/251
f 190/287 751/290 750/260 175/257
f 205/316 752/319 751/290 190/287
f 220/343 753/323 752/319 205/316
f 235/349 754/352 753/323 220/343
f 250/379 755/382 754/352 235/349
f 265/408 756/411 755/382 250/379
f 280/435 757/415 756/411 265/408
f 295/441 758/444 757/415 280/435
f 310/469 759/472 758/444 295/441
f 325/499 760/502 759/472 310/469
f 341/526 761/529 760/502 325/499
f 356/531 762/534 761/529 341/526
f 371/561 763/564 762/534 356/531
f 386/591 764/594 763/564 371/561
f 401/618 765/621 764/594 386/591
f 416/623 766/626 765/621 401/618
f 431/653 767/656 766/626 416/623
f 446/680 768/683 767/656 431/653
f 462/705 769/708 768/683 446/680
f 477/735 770/713 769/708 462/705
f 10/41 739/4 770/713 477/735
f 853/866 772/39 771/42 854/867
f 852/868 773/66 772/39 853/866
f 851/869 774/74 773/66 852/868
f 850/870 775/104 774/74 851/869
f 849/871 776/132 775/104 850/870
f 848/872 777/158 776/132 849/871
f 847/873 778/166 777/158 848/872
f 838/874 779/196 778/166 847/873
f 837/875 780/224 779/196 838/874
f 836/876 781/250 780/224 837/875
f 835/877 782/256 781/250 836/876
f 862/878 783/286 782/256 835/877
f 861/879 784/315 783/286 862/878
f 860/880 785/342 784/315 861/879
f 859/881 786/348 785/342 860/880
f 866/882 787/378 786/348 859/881
f 865/883 788/407 787/378 866/882
f 864/884 789/434 788/407 865/883
f 863/885 790/440 789/434 864/884
f 858/886 791/468 790/440 863/885
f 857/887 792/498 791/468 858/886
f 856/888 793/525 792/498 857/887
f 855/889 794/530 793/525 856/888
f 846/890 795/560 794/530 855/889
f 845/891 796/590 795/560 846/890
f 844/892 797/617 796/590 845/891
f 843/893 798/622 797/617 844/892
f 842/894 799/652 798/622 843/893
f 841/895 800/679 799/652 842/894
f 840/896 801/704 800/679 841/895
f 839/897 802/734 801/704 840/896
f 854/867 771/42 802/734 839/897
f 484/738 804/11 803/14 483/739
f 485/740 805/52 804/11 484/738
f 486/741 806/83 805/52 485/740
f 487/742 807/113 806/83 486/741
f 488/743 808/118 807/113 487/742
f 489/744 809/144 808/118 488/743
f 490/745 810/175 809/144 489/744
f 491/746 811/205 810/175 490/745
f 492/747 812/210 811/205 491/746
f 493/748 813/236 812/210 492/747
f 494/749 814/265 813/236 493/748
f 495/750 815/295 814/265 494/749
f 496/751 816/300 815/295 495/750
f 497/752 817/328 816/300 496/751
f 498/753 818/357 817/328 497/752
f 499/754 819/387 818/357 498/753
f 500/755 820/392 819/387 499/754
f 501/756 821/420 820/392 500/755
f 502/757 822/449 821/420 501/756
f 503/758 823/477 822/449 502/757
f 504/759 824/506 823/477 503/758
f 505/760 825/511 824/506 504/759
f 506/761 826/539 825/511 505/760
f 507/762 827/569 826/539 506/761
f 508/763 828/598 827/569 507/762
f 509/764 829/603 828/598 508/763
f 510/765 830/631 829/603 509/764
f 511/766 831/661 830/631 510/765
f 512/767 832/687 831/661 511/766
f 513/768 833/692 832/687 512/767
f 514/769 834/718 833/692 513/768
f 483/739 803/14 834/718 514/769
f 54/92 851/869 852/868 39/62
f 174/274 835/877 836/876 159/246
f 129/192 838/874 847/873 114/184
f 249/374 866/882 859/881 234/366
f 294/458 863/885 864/884 279/430
f 415/641 843/893 844/892 400/613
f 114/184 847/873 848/872 99/154
f 219/338 860/880 861/879 204/311
f 39/62 852/868 853/866 24/30
f 204/311 861/879 862/878 189/282
f 461/729 840/896 841/895 445/898
f 355/549 855/889 856/888 340/521
f 9/31 854/867 839/897 476/728
f 370/556 846/890 855/889 355/549
f 24/30 853/866 854/867 9/31
f 159/246 836/876 837/875 144/220
f 279/430 864/884 865/883 264/403
f 309/464 858/886 863/885 294/458
f 99/154 848/872 849/871 84/128
f 445/898 841/895 842/894 430/648
f 385/586 845/891 846/890 370/556
f 69/100 850/870 851/869 54/92
f 430/648 842/894 843/893 415/641
f 234/366 859/881 860/880 219/338
f 400/613 844/892 845/891 385/586
f 340/521 856/888 857/887 324/494
f 189/282 862/878 835/877 174/274
f 264/403 865/883 866/882 249/374
f 144/220 837/875 838/874 129/192
f 84/128 849/871 850/870 69/100
f 324/494 857/887 858/886 309/464
f 476/728 839/897 840/896 461/729